G04 #@! TF.GenerationSoftware,KiCad,Pcbnew,(5.1.2)-1*
G04 #@! TF.CreationDate,2019-05-26T20:18:29+06:00*
G04 #@! TF.ProjectId,HeadcrabShield,48656164-6372-4616-9253-6869656c642e,rev?*
G04 #@! TF.SameCoordinates,Original*
G04 #@! TF.FileFunction,Copper,L1,Top*
G04 #@! TF.FilePolarity,Positive*
%FSLAX46Y46*%
G04 Gerber Fmt 4.6, Leading zero omitted, Abs format (unit mm)*
G04 Created by KiCad (PCBNEW (5.1.2)-1) date 2019-05-26 20:18:29*
%MOMM*%
%LPD*%
G04 APERTURE LIST*
%ADD10O,1.700000X1.700000*%
%ADD11R,1.700000X1.700000*%
%ADD12O,1.600000X1.600000*%
%ADD13C,1.600000*%
%ADD14R,1.500000X1.050000*%
%ADD15O,1.500000X1.050000*%
%ADD16O,1.727200X2.032000*%
%ADD17C,4.064000*%
%ADD18C,0.600000*%
%ADD19C,0.600000*%
%ADD20C,0.254000*%
G04 APERTURE END LIST*
D10*
X122428000Y-85725000D03*
X122428000Y-88265000D03*
X122428000Y-90805000D03*
X122428000Y-93345000D03*
X122428000Y-95885000D03*
X122428000Y-98425000D03*
X122428000Y-100965000D03*
X122428000Y-103505000D03*
X122428000Y-106045000D03*
D11*
X122428000Y-108585000D03*
D12*
X155448000Y-83185000D03*
D13*
X170688000Y-83185000D03*
D12*
X155448000Y-93345000D03*
D13*
X170688000Y-93345000D03*
D12*
X151638000Y-83185000D03*
D13*
X136398000Y-83185000D03*
D12*
X151638000Y-93345000D03*
D13*
X136398000Y-93345000D03*
D12*
X151638000Y-88265000D03*
D13*
X136398000Y-88265000D03*
D12*
X151638000Y-98425000D03*
D13*
X136398000Y-98425000D03*
D12*
X155448000Y-103505000D03*
D13*
X170688000Y-103505000D03*
D12*
X151638000Y-108585000D03*
D13*
X136398000Y-108585000D03*
D12*
X136398000Y-103505000D03*
D13*
X151638000Y-103505000D03*
D12*
X141478000Y-113665000D03*
D13*
X156718000Y-113665000D03*
D12*
X122428000Y-113665000D03*
D13*
X137668000Y-113665000D03*
D12*
X137668000Y-118745000D03*
D13*
X122428000Y-118745000D03*
D14*
X130048000Y-85725000D03*
D15*
X130048000Y-88265000D03*
X130048000Y-86995000D03*
D14*
X130048000Y-94615000D03*
D15*
X130048000Y-97155000D03*
X130048000Y-95885000D03*
D14*
X130048000Y-103505000D03*
D15*
X130048000Y-106045000D03*
X130048000Y-104775000D03*
D14*
X116078000Y-117475000D03*
D15*
X116078000Y-114935000D03*
X116078000Y-116205000D03*
D16*
X138938000Y-123825000D03*
X141478000Y-123825000D03*
X144018000Y-123825000D03*
X146558000Y-123825000D03*
X149098000Y-123825000D03*
X151638000Y-123825000D03*
X154178000Y-123825000D03*
X156718000Y-123825000D03*
X161798000Y-123825000D03*
X164338000Y-123825000D03*
X166878000Y-123825000D03*
X169418000Y-123825000D03*
X171958000Y-123825000D03*
X174498000Y-123825000D03*
X129794000Y-75565000D03*
X132334000Y-75565000D03*
X134874000Y-75565000D03*
X137414000Y-75565000D03*
X139954000Y-75565000D03*
X142494000Y-75565000D03*
X145034000Y-75565000D03*
X147574000Y-75565000D03*
X150114000Y-75565000D03*
X152654000Y-75565000D03*
X156718000Y-75565000D03*
X159258000Y-75565000D03*
X161798000Y-75565000D03*
X164338000Y-75565000D03*
X166878000Y-75565000D03*
X169418000Y-75565000D03*
X171958000Y-75565000D03*
X174498000Y-75565000D03*
D17*
X124968000Y-123825000D03*
X177038000Y-118745000D03*
X126238000Y-75565000D03*
X177038000Y-90805000D03*
D18*
X138938000Y-88265000D03*
X157988000Y-95885000D03*
X140208000Y-98425000D03*
X132618001Y-120045001D03*
X154178000Y-100965000D03*
X144018000Y-117475000D03*
D19*
X137414000Y-75717400D02*
X137414000Y-75565000D01*
X137414000Y-75565000D02*
X137414000Y-77181000D01*
X137414000Y-78359000D02*
X137414000Y-77181000D01*
X136398000Y-79375000D02*
X137414000Y-78359000D01*
X137414000Y-75717400D02*
X138938000Y-77241400D01*
X138938000Y-77241400D02*
X138938000Y-78105000D01*
X138938000Y-78105000D02*
X138938000Y-79375000D01*
X137414000Y-75565000D02*
X137414000Y-75819000D01*
X137414000Y-75819000D02*
X136151990Y-77081010D01*
X136151990Y-77081010D02*
X135128000Y-78105000D01*
X135128000Y-78105000D02*
X135128000Y-79375000D01*
X135128000Y-79375000D02*
X136398000Y-79375000D01*
X151638000Y-123825000D02*
X151638000Y-121285000D01*
X151638000Y-121285000D02*
X154178000Y-123825000D01*
X154178000Y-123825000D02*
X154178000Y-121285000D01*
X135128000Y-86995000D02*
X130048000Y-86995000D01*
X136398000Y-88265000D02*
X135128000Y-86995000D01*
X136398000Y-88265000D02*
X138938000Y-88265000D01*
X138938000Y-88265000D02*
X138938000Y-88265000D01*
X155448000Y-103505000D02*
X155448000Y-108585000D01*
X155448000Y-108585000D02*
X152908000Y-111125000D01*
X138938000Y-111125000D02*
X136398000Y-108585000D01*
X152908000Y-111125000D02*
X138938000Y-111125000D01*
X155448000Y-103505000D02*
X155448000Y-98425000D01*
X155448000Y-98425000D02*
X157988000Y-95885000D01*
X133858000Y-95885000D02*
X136398000Y-98425000D01*
X130048000Y-95885000D02*
X133858000Y-95885000D01*
X136398000Y-98425000D02*
X140208000Y-98425000D01*
X119888000Y-116205000D02*
X122428000Y-118745000D01*
X116078000Y-116205000D02*
X119888000Y-116205000D01*
X122428000Y-118745000D02*
X131318000Y-118745000D01*
X131318000Y-118745000D02*
X132588000Y-120015000D01*
X131398000Y-104775000D02*
X130048000Y-104775000D01*
X131642990Y-105019990D02*
X131398000Y-104775000D01*
X150123010Y-105019990D02*
X131642990Y-105019990D01*
X151638000Y-103505000D02*
X150123010Y-105019990D01*
X151638000Y-103505000D02*
X154178000Y-100965000D01*
X137197999Y-92545001D02*
X136398000Y-93345000D01*
X137698001Y-92044999D02*
X137197999Y-92545001D01*
X154147999Y-92044999D02*
X137698001Y-92044999D01*
X155448000Y-93345000D02*
X154147999Y-92044999D01*
X161798000Y-86995000D02*
X161798000Y-75565000D01*
X155448000Y-93345000D02*
X161798000Y-86995000D01*
X137668000Y-113665000D02*
X141478000Y-113665000D01*
X141478000Y-113665000D02*
X141478000Y-114935000D01*
X141478000Y-114935000D02*
X144018000Y-117475000D01*
X117428000Y-117475000D02*
X116078000Y-117475000D01*
X121245999Y-121292999D02*
X117428000Y-117475000D01*
X132580001Y-121292999D02*
X121245999Y-121292999D01*
X135128000Y-118745000D02*
X132580001Y-121292999D01*
X137668000Y-118745000D02*
X135128000Y-118745000D01*
X117348000Y-106045000D02*
X122428000Y-106045000D01*
X117348000Y-111125000D02*
X117348000Y-106045000D01*
X113538000Y-114935000D02*
X117348000Y-111125000D01*
X116078000Y-117475000D02*
X113538000Y-117475000D01*
X113538000Y-117475000D02*
X113538000Y-114935000D01*
X116303000Y-114935000D02*
X117573000Y-113665000D01*
X116078000Y-114935000D02*
X116303000Y-114935000D01*
X117573000Y-113665000D02*
X122428000Y-113665000D01*
X122428000Y-113665000D02*
X122428000Y-108585000D01*
X123698000Y-94615000D02*
X122428000Y-95885000D01*
X130048000Y-94615000D02*
X123698000Y-94615000D01*
X149098000Y-95885000D02*
X151638000Y-98425000D01*
X136398000Y-95885000D02*
X149098000Y-95885000D01*
X130048000Y-94615000D02*
X135128000Y-94615000D01*
X135128000Y-94615000D02*
X136398000Y-95885000D01*
X123698000Y-97155000D02*
X122428000Y-98425000D01*
X130048000Y-97155000D02*
X123698000Y-97155000D01*
X131398000Y-97155000D02*
X130048000Y-97155000D01*
X133968001Y-99725001D02*
X131398000Y-97155000D01*
X152262001Y-99725001D02*
X133968001Y-99725001D01*
X152938001Y-99049001D02*
X152262001Y-99725001D01*
X152938001Y-94645001D02*
X152938001Y-99049001D01*
X151638000Y-93345000D02*
X152938001Y-94645001D01*
X129823000Y-103505000D02*
X127283000Y-100965000D01*
X130048000Y-103505000D02*
X129823000Y-103505000D01*
X127283000Y-100965000D02*
X122428000Y-100965000D01*
X130273000Y-103505000D02*
X136398000Y-103505000D01*
X130048000Y-103505000D02*
X130273000Y-103505000D01*
X130048000Y-106045000D02*
X127508000Y-106045000D01*
X124968000Y-103505000D02*
X122428000Y-103505000D01*
X127508000Y-106045000D02*
X124968000Y-103505000D01*
X130048000Y-106045000D02*
X151638000Y-106045000D01*
X151638000Y-106045000D02*
X151638000Y-108585000D01*
X123277999Y-89955001D02*
X122428000Y-90805000D01*
X125768010Y-87464990D02*
X123277999Y-89955001D01*
X127903427Y-87464990D02*
X125768010Y-87464990D01*
X129643417Y-85725000D02*
X127903427Y-87464990D01*
X130048000Y-85725000D02*
X129643417Y-85725000D01*
X149098000Y-85725000D02*
X151638000Y-88265000D01*
X130048000Y-85725000D02*
X149098000Y-85725000D01*
X127508000Y-88265000D02*
X122428000Y-93345000D01*
X130048000Y-88265000D02*
X127508000Y-88265000D01*
X152437999Y-83984999D02*
X151638000Y-83185000D01*
X152938001Y-84485001D02*
X152437999Y-83984999D01*
X152938001Y-88889001D02*
X152938001Y-84485001D01*
X152262001Y-89565001D02*
X152938001Y-88889001D01*
X132698001Y-89565001D02*
X152262001Y-89565001D01*
X131398000Y-88265000D02*
X132698001Y-89565001D01*
X130048000Y-88265000D02*
X131398000Y-88265000D01*
X137197999Y-82385001D02*
X136398000Y-83185000D01*
X137698001Y-81884999D02*
X137197999Y-82385001D01*
X154147999Y-81884999D02*
X137698001Y-81884999D01*
X155448000Y-83185000D02*
X154147999Y-81884999D01*
D20*
G36*
X160863000Y-86607710D02*
G01*
X155556925Y-91913785D01*
X155518492Y-91910000D01*
X155377508Y-91910000D01*
X155339075Y-91913785D01*
X154841629Y-91416340D01*
X154812343Y-91380655D01*
X154669971Y-91263813D01*
X154507539Y-91176992D01*
X154331291Y-91123528D01*
X154193931Y-91109999D01*
X154147999Y-91105475D01*
X154102067Y-91109999D01*
X137743936Y-91109999D01*
X137698001Y-91105475D01*
X137514709Y-91123527D01*
X137338460Y-91176992D01*
X137296498Y-91199422D01*
X137176029Y-91263813D01*
X137033657Y-91380655D01*
X137004367Y-91416345D01*
X136569338Y-91851373D01*
X136569332Y-91851378D01*
X136510710Y-91910000D01*
X136256665Y-91910000D01*
X135979426Y-91965147D01*
X135718273Y-92073320D01*
X135483241Y-92230363D01*
X135283363Y-92430241D01*
X135126320Y-92665273D01*
X135018147Y-92926426D01*
X134963000Y-93203665D01*
X134963000Y-93486335D01*
X135001523Y-93680000D01*
X131282985Y-93680000D01*
X131249185Y-93638815D01*
X131152494Y-93559463D01*
X131042180Y-93500498D01*
X130922482Y-93464188D01*
X130798000Y-93451928D01*
X129298000Y-93451928D01*
X129173518Y-93464188D01*
X129053820Y-93500498D01*
X128943506Y-93559463D01*
X128846815Y-93638815D01*
X128813015Y-93680000D01*
X123878199Y-93680000D01*
X123891513Y-93636111D01*
X123920185Y-93345000D01*
X123904952Y-93190337D01*
X127895289Y-89200000D01*
X129133784Y-89200000D01*
X129175421Y-89234171D01*
X129376940Y-89341885D01*
X129595600Y-89408215D01*
X129766021Y-89425000D01*
X130329979Y-89425000D01*
X130500400Y-89408215D01*
X130719060Y-89341885D01*
X130920579Y-89234171D01*
X130962216Y-89200000D01*
X131010711Y-89200000D01*
X132004375Y-90193665D01*
X132033657Y-90229345D01*
X132176029Y-90346187D01*
X132338461Y-90433008D01*
X132461244Y-90470254D01*
X132514708Y-90486472D01*
X132698000Y-90504525D01*
X132743932Y-90500001D01*
X152216069Y-90500001D01*
X152262001Y-90504525D01*
X152307933Y-90500001D01*
X152445293Y-90486472D01*
X152621541Y-90433008D01*
X152783973Y-90346187D01*
X152926345Y-90229345D01*
X152955631Y-90193660D01*
X153566666Y-89582626D01*
X153602345Y-89553345D01*
X153719187Y-89410973D01*
X153806008Y-89248541D01*
X153859472Y-89072293D01*
X153862043Y-89046186D01*
X153877525Y-88889002D01*
X153873001Y-88843070D01*
X153873001Y-84530936D01*
X153877525Y-84485001D01*
X153859473Y-84301709D01*
X153806008Y-84125460D01*
X153767280Y-84053006D01*
X153719187Y-83963029D01*
X153602345Y-83820657D01*
X153566655Y-83791367D01*
X153131627Y-83356338D01*
X153131622Y-83356332D01*
X153069215Y-83293925D01*
X153079943Y-83185000D01*
X153052236Y-82903691D01*
X153026849Y-82819999D01*
X153760710Y-82819999D01*
X154016785Y-83076075D01*
X154006057Y-83185000D01*
X154033764Y-83466309D01*
X154115818Y-83736808D01*
X154249068Y-83986101D01*
X154428392Y-84204608D01*
X154646899Y-84383932D01*
X154896192Y-84517182D01*
X155166691Y-84599236D01*
X155377508Y-84620000D01*
X155518492Y-84620000D01*
X155729309Y-84599236D01*
X155999808Y-84517182D01*
X156249101Y-84383932D01*
X156467608Y-84204608D01*
X156646932Y-83986101D01*
X156780182Y-83736808D01*
X156862236Y-83466309D01*
X156889943Y-83185000D01*
X156862236Y-82903691D01*
X156780182Y-82633192D01*
X156646932Y-82383899D01*
X156467608Y-82165392D01*
X156249101Y-81986068D01*
X155999808Y-81852818D01*
X155729309Y-81770764D01*
X155518492Y-81750000D01*
X155377508Y-81750000D01*
X155339075Y-81753785D01*
X154841629Y-81256340D01*
X154812343Y-81220655D01*
X154669971Y-81103813D01*
X154507539Y-81016992D01*
X154331291Y-80963528D01*
X154193931Y-80949999D01*
X154147999Y-80945475D01*
X154102067Y-80949999D01*
X137743936Y-80949999D01*
X137698001Y-80945475D01*
X137514709Y-80963527D01*
X137338460Y-81016992D01*
X137296498Y-81039422D01*
X137176029Y-81103813D01*
X137033657Y-81220655D01*
X137004367Y-81256345D01*
X136569338Y-81691373D01*
X136569332Y-81691378D01*
X136510710Y-81750000D01*
X136256665Y-81750000D01*
X135979426Y-81805147D01*
X135718273Y-81913320D01*
X135483241Y-82070363D01*
X135283363Y-82270241D01*
X135126320Y-82505273D01*
X135018147Y-82766426D01*
X134963000Y-83043665D01*
X134963000Y-83326335D01*
X135018147Y-83603574D01*
X135126320Y-83864727D01*
X135283363Y-84099759D01*
X135483241Y-84299637D01*
X135718273Y-84456680D01*
X135979426Y-84564853D01*
X136256665Y-84620000D01*
X136539335Y-84620000D01*
X136816574Y-84564853D01*
X137077727Y-84456680D01*
X137312759Y-84299637D01*
X137512637Y-84099759D01*
X137669680Y-83864727D01*
X137777853Y-83603574D01*
X137833000Y-83326335D01*
X137833000Y-83072290D01*
X137891622Y-83013668D01*
X137891627Y-83013662D01*
X138085290Y-82819999D01*
X150249151Y-82819999D01*
X150223764Y-82903691D01*
X150196057Y-83185000D01*
X150223764Y-83466309D01*
X150305818Y-83736808D01*
X150439068Y-83986101D01*
X150618392Y-84204608D01*
X150836899Y-84383932D01*
X151086192Y-84517182D01*
X151356691Y-84599236D01*
X151567508Y-84620000D01*
X151708492Y-84620000D01*
X151746925Y-84616215D01*
X151809332Y-84678622D01*
X151809338Y-84678627D01*
X152003002Y-84872290D01*
X152003001Y-86876152D01*
X151919309Y-86850764D01*
X151708492Y-86830000D01*
X151567508Y-86830000D01*
X151529075Y-86833785D01*
X149791630Y-85096341D01*
X149762344Y-85060656D01*
X149619972Y-84943814D01*
X149457540Y-84856993D01*
X149281292Y-84803529D01*
X149143932Y-84790000D01*
X149098000Y-84785476D01*
X149052068Y-84790000D01*
X131282985Y-84790000D01*
X131249185Y-84748815D01*
X131152494Y-84669463D01*
X131042180Y-84610498D01*
X130922482Y-84574188D01*
X130798000Y-84561928D01*
X129298000Y-84561928D01*
X129173518Y-84574188D01*
X129053820Y-84610498D01*
X128943506Y-84669463D01*
X128846815Y-84748815D01*
X128767463Y-84845506D01*
X128708498Y-84955820D01*
X128672188Y-85075518D01*
X128659928Y-85200000D01*
X128659928Y-85386199D01*
X127516138Y-86529990D01*
X125813941Y-86529990D01*
X125768009Y-86525466D01*
X125584717Y-86543519D01*
X125566847Y-86548940D01*
X125408470Y-86596983D01*
X125246038Y-86683804D01*
X125103666Y-86800646D01*
X125074386Y-86836324D01*
X123772713Y-88137998D01*
X123748156Y-88137998D01*
X123869476Y-87908110D01*
X123824825Y-87760901D01*
X123699641Y-87498080D01*
X123525588Y-87264731D01*
X123309355Y-87069822D01*
X123183745Y-86995000D01*
X123309355Y-86920178D01*
X123525588Y-86725269D01*
X123699641Y-86491920D01*
X123824825Y-86229099D01*
X123869476Y-86081890D01*
X123748155Y-85852000D01*
X122555000Y-85852000D01*
X122555000Y-88138000D01*
X122575000Y-88138000D01*
X122575000Y-88392000D01*
X122555000Y-88392000D01*
X122555000Y-88412000D01*
X122301000Y-88412000D01*
X122301000Y-88392000D01*
X121107845Y-88392000D01*
X120986524Y-88621890D01*
X121031175Y-88769099D01*
X121156359Y-89031920D01*
X121330412Y-89265269D01*
X121546645Y-89460178D01*
X121663523Y-89529799D01*
X121598986Y-89564294D01*
X121372866Y-89749866D01*
X121187294Y-89975986D01*
X121049401Y-90233966D01*
X120964487Y-90513889D01*
X120935815Y-90805000D01*
X120964487Y-91096111D01*
X121049401Y-91376034D01*
X121187294Y-91634014D01*
X121372866Y-91860134D01*
X121598986Y-92045706D01*
X121653791Y-92075000D01*
X121598986Y-92104294D01*
X121372866Y-92289866D01*
X121187294Y-92515986D01*
X121049401Y-92773966D01*
X120964487Y-93053889D01*
X120935815Y-93345000D01*
X120964487Y-93636111D01*
X121049401Y-93916034D01*
X121187294Y-94174014D01*
X121372866Y-94400134D01*
X121598986Y-94585706D01*
X121653791Y-94615000D01*
X121598986Y-94644294D01*
X121372866Y-94829866D01*
X121187294Y-95055986D01*
X121049401Y-95313966D01*
X120964487Y-95593889D01*
X120935815Y-95885000D01*
X120964487Y-96176111D01*
X121049401Y-96456034D01*
X121187294Y-96714014D01*
X121372866Y-96940134D01*
X121598986Y-97125706D01*
X121653791Y-97155000D01*
X121598986Y-97184294D01*
X121372866Y-97369866D01*
X121187294Y-97595986D01*
X121049401Y-97853966D01*
X120964487Y-98133889D01*
X120935815Y-98425000D01*
X120964487Y-98716111D01*
X121049401Y-98996034D01*
X121187294Y-99254014D01*
X121372866Y-99480134D01*
X121598986Y-99665706D01*
X121653791Y-99695000D01*
X121598986Y-99724294D01*
X121372866Y-99909866D01*
X121187294Y-100135986D01*
X121049401Y-100393966D01*
X120964487Y-100673889D01*
X120935815Y-100965000D01*
X120964487Y-101256111D01*
X121049401Y-101536034D01*
X121187294Y-101794014D01*
X121372866Y-102020134D01*
X121598986Y-102205706D01*
X121653791Y-102235000D01*
X121598986Y-102264294D01*
X121372866Y-102449866D01*
X121187294Y-102675986D01*
X121049401Y-102933966D01*
X120964487Y-103213889D01*
X120935815Y-103505000D01*
X120964487Y-103796111D01*
X121049401Y-104076034D01*
X121187294Y-104334014D01*
X121372866Y-104560134D01*
X121598986Y-104745706D01*
X121653791Y-104775000D01*
X121598986Y-104804294D01*
X121372866Y-104989866D01*
X121274275Y-105110000D01*
X117393932Y-105110000D01*
X117348000Y-105105476D01*
X117302068Y-105110000D01*
X117164708Y-105123529D01*
X116988460Y-105176993D01*
X116826028Y-105263814D01*
X116683656Y-105380656D01*
X116566814Y-105523028D01*
X116479993Y-105685460D01*
X116426529Y-105861708D01*
X116408476Y-106045000D01*
X116413001Y-106090942D01*
X116413000Y-110737711D01*
X112909336Y-114241375D01*
X112873657Y-114270656D01*
X112756815Y-114413028D01*
X112669994Y-114575460D01*
X112616529Y-114751709D01*
X112598476Y-114935000D01*
X112603001Y-114980942D01*
X112603000Y-117429068D01*
X112598476Y-117475000D01*
X112616529Y-117658292D01*
X112669993Y-117834540D01*
X112756814Y-117996972D01*
X112825492Y-118080656D01*
X112873656Y-118139344D01*
X113016028Y-118256186D01*
X113178460Y-118343007D01*
X113354708Y-118396471D01*
X113538000Y-118414524D01*
X113583932Y-118410000D01*
X114843015Y-118410000D01*
X114876815Y-118451185D01*
X114973506Y-118530537D01*
X115083820Y-118589502D01*
X115203518Y-118625812D01*
X115328000Y-118638072D01*
X116828000Y-118638072D01*
X116952482Y-118625812D01*
X117072180Y-118589502D01*
X117168649Y-118537938D01*
X119788711Y-121158000D01*
X112395000Y-121158000D01*
X112395000Y-86081890D01*
X120986524Y-86081890D01*
X121031175Y-86229099D01*
X121156359Y-86491920D01*
X121330412Y-86725269D01*
X121546645Y-86920178D01*
X121672255Y-86995000D01*
X121546645Y-87069822D01*
X121330412Y-87264731D01*
X121156359Y-87498080D01*
X121031175Y-87760901D01*
X120986524Y-87908110D01*
X121107845Y-88138000D01*
X122301000Y-88138000D01*
X122301000Y-85852000D01*
X121107845Y-85852000D01*
X120986524Y-86081890D01*
X112395000Y-86081890D01*
X112395000Y-85368110D01*
X120986524Y-85368110D01*
X121107845Y-85598000D01*
X122301000Y-85598000D01*
X122301000Y-84404186D01*
X122555000Y-84404186D01*
X122555000Y-85598000D01*
X123748155Y-85598000D01*
X123869476Y-85368110D01*
X123824825Y-85220901D01*
X123699641Y-84958080D01*
X123525588Y-84724731D01*
X123309355Y-84529822D01*
X123059252Y-84380843D01*
X122784891Y-84283519D01*
X122555000Y-84404186D01*
X122301000Y-84404186D01*
X122071109Y-84283519D01*
X121796748Y-84380843D01*
X121546645Y-84529822D01*
X121330412Y-84724731D01*
X121156359Y-84958080D01*
X121031175Y-85220901D01*
X120986524Y-85368110D01*
X112395000Y-85368110D01*
X112395000Y-83895000D01*
X122393123Y-83895000D01*
X122428000Y-83898435D01*
X122462877Y-83895000D01*
X122567184Y-83884727D01*
X122701020Y-83844128D01*
X122824363Y-83778200D01*
X122932475Y-83689475D01*
X123021200Y-83581363D01*
X123087128Y-83458020D01*
X123127727Y-83324184D01*
X123141435Y-83185000D01*
X123138000Y-83150123D01*
X123138000Y-78232000D01*
X160863001Y-78232000D01*
X160863000Y-86607710D01*
X160863000Y-86607710D01*
G37*
X160863000Y-86607710D02*
X155556925Y-91913785D01*
X155518492Y-91910000D01*
X155377508Y-91910000D01*
X155339075Y-91913785D01*
X154841629Y-91416340D01*
X154812343Y-91380655D01*
X154669971Y-91263813D01*
X154507539Y-91176992D01*
X154331291Y-91123528D01*
X154193931Y-91109999D01*
X154147999Y-91105475D01*
X154102067Y-91109999D01*
X137743936Y-91109999D01*
X137698001Y-91105475D01*
X137514709Y-91123527D01*
X137338460Y-91176992D01*
X137296498Y-91199422D01*
X137176029Y-91263813D01*
X137033657Y-91380655D01*
X137004367Y-91416345D01*
X136569338Y-91851373D01*
X136569332Y-91851378D01*
X136510710Y-91910000D01*
X136256665Y-91910000D01*
X135979426Y-91965147D01*
X135718273Y-92073320D01*
X135483241Y-92230363D01*
X135283363Y-92430241D01*
X135126320Y-92665273D01*
X135018147Y-92926426D01*
X134963000Y-93203665D01*
X134963000Y-93486335D01*
X135001523Y-93680000D01*
X131282985Y-93680000D01*
X131249185Y-93638815D01*
X131152494Y-93559463D01*
X131042180Y-93500498D01*
X130922482Y-93464188D01*
X130798000Y-93451928D01*
X129298000Y-93451928D01*
X129173518Y-93464188D01*
X129053820Y-93500498D01*
X128943506Y-93559463D01*
X128846815Y-93638815D01*
X128813015Y-93680000D01*
X123878199Y-93680000D01*
X123891513Y-93636111D01*
X123920185Y-93345000D01*
X123904952Y-93190337D01*
X127895289Y-89200000D01*
X129133784Y-89200000D01*
X129175421Y-89234171D01*
X129376940Y-89341885D01*
X129595600Y-89408215D01*
X129766021Y-89425000D01*
X130329979Y-89425000D01*
X130500400Y-89408215D01*
X130719060Y-89341885D01*
X130920579Y-89234171D01*
X130962216Y-89200000D01*
X131010711Y-89200000D01*
X132004375Y-90193665D01*
X132033657Y-90229345D01*
X132176029Y-90346187D01*
X132338461Y-90433008D01*
X132461244Y-90470254D01*
X132514708Y-90486472D01*
X132698000Y-90504525D01*
X132743932Y-90500001D01*
X152216069Y-90500001D01*
X152262001Y-90504525D01*
X152307933Y-90500001D01*
X152445293Y-90486472D01*
X152621541Y-90433008D01*
X152783973Y-90346187D01*
X152926345Y-90229345D01*
X152955631Y-90193660D01*
X153566666Y-89582626D01*
X153602345Y-89553345D01*
X153719187Y-89410973D01*
X153806008Y-89248541D01*
X153859472Y-89072293D01*
X153862043Y-89046186D01*
X153877525Y-88889002D01*
X153873001Y-88843070D01*
X153873001Y-84530936D01*
X153877525Y-84485001D01*
X153859473Y-84301709D01*
X153806008Y-84125460D01*
X153767280Y-84053006D01*
X153719187Y-83963029D01*
X153602345Y-83820657D01*
X153566655Y-83791367D01*
X153131627Y-83356338D01*
X153131622Y-83356332D01*
X153069215Y-83293925D01*
X153079943Y-83185000D01*
X153052236Y-82903691D01*
X153026849Y-82819999D01*
X153760710Y-82819999D01*
X154016785Y-83076075D01*
X154006057Y-83185000D01*
X154033764Y-83466309D01*
X154115818Y-83736808D01*
X154249068Y-83986101D01*
X154428392Y-84204608D01*
X154646899Y-84383932D01*
X154896192Y-84517182D01*
X155166691Y-84599236D01*
X155377508Y-84620000D01*
X155518492Y-84620000D01*
X155729309Y-84599236D01*
X155999808Y-84517182D01*
X156249101Y-84383932D01*
X156467608Y-84204608D01*
X156646932Y-83986101D01*
X156780182Y-83736808D01*
X156862236Y-83466309D01*
X156889943Y-83185000D01*
X156862236Y-82903691D01*
X156780182Y-82633192D01*
X156646932Y-82383899D01*
X156467608Y-82165392D01*
X156249101Y-81986068D01*
X155999808Y-81852818D01*
X155729309Y-81770764D01*
X155518492Y-81750000D01*
X155377508Y-81750000D01*
X155339075Y-81753785D01*
X154841629Y-81256340D01*
X154812343Y-81220655D01*
X154669971Y-81103813D01*
X154507539Y-81016992D01*
X154331291Y-80963528D01*
X154193931Y-80949999D01*
X154147999Y-80945475D01*
X154102067Y-80949999D01*
X137743936Y-80949999D01*
X137698001Y-80945475D01*
X137514709Y-80963527D01*
X137338460Y-81016992D01*
X137296498Y-81039422D01*
X137176029Y-81103813D01*
X137033657Y-81220655D01*
X137004367Y-81256345D01*
X136569338Y-81691373D01*
X136569332Y-81691378D01*
X136510710Y-81750000D01*
X136256665Y-81750000D01*
X135979426Y-81805147D01*
X135718273Y-81913320D01*
X135483241Y-82070363D01*
X135283363Y-82270241D01*
X135126320Y-82505273D01*
X135018147Y-82766426D01*
X134963000Y-83043665D01*
X134963000Y-83326335D01*
X135018147Y-83603574D01*
X135126320Y-83864727D01*
X135283363Y-84099759D01*
X135483241Y-84299637D01*
X135718273Y-84456680D01*
X135979426Y-84564853D01*
X136256665Y-84620000D01*
X136539335Y-84620000D01*
X136816574Y-84564853D01*
X137077727Y-84456680D01*
X137312759Y-84299637D01*
X137512637Y-84099759D01*
X137669680Y-83864727D01*
X137777853Y-83603574D01*
X137833000Y-83326335D01*
X137833000Y-83072290D01*
X137891622Y-83013668D01*
X137891627Y-83013662D01*
X138085290Y-82819999D01*
X150249151Y-82819999D01*
X150223764Y-82903691D01*
X150196057Y-83185000D01*
X150223764Y-83466309D01*
X150305818Y-83736808D01*
X150439068Y-83986101D01*
X150618392Y-84204608D01*
X150836899Y-84383932D01*
X151086192Y-84517182D01*
X151356691Y-84599236D01*
X151567508Y-84620000D01*
X151708492Y-84620000D01*
X151746925Y-84616215D01*
X151809332Y-84678622D01*
X151809338Y-84678627D01*
X152003002Y-84872290D01*
X152003001Y-86876152D01*
X151919309Y-86850764D01*
X151708492Y-86830000D01*
X151567508Y-86830000D01*
X151529075Y-86833785D01*
X149791630Y-85096341D01*
X149762344Y-85060656D01*
X149619972Y-84943814D01*
X149457540Y-84856993D01*
X149281292Y-84803529D01*
X149143932Y-84790000D01*
X149098000Y-84785476D01*
X149052068Y-84790000D01*
X131282985Y-84790000D01*
X131249185Y-84748815D01*
X131152494Y-84669463D01*
X131042180Y-84610498D01*
X130922482Y-84574188D01*
X130798000Y-84561928D01*
X129298000Y-84561928D01*
X129173518Y-84574188D01*
X129053820Y-84610498D01*
X128943506Y-84669463D01*
X128846815Y-84748815D01*
X128767463Y-84845506D01*
X128708498Y-84955820D01*
X128672188Y-85075518D01*
X128659928Y-85200000D01*
X128659928Y-85386199D01*
X127516138Y-86529990D01*
X125813941Y-86529990D01*
X125768009Y-86525466D01*
X125584717Y-86543519D01*
X125566847Y-86548940D01*
X125408470Y-86596983D01*
X125246038Y-86683804D01*
X125103666Y-86800646D01*
X125074386Y-86836324D01*
X123772713Y-88137998D01*
X123748156Y-88137998D01*
X123869476Y-87908110D01*
X123824825Y-87760901D01*
X123699641Y-87498080D01*
X123525588Y-87264731D01*
X123309355Y-87069822D01*
X123183745Y-86995000D01*
X123309355Y-86920178D01*
X123525588Y-86725269D01*
X123699641Y-86491920D01*
X123824825Y-86229099D01*
X123869476Y-86081890D01*
X123748155Y-85852000D01*
X122555000Y-85852000D01*
X122555000Y-88138000D01*
X122575000Y-88138000D01*
X122575000Y-88392000D01*
X122555000Y-88392000D01*
X122555000Y-88412000D01*
X122301000Y-88412000D01*
X122301000Y-88392000D01*
X121107845Y-88392000D01*
X120986524Y-88621890D01*
X121031175Y-88769099D01*
X121156359Y-89031920D01*
X121330412Y-89265269D01*
X121546645Y-89460178D01*
X121663523Y-89529799D01*
X121598986Y-89564294D01*
X121372866Y-89749866D01*
X121187294Y-89975986D01*
X121049401Y-90233966D01*
X120964487Y-90513889D01*
X120935815Y-90805000D01*
X120964487Y-91096111D01*
X121049401Y-91376034D01*
X121187294Y-91634014D01*
X121372866Y-91860134D01*
X121598986Y-92045706D01*
X121653791Y-92075000D01*
X121598986Y-92104294D01*
X121372866Y-92289866D01*
X121187294Y-92515986D01*
X121049401Y-92773966D01*
X120964487Y-93053889D01*
X120935815Y-93345000D01*
X120964487Y-93636111D01*
X121049401Y-93916034D01*
X121187294Y-94174014D01*
X121372866Y-94400134D01*
X121598986Y-94585706D01*
X121653791Y-94615000D01*
X121598986Y-94644294D01*
X121372866Y-94829866D01*
X121187294Y-95055986D01*
X121049401Y-95313966D01*
X120964487Y-95593889D01*
X120935815Y-95885000D01*
X120964487Y-96176111D01*
X121049401Y-96456034D01*
X121187294Y-96714014D01*
X121372866Y-96940134D01*
X121598986Y-97125706D01*
X121653791Y-97155000D01*
X121598986Y-97184294D01*
X121372866Y-97369866D01*
X121187294Y-97595986D01*
X121049401Y-97853966D01*
X120964487Y-98133889D01*
X120935815Y-98425000D01*
X120964487Y-98716111D01*
X121049401Y-98996034D01*
X121187294Y-99254014D01*
X121372866Y-99480134D01*
X121598986Y-99665706D01*
X121653791Y-99695000D01*
X121598986Y-99724294D01*
X121372866Y-99909866D01*
X121187294Y-100135986D01*
X121049401Y-100393966D01*
X120964487Y-100673889D01*
X120935815Y-100965000D01*
X120964487Y-101256111D01*
X121049401Y-101536034D01*
X121187294Y-101794014D01*
X121372866Y-102020134D01*
X121598986Y-102205706D01*
X121653791Y-102235000D01*
X121598986Y-102264294D01*
X121372866Y-102449866D01*
X121187294Y-102675986D01*
X121049401Y-102933966D01*
X120964487Y-103213889D01*
X120935815Y-103505000D01*
X120964487Y-103796111D01*
X121049401Y-104076034D01*
X121187294Y-104334014D01*
X121372866Y-104560134D01*
X121598986Y-104745706D01*
X121653791Y-104775000D01*
X121598986Y-104804294D01*
X121372866Y-104989866D01*
X121274275Y-105110000D01*
X117393932Y-105110000D01*
X117348000Y-105105476D01*
X117302068Y-105110000D01*
X117164708Y-105123529D01*
X116988460Y-105176993D01*
X116826028Y-105263814D01*
X116683656Y-105380656D01*
X116566814Y-105523028D01*
X116479993Y-105685460D01*
X116426529Y-105861708D01*
X116408476Y-106045000D01*
X116413001Y-106090942D01*
X116413000Y-110737711D01*
X112909336Y-114241375D01*
X112873657Y-114270656D01*
X112756815Y-114413028D01*
X112669994Y-114575460D01*
X112616529Y-114751709D01*
X112598476Y-114935000D01*
X112603001Y-114980942D01*
X112603000Y-117429068D01*
X112598476Y-117475000D01*
X112616529Y-117658292D01*
X112669993Y-117834540D01*
X112756814Y-117996972D01*
X112825492Y-118080656D01*
X112873656Y-118139344D01*
X113016028Y-118256186D01*
X113178460Y-118343007D01*
X113354708Y-118396471D01*
X113538000Y-118414524D01*
X113583932Y-118410000D01*
X114843015Y-118410000D01*
X114876815Y-118451185D01*
X114973506Y-118530537D01*
X115083820Y-118589502D01*
X115203518Y-118625812D01*
X115328000Y-118638072D01*
X116828000Y-118638072D01*
X116952482Y-118625812D01*
X117072180Y-118589502D01*
X117168649Y-118537938D01*
X119788711Y-121158000D01*
X112395000Y-121158000D01*
X112395000Y-86081890D01*
X120986524Y-86081890D01*
X121031175Y-86229099D01*
X121156359Y-86491920D01*
X121330412Y-86725269D01*
X121546645Y-86920178D01*
X121672255Y-86995000D01*
X121546645Y-87069822D01*
X121330412Y-87264731D01*
X121156359Y-87498080D01*
X121031175Y-87760901D01*
X120986524Y-87908110D01*
X121107845Y-88138000D01*
X122301000Y-88138000D01*
X122301000Y-85852000D01*
X121107845Y-85852000D01*
X120986524Y-86081890D01*
X112395000Y-86081890D01*
X112395000Y-85368110D01*
X120986524Y-85368110D01*
X121107845Y-85598000D01*
X122301000Y-85598000D01*
X122301000Y-84404186D01*
X122555000Y-84404186D01*
X122555000Y-85598000D01*
X123748155Y-85598000D01*
X123869476Y-85368110D01*
X123824825Y-85220901D01*
X123699641Y-84958080D01*
X123525588Y-84724731D01*
X123309355Y-84529822D01*
X123059252Y-84380843D01*
X122784891Y-84283519D01*
X122555000Y-84404186D01*
X122301000Y-84404186D01*
X122071109Y-84283519D01*
X121796748Y-84380843D01*
X121546645Y-84529822D01*
X121330412Y-84724731D01*
X121156359Y-84958080D01*
X121031175Y-85220901D01*
X120986524Y-85368110D01*
X112395000Y-85368110D01*
X112395000Y-83895000D01*
X122393123Y-83895000D01*
X122428000Y-83898435D01*
X122462877Y-83895000D01*
X122567184Y-83884727D01*
X122701020Y-83844128D01*
X122824363Y-83778200D01*
X122932475Y-83689475D01*
X123021200Y-83581363D01*
X123087128Y-83458020D01*
X123127727Y-83324184D01*
X123141435Y-83185000D01*
X123138000Y-83150123D01*
X123138000Y-78232000D01*
X160863001Y-78232000D01*
X160863000Y-86607710D01*
G36*
X174371000Y-121158000D02*
G01*
X134037289Y-121158000D01*
X135515289Y-119680000D01*
X136578956Y-119680000D01*
X136648392Y-119764608D01*
X136866899Y-119943932D01*
X137116192Y-120077182D01*
X137386691Y-120159236D01*
X137597508Y-120180000D01*
X137738492Y-120180000D01*
X137949309Y-120159236D01*
X138219808Y-120077182D01*
X138469101Y-119943932D01*
X138687608Y-119764608D01*
X138866932Y-119546101D01*
X139000182Y-119296808D01*
X139082236Y-119026309D01*
X139109943Y-118745000D01*
X139082236Y-118463691D01*
X139000182Y-118193192D01*
X138866932Y-117943899D01*
X138687608Y-117725392D01*
X138469101Y-117546068D01*
X138219808Y-117412818D01*
X137949309Y-117330764D01*
X137738492Y-117310000D01*
X137597508Y-117310000D01*
X137386691Y-117330764D01*
X137116192Y-117412818D01*
X136866899Y-117546068D01*
X136648392Y-117725392D01*
X136578956Y-117810000D01*
X135173935Y-117810000D01*
X135128000Y-117805476D01*
X134944708Y-117823528D01*
X134840828Y-117855041D01*
X134768460Y-117876993D01*
X134606028Y-117963814D01*
X134463656Y-118080656D01*
X134434370Y-118116341D01*
X133223001Y-119327711D01*
X133214029Y-119318739D01*
X132011630Y-118116341D01*
X131982344Y-118080656D01*
X131839972Y-117963814D01*
X131677540Y-117876993D01*
X131501292Y-117823529D01*
X131363932Y-117810000D01*
X131318000Y-117805476D01*
X131272068Y-117810000D01*
X123522396Y-117810000D01*
X123342759Y-117630363D01*
X123107727Y-117473320D01*
X122846574Y-117365147D01*
X122569335Y-117310000D01*
X122315290Y-117310000D01*
X120581630Y-115576341D01*
X120552344Y-115540656D01*
X120409972Y-115423814D01*
X120247540Y-115336993D01*
X120071292Y-115283529D01*
X119933932Y-115270000D01*
X119888000Y-115265476D01*
X119842068Y-115270000D01*
X117413575Y-115270000D01*
X117446215Y-115162400D01*
X117451495Y-115108795D01*
X117960290Y-114600000D01*
X121338956Y-114600000D01*
X121408392Y-114684608D01*
X121626899Y-114863932D01*
X121876192Y-114997182D01*
X122146691Y-115079236D01*
X122357508Y-115100000D01*
X122498492Y-115100000D01*
X122709309Y-115079236D01*
X122979808Y-114997182D01*
X123229101Y-114863932D01*
X123447608Y-114684608D01*
X123626932Y-114466101D01*
X123760182Y-114216808D01*
X123842236Y-113946309D01*
X123869943Y-113665000D01*
X123856023Y-113523665D01*
X136233000Y-113523665D01*
X136233000Y-113806335D01*
X136288147Y-114083574D01*
X136396320Y-114344727D01*
X136553363Y-114579759D01*
X136753241Y-114779637D01*
X136988273Y-114936680D01*
X137249426Y-115044853D01*
X137526665Y-115100000D01*
X137809335Y-115100000D01*
X138086574Y-115044853D01*
X138347727Y-114936680D01*
X138582759Y-114779637D01*
X138762396Y-114600000D01*
X140388956Y-114600000D01*
X140458392Y-114684608D01*
X140543001Y-114754045D01*
X140543001Y-114889059D01*
X140538476Y-114935000D01*
X140556529Y-115118291D01*
X140602550Y-115270000D01*
X140609994Y-115294540D01*
X140696815Y-115456972D01*
X140813657Y-115599344D01*
X140849336Y-115628625D01*
X143291738Y-118071028D01*
X143421972Y-118201262D01*
X143460352Y-118226907D01*
X143496028Y-118256185D01*
X143536730Y-118277940D01*
X143575111Y-118303586D01*
X143617757Y-118321251D01*
X143658459Y-118343006D01*
X143702627Y-118356404D01*
X143745271Y-118374068D01*
X143790538Y-118383072D01*
X143834707Y-118396471D01*
X143880639Y-118400995D01*
X143925911Y-118410000D01*
X143972074Y-118410000D01*
X144017999Y-118414523D01*
X144063924Y-118410000D01*
X144110089Y-118410000D01*
X144155363Y-118400994D01*
X144201291Y-118396471D01*
X144245457Y-118383073D01*
X144290729Y-118374068D01*
X144333377Y-118356403D01*
X144377540Y-118343006D01*
X144418238Y-118321252D01*
X144460889Y-118303586D01*
X144499274Y-118277938D01*
X144539971Y-118256185D01*
X144575641Y-118226911D01*
X144614028Y-118201262D01*
X144646675Y-118168615D01*
X144682343Y-118139343D01*
X144711615Y-118103675D01*
X144744262Y-118071028D01*
X144769911Y-118032641D01*
X144799185Y-117996971D01*
X144820938Y-117956274D01*
X144846586Y-117917889D01*
X144864252Y-117875238D01*
X144886006Y-117834540D01*
X144899403Y-117790377D01*
X144917068Y-117747729D01*
X144926073Y-117702457D01*
X144939471Y-117658291D01*
X144943994Y-117612363D01*
X144953000Y-117567089D01*
X144953000Y-117520924D01*
X144957523Y-117474999D01*
X144953000Y-117429074D01*
X144953000Y-117382911D01*
X144943995Y-117337639D01*
X144939471Y-117291707D01*
X144926072Y-117247538D01*
X144917068Y-117202271D01*
X144899404Y-117159627D01*
X144886006Y-117115459D01*
X144864251Y-117074757D01*
X144846586Y-117032111D01*
X144820940Y-116993730D01*
X144799185Y-116953028D01*
X144769907Y-116917352D01*
X144744262Y-116878972D01*
X142522992Y-114657702D01*
X155904903Y-114657702D01*
X155976486Y-114901671D01*
X156231996Y-115022571D01*
X156506184Y-115091300D01*
X156788512Y-115105217D01*
X157068130Y-115063787D01*
X157334292Y-114968603D01*
X157459514Y-114901671D01*
X157531097Y-114657702D01*
X156718000Y-113844605D01*
X155904903Y-114657702D01*
X142522992Y-114657702D01*
X142521178Y-114655888D01*
X142676932Y-114466101D01*
X142810182Y-114216808D01*
X142892236Y-113946309D01*
X142912998Y-113735512D01*
X155277783Y-113735512D01*
X155319213Y-114015130D01*
X155414397Y-114281292D01*
X155481329Y-114406514D01*
X155725298Y-114478097D01*
X156538395Y-113665000D01*
X156897605Y-113665000D01*
X157710702Y-114478097D01*
X157954671Y-114406514D01*
X158075571Y-114151004D01*
X158144300Y-113876816D01*
X158158217Y-113594488D01*
X158116787Y-113314870D01*
X158021603Y-113048708D01*
X157954671Y-112923486D01*
X157710702Y-112851903D01*
X156897605Y-113665000D01*
X156538395Y-113665000D01*
X155725298Y-112851903D01*
X155481329Y-112923486D01*
X155360429Y-113178996D01*
X155291700Y-113453184D01*
X155277783Y-113735512D01*
X142912998Y-113735512D01*
X142919943Y-113665000D01*
X142892236Y-113383691D01*
X142810182Y-113113192D01*
X142676932Y-112863899D01*
X142519690Y-112672298D01*
X155904903Y-112672298D01*
X156718000Y-113485395D01*
X157531097Y-112672298D01*
X157459514Y-112428329D01*
X157204004Y-112307429D01*
X156929816Y-112238700D01*
X156647488Y-112224783D01*
X156367870Y-112266213D01*
X156101708Y-112361397D01*
X155976486Y-112428329D01*
X155904903Y-112672298D01*
X142519690Y-112672298D01*
X142497608Y-112645392D01*
X142279101Y-112466068D01*
X142029808Y-112332818D01*
X141759309Y-112250764D01*
X141548492Y-112230000D01*
X141407508Y-112230000D01*
X141196691Y-112250764D01*
X140926192Y-112332818D01*
X140676899Y-112466068D01*
X140458392Y-112645392D01*
X140388956Y-112730000D01*
X138762396Y-112730000D01*
X138582759Y-112550363D01*
X138347727Y-112393320D01*
X138086574Y-112285147D01*
X137809335Y-112230000D01*
X137526665Y-112230000D01*
X137249426Y-112285147D01*
X136988273Y-112393320D01*
X136753241Y-112550363D01*
X136553363Y-112750241D01*
X136396320Y-112985273D01*
X136288147Y-113246426D01*
X136233000Y-113523665D01*
X123856023Y-113523665D01*
X123842236Y-113383691D01*
X123760182Y-113113192D01*
X123626932Y-112863899D01*
X123447608Y-112645392D01*
X123363000Y-112575956D01*
X123363000Y-110064701D01*
X123402482Y-110060812D01*
X123522180Y-110024502D01*
X123632494Y-109965537D01*
X123729185Y-109886185D01*
X123808537Y-109789494D01*
X123867502Y-109679180D01*
X123903812Y-109559482D01*
X123916072Y-109435000D01*
X123916072Y-107735000D01*
X123903812Y-107610518D01*
X123867502Y-107490820D01*
X123808537Y-107380506D01*
X123729185Y-107283815D01*
X123632494Y-107204463D01*
X123522180Y-107145498D01*
X123453313Y-107124607D01*
X123483134Y-107100134D01*
X123668706Y-106874014D01*
X123806599Y-106616034D01*
X123891513Y-106336111D01*
X123920185Y-106045000D01*
X123891513Y-105753889D01*
X123806599Y-105473966D01*
X123668706Y-105215986D01*
X123483134Y-104989866D01*
X123257014Y-104804294D01*
X123202209Y-104775000D01*
X123257014Y-104745706D01*
X123483134Y-104560134D01*
X123581725Y-104440000D01*
X124580711Y-104440000D01*
X126814374Y-106673664D01*
X126843656Y-106709344D01*
X126986028Y-106826186D01*
X127148460Y-106913007D01*
X127271243Y-106950253D01*
X127324707Y-106966471D01*
X127343110Y-106968283D01*
X127462068Y-106980000D01*
X127462074Y-106980000D01*
X127507999Y-106984523D01*
X127553924Y-106980000D01*
X129133784Y-106980000D01*
X129175421Y-107014171D01*
X129376940Y-107121885D01*
X129595600Y-107188215D01*
X129766021Y-107205000D01*
X130329979Y-107205000D01*
X130500400Y-107188215D01*
X130719060Y-107121885D01*
X130920579Y-107014171D01*
X130962216Y-106980000D01*
X150703000Y-106980000D01*
X150703001Y-107495956D01*
X150618392Y-107565392D01*
X150439068Y-107783899D01*
X150305818Y-108033192D01*
X150223764Y-108303691D01*
X150196057Y-108585000D01*
X150223764Y-108866309D01*
X150305818Y-109136808D01*
X150439068Y-109386101D01*
X150618392Y-109604608D01*
X150836899Y-109783932D01*
X151086192Y-109917182D01*
X151356691Y-109999236D01*
X151567508Y-110020000D01*
X151708492Y-110020000D01*
X151919309Y-109999236D01*
X152189808Y-109917182D01*
X152439101Y-109783932D01*
X152657608Y-109604608D01*
X152836932Y-109386101D01*
X152970182Y-109136808D01*
X153052236Y-108866309D01*
X153079943Y-108585000D01*
X153052236Y-108303691D01*
X152970182Y-108033192D01*
X152836932Y-107783899D01*
X152657608Y-107565392D01*
X152573000Y-107495956D01*
X152573000Y-106090932D01*
X152577524Y-106045000D01*
X152559471Y-105861708D01*
X152506007Y-105685460D01*
X152419186Y-105523028D01*
X152302344Y-105380656D01*
X152159972Y-105263814D01*
X151997540Y-105176993D01*
X151821292Y-105123529D01*
X151683932Y-105110000D01*
X151638000Y-105105476D01*
X151592068Y-105110000D01*
X151355289Y-105110000D01*
X151525289Y-104940000D01*
X151779335Y-104940000D01*
X152056574Y-104884853D01*
X152317727Y-104776680D01*
X152552759Y-104619637D01*
X152752637Y-104419759D01*
X152909680Y-104184727D01*
X153017853Y-103923574D01*
X153073000Y-103646335D01*
X153073000Y-103392289D01*
X154513000Y-101952290D01*
X154513000Y-102415956D01*
X154428392Y-102485392D01*
X154249068Y-102703899D01*
X154115818Y-102953192D01*
X154033764Y-103223691D01*
X154006057Y-103505000D01*
X154033764Y-103786309D01*
X154115818Y-104056808D01*
X154249068Y-104306101D01*
X154428392Y-104524608D01*
X154513000Y-104594044D01*
X154513001Y-108197709D01*
X152520711Y-110190000D01*
X139325290Y-110190000D01*
X137833000Y-108697711D01*
X137833000Y-108443665D01*
X137777853Y-108166426D01*
X137669680Y-107905273D01*
X137512637Y-107670241D01*
X137312759Y-107470363D01*
X137077727Y-107313320D01*
X136816574Y-107205147D01*
X136539335Y-107150000D01*
X136256665Y-107150000D01*
X135979426Y-107205147D01*
X135718273Y-107313320D01*
X135483241Y-107470363D01*
X135283363Y-107670241D01*
X135126320Y-107905273D01*
X135018147Y-108166426D01*
X134963000Y-108443665D01*
X134963000Y-108726335D01*
X135018147Y-109003574D01*
X135126320Y-109264727D01*
X135283363Y-109499759D01*
X135483241Y-109699637D01*
X135718273Y-109856680D01*
X135979426Y-109964853D01*
X136256665Y-110020000D01*
X136510711Y-110020000D01*
X138244374Y-111753664D01*
X138273656Y-111789344D01*
X138416028Y-111906186D01*
X138578460Y-111993007D01*
X138701243Y-112030253D01*
X138754707Y-112046471D01*
X138773110Y-112048283D01*
X138892068Y-112060000D01*
X138892074Y-112060000D01*
X138937999Y-112064523D01*
X138983924Y-112060000D01*
X152862068Y-112060000D01*
X152908000Y-112064524D01*
X152953932Y-112060000D01*
X153091292Y-112046471D01*
X153267540Y-111993007D01*
X153429972Y-111906186D01*
X153572344Y-111789344D01*
X153601630Y-111753659D01*
X156076664Y-109278626D01*
X156112344Y-109249344D01*
X156229186Y-109106972D01*
X156316007Y-108944540D01*
X156369471Y-108768292D01*
X156383000Y-108630932D01*
X156383000Y-108630926D01*
X156387523Y-108585001D01*
X156383000Y-108539076D01*
X156383000Y-104594044D01*
X156467608Y-104524608D01*
X156489689Y-104497702D01*
X169874903Y-104497702D01*
X169946486Y-104741671D01*
X170201996Y-104862571D01*
X170476184Y-104931300D01*
X170758512Y-104945217D01*
X171038130Y-104903787D01*
X171304292Y-104808603D01*
X171429514Y-104741671D01*
X171501097Y-104497702D01*
X170688000Y-103684605D01*
X169874903Y-104497702D01*
X156489689Y-104497702D01*
X156646932Y-104306101D01*
X156780182Y-104056808D01*
X156862236Y-103786309D01*
X156882998Y-103575512D01*
X169247783Y-103575512D01*
X169289213Y-103855130D01*
X169384397Y-104121292D01*
X169451329Y-104246514D01*
X169695298Y-104318097D01*
X170508395Y-103505000D01*
X170867605Y-103505000D01*
X171680702Y-104318097D01*
X171924671Y-104246514D01*
X172045571Y-103991004D01*
X172114300Y-103716816D01*
X172128217Y-103434488D01*
X172086787Y-103154870D01*
X171991603Y-102888708D01*
X171924671Y-102763486D01*
X171680702Y-102691903D01*
X170867605Y-103505000D01*
X170508395Y-103505000D01*
X169695298Y-102691903D01*
X169451329Y-102763486D01*
X169330429Y-103018996D01*
X169261700Y-103293184D01*
X169247783Y-103575512D01*
X156882998Y-103575512D01*
X156889943Y-103505000D01*
X156862236Y-103223691D01*
X156780182Y-102953192D01*
X156646932Y-102703899D01*
X156489690Y-102512298D01*
X169874903Y-102512298D01*
X170688000Y-103325395D01*
X171501097Y-102512298D01*
X171429514Y-102268329D01*
X171174004Y-102147429D01*
X170899816Y-102078700D01*
X170617488Y-102064783D01*
X170337870Y-102106213D01*
X170071708Y-102201397D01*
X169946486Y-102268329D01*
X169874903Y-102512298D01*
X156489690Y-102512298D01*
X156467608Y-102485392D01*
X156383000Y-102415956D01*
X156383000Y-98812289D01*
X158681623Y-96513667D01*
X158714262Y-96481028D01*
X158739907Y-96442648D01*
X158769185Y-96406972D01*
X158790940Y-96366270D01*
X158816586Y-96327889D01*
X158834251Y-96285243D01*
X158856006Y-96244541D01*
X158869404Y-96200373D01*
X158887068Y-96157729D01*
X158896072Y-96112462D01*
X158909471Y-96068293D01*
X158913995Y-96022361D01*
X158923000Y-95977089D01*
X158923000Y-95930926D01*
X158927523Y-95885001D01*
X158923000Y-95839076D01*
X158923000Y-95792911D01*
X158913994Y-95747637D01*
X158909471Y-95701709D01*
X158896073Y-95657543D01*
X158887068Y-95612271D01*
X158869403Y-95569623D01*
X158856006Y-95525460D01*
X158834252Y-95484762D01*
X158816586Y-95442111D01*
X158790938Y-95403726D01*
X158769185Y-95363029D01*
X158739911Y-95327359D01*
X158714262Y-95288972D01*
X158681615Y-95256325D01*
X158652343Y-95220657D01*
X158616675Y-95191385D01*
X158584028Y-95158738D01*
X158545641Y-95133089D01*
X158509971Y-95103815D01*
X158469274Y-95082062D01*
X158430889Y-95056414D01*
X158388238Y-95038748D01*
X158347540Y-95016994D01*
X158303377Y-95003597D01*
X158260729Y-94985932D01*
X158215457Y-94976927D01*
X158171291Y-94963529D01*
X158125363Y-94959006D01*
X158080089Y-94950000D01*
X158033924Y-94950000D01*
X157987999Y-94945477D01*
X157942074Y-94950000D01*
X157895911Y-94950000D01*
X157850639Y-94959005D01*
X157804707Y-94963529D01*
X157760538Y-94976928D01*
X157715271Y-94985932D01*
X157672627Y-95003596D01*
X157628459Y-95016994D01*
X157587757Y-95038749D01*
X157545111Y-95056414D01*
X157506730Y-95082060D01*
X157466028Y-95103815D01*
X157430352Y-95133093D01*
X157391972Y-95158738D01*
X157359333Y-95191377D01*
X154819336Y-97731375D01*
X154783657Y-97760656D01*
X154666815Y-97903028D01*
X154579995Y-98065459D01*
X154579994Y-98065460D01*
X154526529Y-98241709D01*
X154508476Y-98425000D01*
X154513001Y-98470942D01*
X154513001Y-100089550D01*
X154493377Y-100083597D01*
X154450729Y-100065932D01*
X154405457Y-100056927D01*
X154361291Y-100043529D01*
X154315363Y-100039006D01*
X154270089Y-100030000D01*
X154223924Y-100030000D01*
X154177999Y-100025477D01*
X154132074Y-100030000D01*
X154085911Y-100030000D01*
X154040639Y-100039005D01*
X153994707Y-100043529D01*
X153950538Y-100056928D01*
X153905271Y-100065932D01*
X153862627Y-100083596D01*
X153818459Y-100096994D01*
X153777757Y-100118749D01*
X153735111Y-100136414D01*
X153696730Y-100162060D01*
X153656028Y-100183815D01*
X153620352Y-100213093D01*
X153581972Y-100238738D01*
X153549333Y-100271377D01*
X151750711Y-102070000D01*
X151496665Y-102070000D01*
X151219426Y-102125147D01*
X150958273Y-102233320D01*
X150723241Y-102390363D01*
X150523363Y-102590241D01*
X150366320Y-102825273D01*
X150258147Y-103086426D01*
X150203000Y-103363665D01*
X150203000Y-103617711D01*
X149735721Y-104084990D01*
X137715118Y-104084990D01*
X137730182Y-104056808D01*
X137812236Y-103786309D01*
X137839943Y-103505000D01*
X137812236Y-103223691D01*
X137730182Y-102953192D01*
X137596932Y-102703899D01*
X137417608Y-102485392D01*
X137199101Y-102306068D01*
X136949808Y-102172818D01*
X136679309Y-102090764D01*
X136468492Y-102070000D01*
X136327508Y-102070000D01*
X136116691Y-102090764D01*
X135846192Y-102172818D01*
X135596899Y-102306068D01*
X135378392Y-102485392D01*
X135308956Y-102570000D01*
X131282985Y-102570000D01*
X131249185Y-102528815D01*
X131152494Y-102449463D01*
X131042180Y-102390498D01*
X130922482Y-102354188D01*
X130798000Y-102341928D01*
X129982218Y-102341928D01*
X127976630Y-100336341D01*
X127947344Y-100300656D01*
X127804972Y-100183814D01*
X127642540Y-100096993D01*
X127466292Y-100043529D01*
X127328932Y-100030000D01*
X127283000Y-100025476D01*
X127237068Y-100030000D01*
X123581725Y-100030000D01*
X123483134Y-99909866D01*
X123257014Y-99724294D01*
X123202209Y-99695000D01*
X123257014Y-99665706D01*
X123483134Y-99480134D01*
X123668706Y-99254014D01*
X123806599Y-98996034D01*
X123891513Y-98716111D01*
X123920185Y-98425000D01*
X123904952Y-98270338D01*
X124085290Y-98090000D01*
X129133784Y-98090000D01*
X129175421Y-98124171D01*
X129376940Y-98231885D01*
X129595600Y-98298215D01*
X129766021Y-98315000D01*
X130329979Y-98315000D01*
X130500400Y-98298215D01*
X130719060Y-98231885D01*
X130920579Y-98124171D01*
X130962216Y-98090000D01*
X131010711Y-98090000D01*
X133274375Y-100353665D01*
X133303657Y-100389345D01*
X133446029Y-100506187D01*
X133608461Y-100593008D01*
X133731244Y-100630254D01*
X133784708Y-100646472D01*
X133968000Y-100664525D01*
X134013932Y-100660001D01*
X152216069Y-100660001D01*
X152262001Y-100664525D01*
X152307933Y-100660001D01*
X152445293Y-100646472D01*
X152621541Y-100593008D01*
X152783973Y-100506187D01*
X152926345Y-100389345D01*
X152955631Y-100353660D01*
X153566665Y-99742627D01*
X153602345Y-99713345D01*
X153719187Y-99570973D01*
X153806008Y-99408541D01*
X153859472Y-99232293D01*
X153862043Y-99206186D01*
X153877525Y-99049002D01*
X153873001Y-99003070D01*
X153873001Y-94690932D01*
X153877525Y-94645000D01*
X153859472Y-94461708D01*
X153843254Y-94408244D01*
X153806008Y-94285461D01*
X153719187Y-94123029D01*
X153602345Y-93980657D01*
X153566666Y-93951376D01*
X153069215Y-93453925D01*
X153079943Y-93345000D01*
X153052236Y-93063691D01*
X153026849Y-92979999D01*
X153760710Y-92979999D01*
X154016785Y-93236075D01*
X154006057Y-93345000D01*
X154033764Y-93626309D01*
X154115818Y-93896808D01*
X154249068Y-94146101D01*
X154428392Y-94364608D01*
X154646899Y-94543932D01*
X154896192Y-94677182D01*
X155166691Y-94759236D01*
X155377508Y-94780000D01*
X155518492Y-94780000D01*
X155729309Y-94759236D01*
X155999808Y-94677182D01*
X156249101Y-94543932D01*
X156467608Y-94364608D01*
X156489689Y-94337702D01*
X169874903Y-94337702D01*
X169946486Y-94581671D01*
X170201996Y-94702571D01*
X170476184Y-94771300D01*
X170758512Y-94785217D01*
X171038130Y-94743787D01*
X171304292Y-94648603D01*
X171429514Y-94581671D01*
X171501097Y-94337702D01*
X170688000Y-93524605D01*
X169874903Y-94337702D01*
X156489689Y-94337702D01*
X156646932Y-94146101D01*
X156780182Y-93896808D01*
X156862236Y-93626309D01*
X156882998Y-93415512D01*
X169247783Y-93415512D01*
X169289213Y-93695130D01*
X169384397Y-93961292D01*
X169451329Y-94086514D01*
X169695298Y-94158097D01*
X170508395Y-93345000D01*
X170867605Y-93345000D01*
X171680702Y-94158097D01*
X171924671Y-94086514D01*
X172045571Y-93831004D01*
X172114300Y-93556816D01*
X172128217Y-93274488D01*
X172086787Y-92994870D01*
X171991603Y-92728708D01*
X171924671Y-92603486D01*
X171680702Y-92531903D01*
X170867605Y-93345000D01*
X170508395Y-93345000D01*
X169695298Y-92531903D01*
X169451329Y-92603486D01*
X169330429Y-92858996D01*
X169261700Y-93133184D01*
X169247783Y-93415512D01*
X156882998Y-93415512D01*
X156889943Y-93345000D01*
X156879215Y-93236075D01*
X157762992Y-92352298D01*
X169874903Y-92352298D01*
X170688000Y-93165395D01*
X171501097Y-92352298D01*
X171429514Y-92108329D01*
X171174004Y-91987429D01*
X170899816Y-91918700D01*
X170617488Y-91904783D01*
X170337870Y-91946213D01*
X170071708Y-92041397D01*
X169946486Y-92108329D01*
X169874903Y-92352298D01*
X157762992Y-92352298D01*
X162426666Y-87688624D01*
X162462344Y-87659344D01*
X162579186Y-87516972D01*
X162666007Y-87354540D01*
X162719471Y-87178292D01*
X162725037Y-87121785D01*
X162737524Y-86995001D01*
X162733000Y-86949069D01*
X162733000Y-84177702D01*
X169874903Y-84177702D01*
X169946486Y-84421671D01*
X170201996Y-84542571D01*
X170476184Y-84611300D01*
X170758512Y-84625217D01*
X171038130Y-84583787D01*
X171304292Y-84488603D01*
X171429514Y-84421671D01*
X171501097Y-84177702D01*
X170688000Y-83364605D01*
X169874903Y-84177702D01*
X162733000Y-84177702D01*
X162733000Y-83255512D01*
X169247783Y-83255512D01*
X169289213Y-83535130D01*
X169384397Y-83801292D01*
X169451329Y-83926514D01*
X169695298Y-83998097D01*
X170508395Y-83185000D01*
X170867605Y-83185000D01*
X171680702Y-83998097D01*
X171924671Y-83926514D01*
X172045571Y-83671004D01*
X172114300Y-83396816D01*
X172128217Y-83114488D01*
X172086787Y-82834870D01*
X171991603Y-82568708D01*
X171924671Y-82443486D01*
X171680702Y-82371903D01*
X170867605Y-83185000D01*
X170508395Y-83185000D01*
X169695298Y-82371903D01*
X169451329Y-82443486D01*
X169330429Y-82698996D01*
X169261700Y-82973184D01*
X169247783Y-83255512D01*
X162733000Y-83255512D01*
X162733000Y-82192298D01*
X169874903Y-82192298D01*
X170688000Y-83005395D01*
X171501097Y-82192298D01*
X171429514Y-81948329D01*
X171174004Y-81827429D01*
X170899816Y-81758700D01*
X170617488Y-81744783D01*
X170337870Y-81786213D01*
X170071708Y-81881397D01*
X169946486Y-81948329D01*
X169874903Y-82192298D01*
X162733000Y-82192298D01*
X162733000Y-78232000D01*
X174371000Y-78232000D01*
X174371000Y-121158000D01*
X174371000Y-121158000D01*
G37*
X174371000Y-121158000D02*
X134037289Y-121158000D01*
X135515289Y-119680000D01*
X136578956Y-119680000D01*
X136648392Y-119764608D01*
X136866899Y-119943932D01*
X137116192Y-120077182D01*
X137386691Y-120159236D01*
X137597508Y-120180000D01*
X137738492Y-120180000D01*
X137949309Y-120159236D01*
X138219808Y-120077182D01*
X138469101Y-119943932D01*
X138687608Y-119764608D01*
X138866932Y-119546101D01*
X139000182Y-119296808D01*
X139082236Y-119026309D01*
X139109943Y-118745000D01*
X139082236Y-118463691D01*
X139000182Y-118193192D01*
X138866932Y-117943899D01*
X138687608Y-117725392D01*
X138469101Y-117546068D01*
X138219808Y-117412818D01*
X137949309Y-117330764D01*
X137738492Y-117310000D01*
X137597508Y-117310000D01*
X137386691Y-117330764D01*
X137116192Y-117412818D01*
X136866899Y-117546068D01*
X136648392Y-117725392D01*
X136578956Y-117810000D01*
X135173935Y-117810000D01*
X135128000Y-117805476D01*
X134944708Y-117823528D01*
X134840828Y-117855041D01*
X134768460Y-117876993D01*
X134606028Y-117963814D01*
X134463656Y-118080656D01*
X134434370Y-118116341D01*
X133223001Y-119327711D01*
X133214029Y-119318739D01*
X132011630Y-118116341D01*
X131982344Y-118080656D01*
X131839972Y-117963814D01*
X131677540Y-117876993D01*
X131501292Y-117823529D01*
X131363932Y-117810000D01*
X131318000Y-117805476D01*
X131272068Y-117810000D01*
X123522396Y-117810000D01*
X123342759Y-117630363D01*
X123107727Y-117473320D01*
X122846574Y-117365147D01*
X122569335Y-117310000D01*
X122315290Y-117310000D01*
X120581630Y-115576341D01*
X120552344Y-115540656D01*
X120409972Y-115423814D01*
X120247540Y-115336993D01*
X120071292Y-115283529D01*
X119933932Y-115270000D01*
X119888000Y-115265476D01*
X119842068Y-115270000D01*
X117413575Y-115270000D01*
X117446215Y-115162400D01*
X117451495Y-115108795D01*
X117960290Y-114600000D01*
X121338956Y-114600000D01*
X121408392Y-114684608D01*
X121626899Y-114863932D01*
X121876192Y-114997182D01*
X122146691Y-115079236D01*
X122357508Y-115100000D01*
X122498492Y-115100000D01*
X122709309Y-115079236D01*
X122979808Y-114997182D01*
X123229101Y-114863932D01*
X123447608Y-114684608D01*
X123626932Y-114466101D01*
X123760182Y-114216808D01*
X123842236Y-113946309D01*
X123869943Y-113665000D01*
X123856023Y-113523665D01*
X136233000Y-113523665D01*
X136233000Y-113806335D01*
X136288147Y-114083574D01*
X136396320Y-114344727D01*
X136553363Y-114579759D01*
X136753241Y-114779637D01*
X136988273Y-114936680D01*
X137249426Y-115044853D01*
X137526665Y-115100000D01*
X137809335Y-115100000D01*
X138086574Y-115044853D01*
X138347727Y-114936680D01*
X138582759Y-114779637D01*
X138762396Y-114600000D01*
X140388956Y-114600000D01*
X140458392Y-114684608D01*
X140543001Y-114754045D01*
X140543001Y-114889059D01*
X140538476Y-114935000D01*
X140556529Y-115118291D01*
X140602550Y-115270000D01*
X140609994Y-115294540D01*
X140696815Y-115456972D01*
X140813657Y-115599344D01*
X140849336Y-115628625D01*
X143291738Y-118071028D01*
X143421972Y-118201262D01*
X143460352Y-118226907D01*
X143496028Y-118256185D01*
X143536730Y-118277940D01*
X143575111Y-118303586D01*
X143617757Y-118321251D01*
X143658459Y-118343006D01*
X143702627Y-118356404D01*
X143745271Y-118374068D01*
X143790538Y-118383072D01*
X143834707Y-118396471D01*
X143880639Y-118400995D01*
X143925911Y-118410000D01*
X143972074Y-118410000D01*
X144017999Y-118414523D01*
X144063924Y-118410000D01*
X144110089Y-118410000D01*
X144155363Y-118400994D01*
X144201291Y-118396471D01*
X144245457Y-118383073D01*
X144290729Y-118374068D01*
X144333377Y-118356403D01*
X144377540Y-118343006D01*
X144418238Y-118321252D01*
X144460889Y-118303586D01*
X144499274Y-118277938D01*
X144539971Y-118256185D01*
X144575641Y-118226911D01*
X144614028Y-118201262D01*
X144646675Y-118168615D01*
X144682343Y-118139343D01*
X144711615Y-118103675D01*
X144744262Y-118071028D01*
X144769911Y-118032641D01*
X144799185Y-117996971D01*
X144820938Y-117956274D01*
X144846586Y-117917889D01*
X144864252Y-117875238D01*
X144886006Y-117834540D01*
X144899403Y-117790377D01*
X144917068Y-117747729D01*
X144926073Y-117702457D01*
X144939471Y-117658291D01*
X144943994Y-117612363D01*
X144953000Y-117567089D01*
X144953000Y-117520924D01*
X144957523Y-117474999D01*
X144953000Y-117429074D01*
X144953000Y-117382911D01*
X144943995Y-117337639D01*
X144939471Y-117291707D01*
X144926072Y-117247538D01*
X144917068Y-117202271D01*
X144899404Y-117159627D01*
X144886006Y-117115459D01*
X144864251Y-117074757D01*
X144846586Y-117032111D01*
X144820940Y-116993730D01*
X144799185Y-116953028D01*
X144769907Y-116917352D01*
X144744262Y-116878972D01*
X142522992Y-114657702D01*
X155904903Y-114657702D01*
X155976486Y-114901671D01*
X156231996Y-115022571D01*
X156506184Y-115091300D01*
X156788512Y-115105217D01*
X157068130Y-115063787D01*
X157334292Y-114968603D01*
X157459514Y-114901671D01*
X157531097Y-114657702D01*
X156718000Y-113844605D01*
X155904903Y-114657702D01*
X142522992Y-114657702D01*
X142521178Y-114655888D01*
X142676932Y-114466101D01*
X142810182Y-114216808D01*
X142892236Y-113946309D01*
X142912998Y-113735512D01*
X155277783Y-113735512D01*
X155319213Y-114015130D01*
X155414397Y-114281292D01*
X155481329Y-114406514D01*
X155725298Y-114478097D01*
X156538395Y-113665000D01*
X156897605Y-113665000D01*
X157710702Y-114478097D01*
X157954671Y-114406514D01*
X158075571Y-114151004D01*
X158144300Y-113876816D01*
X158158217Y-113594488D01*
X158116787Y-113314870D01*
X158021603Y-113048708D01*
X157954671Y-112923486D01*
X157710702Y-112851903D01*
X156897605Y-113665000D01*
X156538395Y-113665000D01*
X155725298Y-112851903D01*
X155481329Y-112923486D01*
X155360429Y-113178996D01*
X155291700Y-113453184D01*
X155277783Y-113735512D01*
X142912998Y-113735512D01*
X142919943Y-113665000D01*
X142892236Y-113383691D01*
X142810182Y-113113192D01*
X142676932Y-112863899D01*
X142519690Y-112672298D01*
X155904903Y-112672298D01*
X156718000Y-113485395D01*
X157531097Y-112672298D01*
X157459514Y-112428329D01*
X157204004Y-112307429D01*
X156929816Y-112238700D01*
X156647488Y-112224783D01*
X156367870Y-112266213D01*
X156101708Y-112361397D01*
X155976486Y-112428329D01*
X155904903Y-112672298D01*
X142519690Y-112672298D01*
X142497608Y-112645392D01*
X142279101Y-112466068D01*
X142029808Y-112332818D01*
X141759309Y-112250764D01*
X141548492Y-112230000D01*
X141407508Y-112230000D01*
X141196691Y-112250764D01*
X140926192Y-112332818D01*
X140676899Y-112466068D01*
X140458392Y-112645392D01*
X140388956Y-112730000D01*
X138762396Y-112730000D01*
X138582759Y-112550363D01*
X138347727Y-112393320D01*
X138086574Y-112285147D01*
X137809335Y-112230000D01*
X137526665Y-112230000D01*
X137249426Y-112285147D01*
X136988273Y-112393320D01*
X136753241Y-112550363D01*
X136553363Y-112750241D01*
X136396320Y-112985273D01*
X136288147Y-113246426D01*
X136233000Y-113523665D01*
X123856023Y-113523665D01*
X123842236Y-113383691D01*
X123760182Y-113113192D01*
X123626932Y-112863899D01*
X123447608Y-112645392D01*
X123363000Y-112575956D01*
X123363000Y-110064701D01*
X123402482Y-110060812D01*
X123522180Y-110024502D01*
X123632494Y-109965537D01*
X123729185Y-109886185D01*
X123808537Y-109789494D01*
X123867502Y-109679180D01*
X123903812Y-109559482D01*
X123916072Y-109435000D01*
X123916072Y-107735000D01*
X123903812Y-107610518D01*
X123867502Y-107490820D01*
X123808537Y-107380506D01*
X123729185Y-107283815D01*
X123632494Y-107204463D01*
X123522180Y-107145498D01*
X123453313Y-107124607D01*
X123483134Y-107100134D01*
X123668706Y-106874014D01*
X123806599Y-106616034D01*
X123891513Y-106336111D01*
X123920185Y-106045000D01*
X123891513Y-105753889D01*
X123806599Y-105473966D01*
X123668706Y-105215986D01*
X123483134Y-104989866D01*
X123257014Y-104804294D01*
X123202209Y-104775000D01*
X123257014Y-104745706D01*
X123483134Y-104560134D01*
X123581725Y-104440000D01*
X124580711Y-104440000D01*
X126814374Y-106673664D01*
X126843656Y-106709344D01*
X126986028Y-106826186D01*
X127148460Y-106913007D01*
X127271243Y-106950253D01*
X127324707Y-106966471D01*
X127343110Y-106968283D01*
X127462068Y-106980000D01*
X127462074Y-106980000D01*
X127507999Y-106984523D01*
X127553924Y-106980000D01*
X129133784Y-106980000D01*
X129175421Y-107014171D01*
X129376940Y-107121885D01*
X129595600Y-107188215D01*
X129766021Y-107205000D01*
X130329979Y-107205000D01*
X130500400Y-107188215D01*
X130719060Y-107121885D01*
X130920579Y-107014171D01*
X130962216Y-106980000D01*
X150703000Y-106980000D01*
X150703001Y-107495956D01*
X150618392Y-107565392D01*
X150439068Y-107783899D01*
X150305818Y-108033192D01*
X150223764Y-108303691D01*
X150196057Y-108585000D01*
X150223764Y-108866309D01*
X150305818Y-109136808D01*
X150439068Y-109386101D01*
X150618392Y-109604608D01*
X150836899Y-109783932D01*
X151086192Y-109917182D01*
X151356691Y-109999236D01*
X151567508Y-110020000D01*
X151708492Y-110020000D01*
X151919309Y-109999236D01*
X152189808Y-109917182D01*
X152439101Y-109783932D01*
X152657608Y-109604608D01*
X152836932Y-109386101D01*
X152970182Y-109136808D01*
X153052236Y-108866309D01*
X153079943Y-108585000D01*
X153052236Y-108303691D01*
X152970182Y-108033192D01*
X152836932Y-107783899D01*
X152657608Y-107565392D01*
X152573000Y-107495956D01*
X152573000Y-106090932D01*
X152577524Y-106045000D01*
X152559471Y-105861708D01*
X152506007Y-105685460D01*
X152419186Y-105523028D01*
X152302344Y-105380656D01*
X152159972Y-105263814D01*
X151997540Y-105176993D01*
X151821292Y-105123529D01*
X151683932Y-105110000D01*
X151638000Y-105105476D01*
X151592068Y-105110000D01*
X151355289Y-105110000D01*
X151525289Y-104940000D01*
X151779335Y-104940000D01*
X152056574Y-104884853D01*
X152317727Y-104776680D01*
X152552759Y-104619637D01*
X152752637Y-104419759D01*
X152909680Y-104184727D01*
X153017853Y-103923574D01*
X153073000Y-103646335D01*
X153073000Y-103392289D01*
X154513000Y-101952290D01*
X154513000Y-102415956D01*
X154428392Y-102485392D01*
X154249068Y-102703899D01*
X154115818Y-102953192D01*
X154033764Y-103223691D01*
X154006057Y-103505000D01*
X154033764Y-103786309D01*
X154115818Y-104056808D01*
X154249068Y-104306101D01*
X154428392Y-104524608D01*
X154513000Y-104594044D01*
X154513001Y-108197709D01*
X152520711Y-110190000D01*
X139325290Y-110190000D01*
X137833000Y-108697711D01*
X137833000Y-108443665D01*
X137777853Y-108166426D01*
X137669680Y-107905273D01*
X137512637Y-107670241D01*
X137312759Y-107470363D01*
X137077727Y-107313320D01*
X136816574Y-107205147D01*
X136539335Y-107150000D01*
X136256665Y-107150000D01*
X135979426Y-107205147D01*
X135718273Y-107313320D01*
X135483241Y-107470363D01*
X135283363Y-107670241D01*
X135126320Y-107905273D01*
X135018147Y-108166426D01*
X134963000Y-108443665D01*
X134963000Y-108726335D01*
X135018147Y-109003574D01*
X135126320Y-109264727D01*
X135283363Y-109499759D01*
X135483241Y-109699637D01*
X135718273Y-109856680D01*
X135979426Y-109964853D01*
X136256665Y-110020000D01*
X136510711Y-110020000D01*
X138244374Y-111753664D01*
X138273656Y-111789344D01*
X138416028Y-111906186D01*
X138578460Y-111993007D01*
X138701243Y-112030253D01*
X138754707Y-112046471D01*
X138773110Y-112048283D01*
X138892068Y-112060000D01*
X138892074Y-112060000D01*
X138937999Y-112064523D01*
X138983924Y-112060000D01*
X152862068Y-112060000D01*
X152908000Y-112064524D01*
X152953932Y-112060000D01*
X153091292Y-112046471D01*
X153267540Y-111993007D01*
X153429972Y-111906186D01*
X153572344Y-111789344D01*
X153601630Y-111753659D01*
X156076664Y-109278626D01*
X156112344Y-109249344D01*
X156229186Y-109106972D01*
X156316007Y-108944540D01*
X156369471Y-108768292D01*
X156383000Y-108630932D01*
X156383000Y-108630926D01*
X156387523Y-108585001D01*
X156383000Y-108539076D01*
X156383000Y-104594044D01*
X156467608Y-104524608D01*
X156489689Y-104497702D01*
X169874903Y-104497702D01*
X169946486Y-104741671D01*
X170201996Y-104862571D01*
X170476184Y-104931300D01*
X170758512Y-104945217D01*
X171038130Y-104903787D01*
X171304292Y-104808603D01*
X171429514Y-104741671D01*
X171501097Y-104497702D01*
X170688000Y-103684605D01*
X169874903Y-104497702D01*
X156489689Y-104497702D01*
X156646932Y-104306101D01*
X156780182Y-104056808D01*
X156862236Y-103786309D01*
X156882998Y-103575512D01*
X169247783Y-103575512D01*
X169289213Y-103855130D01*
X169384397Y-104121292D01*
X169451329Y-104246514D01*
X169695298Y-104318097D01*
X170508395Y-103505000D01*
X170867605Y-103505000D01*
X171680702Y-104318097D01*
X171924671Y-104246514D01*
X172045571Y-103991004D01*
X172114300Y-103716816D01*
X172128217Y-103434488D01*
X172086787Y-103154870D01*
X171991603Y-102888708D01*
X171924671Y-102763486D01*
X171680702Y-102691903D01*
X170867605Y-103505000D01*
X170508395Y-103505000D01*
X169695298Y-102691903D01*
X169451329Y-102763486D01*
X169330429Y-103018996D01*
X169261700Y-103293184D01*
X169247783Y-103575512D01*
X156882998Y-103575512D01*
X156889943Y-103505000D01*
X156862236Y-103223691D01*
X156780182Y-102953192D01*
X156646932Y-102703899D01*
X156489690Y-102512298D01*
X169874903Y-102512298D01*
X170688000Y-103325395D01*
X171501097Y-102512298D01*
X171429514Y-102268329D01*
X171174004Y-102147429D01*
X170899816Y-102078700D01*
X170617488Y-102064783D01*
X170337870Y-102106213D01*
X170071708Y-102201397D01*
X169946486Y-102268329D01*
X169874903Y-102512298D01*
X156489690Y-102512298D01*
X156467608Y-102485392D01*
X156383000Y-102415956D01*
X156383000Y-98812289D01*
X158681623Y-96513667D01*
X158714262Y-96481028D01*
X158739907Y-96442648D01*
X158769185Y-96406972D01*
X158790940Y-96366270D01*
X158816586Y-96327889D01*
X158834251Y-96285243D01*
X158856006Y-96244541D01*
X158869404Y-96200373D01*
X158887068Y-96157729D01*
X158896072Y-96112462D01*
X158909471Y-96068293D01*
X158913995Y-96022361D01*
X158923000Y-95977089D01*
X158923000Y-95930926D01*
X158927523Y-95885001D01*
X158923000Y-95839076D01*
X158923000Y-95792911D01*
X158913994Y-95747637D01*
X158909471Y-95701709D01*
X158896073Y-95657543D01*
X158887068Y-95612271D01*
X158869403Y-95569623D01*
X158856006Y-95525460D01*
X158834252Y-95484762D01*
X158816586Y-95442111D01*
X158790938Y-95403726D01*
X158769185Y-95363029D01*
X158739911Y-95327359D01*
X158714262Y-95288972D01*
X158681615Y-95256325D01*
X158652343Y-95220657D01*
X158616675Y-95191385D01*
X158584028Y-95158738D01*
X158545641Y-95133089D01*
X158509971Y-95103815D01*
X158469274Y-95082062D01*
X158430889Y-95056414D01*
X158388238Y-95038748D01*
X158347540Y-95016994D01*
X158303377Y-95003597D01*
X158260729Y-94985932D01*
X158215457Y-94976927D01*
X158171291Y-94963529D01*
X158125363Y-94959006D01*
X158080089Y-94950000D01*
X158033924Y-94950000D01*
X157987999Y-94945477D01*
X157942074Y-94950000D01*
X157895911Y-94950000D01*
X157850639Y-94959005D01*
X157804707Y-94963529D01*
X157760538Y-94976928D01*
X157715271Y-94985932D01*
X157672627Y-95003596D01*
X157628459Y-95016994D01*
X157587757Y-95038749D01*
X157545111Y-95056414D01*
X157506730Y-95082060D01*
X157466028Y-95103815D01*
X157430352Y-95133093D01*
X157391972Y-95158738D01*
X157359333Y-95191377D01*
X154819336Y-97731375D01*
X154783657Y-97760656D01*
X154666815Y-97903028D01*
X154579995Y-98065459D01*
X154579994Y-98065460D01*
X154526529Y-98241709D01*
X154508476Y-98425000D01*
X154513001Y-98470942D01*
X154513001Y-100089550D01*
X154493377Y-100083597D01*
X154450729Y-100065932D01*
X154405457Y-100056927D01*
X154361291Y-100043529D01*
X154315363Y-100039006D01*
X154270089Y-100030000D01*
X154223924Y-100030000D01*
X154177999Y-100025477D01*
X154132074Y-100030000D01*
X154085911Y-100030000D01*
X154040639Y-100039005D01*
X153994707Y-100043529D01*
X153950538Y-100056928D01*
X153905271Y-100065932D01*
X153862627Y-100083596D01*
X153818459Y-100096994D01*
X153777757Y-100118749D01*
X153735111Y-100136414D01*
X153696730Y-100162060D01*
X153656028Y-100183815D01*
X153620352Y-100213093D01*
X153581972Y-100238738D01*
X153549333Y-100271377D01*
X151750711Y-102070000D01*
X151496665Y-102070000D01*
X151219426Y-102125147D01*
X150958273Y-102233320D01*
X150723241Y-102390363D01*
X150523363Y-102590241D01*
X150366320Y-102825273D01*
X150258147Y-103086426D01*
X150203000Y-103363665D01*
X150203000Y-103617711D01*
X149735721Y-104084990D01*
X137715118Y-104084990D01*
X137730182Y-104056808D01*
X137812236Y-103786309D01*
X137839943Y-103505000D01*
X137812236Y-103223691D01*
X137730182Y-102953192D01*
X137596932Y-102703899D01*
X137417608Y-102485392D01*
X137199101Y-102306068D01*
X136949808Y-102172818D01*
X136679309Y-102090764D01*
X136468492Y-102070000D01*
X136327508Y-102070000D01*
X136116691Y-102090764D01*
X135846192Y-102172818D01*
X135596899Y-102306068D01*
X135378392Y-102485392D01*
X135308956Y-102570000D01*
X131282985Y-102570000D01*
X131249185Y-102528815D01*
X131152494Y-102449463D01*
X131042180Y-102390498D01*
X130922482Y-102354188D01*
X130798000Y-102341928D01*
X129982218Y-102341928D01*
X127976630Y-100336341D01*
X127947344Y-100300656D01*
X127804972Y-100183814D01*
X127642540Y-100096993D01*
X127466292Y-100043529D01*
X127328932Y-100030000D01*
X127283000Y-100025476D01*
X127237068Y-100030000D01*
X123581725Y-100030000D01*
X123483134Y-99909866D01*
X123257014Y-99724294D01*
X123202209Y-99695000D01*
X123257014Y-99665706D01*
X123483134Y-99480134D01*
X123668706Y-99254014D01*
X123806599Y-98996034D01*
X123891513Y-98716111D01*
X123920185Y-98425000D01*
X123904952Y-98270338D01*
X124085290Y-98090000D01*
X129133784Y-98090000D01*
X129175421Y-98124171D01*
X129376940Y-98231885D01*
X129595600Y-98298215D01*
X129766021Y-98315000D01*
X130329979Y-98315000D01*
X130500400Y-98298215D01*
X130719060Y-98231885D01*
X130920579Y-98124171D01*
X130962216Y-98090000D01*
X131010711Y-98090000D01*
X133274375Y-100353665D01*
X133303657Y-100389345D01*
X133446029Y-100506187D01*
X133608461Y-100593008D01*
X133731244Y-100630254D01*
X133784708Y-100646472D01*
X133968000Y-100664525D01*
X134013932Y-100660001D01*
X152216069Y-100660001D01*
X152262001Y-100664525D01*
X152307933Y-100660001D01*
X152445293Y-100646472D01*
X152621541Y-100593008D01*
X152783973Y-100506187D01*
X152926345Y-100389345D01*
X152955631Y-100353660D01*
X153566665Y-99742627D01*
X153602345Y-99713345D01*
X153719187Y-99570973D01*
X153806008Y-99408541D01*
X153859472Y-99232293D01*
X153862043Y-99206186D01*
X153877525Y-99049002D01*
X153873001Y-99003070D01*
X153873001Y-94690932D01*
X153877525Y-94645000D01*
X153859472Y-94461708D01*
X153843254Y-94408244D01*
X153806008Y-94285461D01*
X153719187Y-94123029D01*
X153602345Y-93980657D01*
X153566666Y-93951376D01*
X153069215Y-93453925D01*
X153079943Y-93345000D01*
X153052236Y-93063691D01*
X153026849Y-92979999D01*
X153760710Y-92979999D01*
X154016785Y-93236075D01*
X154006057Y-93345000D01*
X154033764Y-93626309D01*
X154115818Y-93896808D01*
X154249068Y-94146101D01*
X154428392Y-94364608D01*
X154646899Y-94543932D01*
X154896192Y-94677182D01*
X155166691Y-94759236D01*
X155377508Y-94780000D01*
X155518492Y-94780000D01*
X155729309Y-94759236D01*
X155999808Y-94677182D01*
X156249101Y-94543932D01*
X156467608Y-94364608D01*
X156489689Y-94337702D01*
X169874903Y-94337702D01*
X169946486Y-94581671D01*
X170201996Y-94702571D01*
X170476184Y-94771300D01*
X170758512Y-94785217D01*
X171038130Y-94743787D01*
X171304292Y-94648603D01*
X171429514Y-94581671D01*
X171501097Y-94337702D01*
X170688000Y-93524605D01*
X169874903Y-94337702D01*
X156489689Y-94337702D01*
X156646932Y-94146101D01*
X156780182Y-93896808D01*
X156862236Y-93626309D01*
X156882998Y-93415512D01*
X169247783Y-93415512D01*
X169289213Y-93695130D01*
X169384397Y-93961292D01*
X169451329Y-94086514D01*
X169695298Y-94158097D01*
X170508395Y-93345000D01*
X170867605Y-93345000D01*
X171680702Y-94158097D01*
X171924671Y-94086514D01*
X172045571Y-93831004D01*
X172114300Y-93556816D01*
X172128217Y-93274488D01*
X172086787Y-92994870D01*
X171991603Y-92728708D01*
X171924671Y-92603486D01*
X171680702Y-92531903D01*
X170867605Y-93345000D01*
X170508395Y-93345000D01*
X169695298Y-92531903D01*
X169451329Y-92603486D01*
X169330429Y-92858996D01*
X169261700Y-93133184D01*
X169247783Y-93415512D01*
X156882998Y-93415512D01*
X156889943Y-93345000D01*
X156879215Y-93236075D01*
X157762992Y-92352298D01*
X169874903Y-92352298D01*
X170688000Y-93165395D01*
X171501097Y-92352298D01*
X171429514Y-92108329D01*
X171174004Y-91987429D01*
X170899816Y-91918700D01*
X170617488Y-91904783D01*
X170337870Y-91946213D01*
X170071708Y-92041397D01*
X169946486Y-92108329D01*
X169874903Y-92352298D01*
X157762992Y-92352298D01*
X162426666Y-87688624D01*
X162462344Y-87659344D01*
X162579186Y-87516972D01*
X162666007Y-87354540D01*
X162719471Y-87178292D01*
X162725037Y-87121785D01*
X162737524Y-86995001D01*
X162733000Y-86949069D01*
X162733000Y-84177702D01*
X169874903Y-84177702D01*
X169946486Y-84421671D01*
X170201996Y-84542571D01*
X170476184Y-84611300D01*
X170758512Y-84625217D01*
X171038130Y-84583787D01*
X171304292Y-84488603D01*
X171429514Y-84421671D01*
X171501097Y-84177702D01*
X170688000Y-83364605D01*
X169874903Y-84177702D01*
X162733000Y-84177702D01*
X162733000Y-83255512D01*
X169247783Y-83255512D01*
X169289213Y-83535130D01*
X169384397Y-83801292D01*
X169451329Y-83926514D01*
X169695298Y-83998097D01*
X170508395Y-83185000D01*
X170867605Y-83185000D01*
X171680702Y-83998097D01*
X171924671Y-83926514D01*
X172045571Y-83671004D01*
X172114300Y-83396816D01*
X172128217Y-83114488D01*
X172086787Y-82834870D01*
X171991603Y-82568708D01*
X171924671Y-82443486D01*
X171680702Y-82371903D01*
X170867605Y-83185000D01*
X170508395Y-83185000D01*
X169695298Y-82371903D01*
X169451329Y-82443486D01*
X169330429Y-82698996D01*
X169261700Y-82973184D01*
X169247783Y-83255512D01*
X162733000Y-83255512D01*
X162733000Y-82192298D01*
X169874903Y-82192298D01*
X170688000Y-83005395D01*
X171501097Y-82192298D01*
X171429514Y-81948329D01*
X171174004Y-81827429D01*
X170899816Y-81758700D01*
X170617488Y-81744783D01*
X170337870Y-81786213D01*
X170071708Y-81881397D01*
X169946486Y-81948329D01*
X169874903Y-82192298D01*
X162733000Y-82192298D01*
X162733000Y-78232000D01*
X174371000Y-78232000D01*
X174371000Y-121158000D01*
G36*
X154051000Y-123952000D02*
G01*
X151765000Y-123952000D01*
X151765000Y-123698000D01*
X154051000Y-123698000D01*
X154051000Y-123952000D01*
X154051000Y-123952000D01*
G37*
X154051000Y-123952000D02*
X151765000Y-123952000D01*
X151765000Y-123698000D01*
X154051000Y-123698000D01*
X154051000Y-123952000D01*
G36*
X154051000Y-122174000D02*
G01*
X154050998Y-122174000D01*
X154050998Y-122338782D01*
X153818974Y-122217642D01*
X153803211Y-122220291D01*
X153527081Y-122321314D01*
X153275965Y-122474267D01*
X153059514Y-122673271D01*
X152908000Y-122880633D01*
X152756486Y-122673271D01*
X152540035Y-122474267D01*
X152288919Y-122321314D01*
X152012789Y-122220291D01*
X151997026Y-122217642D01*
X151765002Y-122338782D01*
X151765002Y-122174000D01*
X151765000Y-122174000D01*
X151765000Y-120142000D01*
X154051000Y-120142000D01*
X154051000Y-122174000D01*
X154051000Y-122174000D01*
G37*
X154051000Y-122174000D02*
X154050998Y-122174000D01*
X154050998Y-122338782D01*
X153818974Y-122217642D01*
X153803211Y-122220291D01*
X153527081Y-122321314D01*
X153275965Y-122474267D01*
X153059514Y-122673271D01*
X152908000Y-122880633D01*
X152756486Y-122673271D01*
X152540035Y-122474267D01*
X152288919Y-122321314D01*
X152012789Y-122220291D01*
X151997026Y-122217642D01*
X151765002Y-122338782D01*
X151765002Y-122174000D01*
X151765000Y-122174000D01*
X151765000Y-120142000D01*
X154051000Y-120142000D01*
X154051000Y-122174000D01*
M02*
