M48
; DRILL file {KiCad (5.1.2)-1} date 26/05/2019 20:18:18
; FORMAT={-:-/ absolute / inch / decimal}
; #@! TF.CreationDate,2019-05-26T20:18:18+06:00
; #@! TF.GenerationSoftware,Kicad,Pcbnew,(5.1.2)-1
FMAT,2
INCH
T1C0.0157
T2C0.0295
T3C0.0315
T4C0.0394
T5C0.0400
T6C0.1200
%
G90
G05
T1
X5.2212Y-4.7262
X5.47Y-3.475
X5.52Y-3.875
X5.67Y-4.625
X6.07Y-3.975
X6.22Y-3.775
T2
X4.57Y-4.525
X4.57Y-4.575
X4.57Y-4.625
X5.12Y-3.725
X5.12Y-3.775
X5.12Y-3.825
X5.12Y-4.075
X5.12Y-4.125
X5.12Y-4.175
X5.12Y-3.375
X5.12Y-3.425
X5.12Y-3.475
T3
X5.37Y-4.275
X5.97Y-4.275
X6.12Y-3.675
X6.72Y-3.675
X5.37Y-3.675
X5.97Y-3.675
X5.37Y-3.475
X5.97Y-3.475
X4.82Y-4.675
X5.42Y-4.675
X5.37Y-4.075
X5.97Y-4.075
X6.12Y-4.075
X6.72Y-4.075
X5.37Y-3.275
X5.97Y-3.275
X4.82Y-4.475
X5.42Y-4.475
X6.12Y-3.275
X6.72Y-3.275
X5.37Y-3.875
X5.97Y-3.875
X5.57Y-4.475
X6.17Y-4.475
T4
X4.82Y-3.375
X4.82Y-3.475
X4.82Y-3.575
X4.82Y-3.675
X4.82Y-3.775
X4.82Y-3.875
X4.82Y-3.975
X4.82Y-4.075
X4.82Y-4.175
X4.82Y-4.275
T5
X6.37Y-4.875
X6.47Y-4.875
X6.57Y-4.875
X6.67Y-4.875
X6.77Y-4.875
X6.87Y-4.875
X5.47Y-4.875
X5.57Y-4.875
X5.67Y-4.875
X5.77Y-4.875
X5.87Y-4.875
X5.97Y-4.875
X6.07Y-4.875
X6.17Y-4.875
X5.11Y-2.975
X5.21Y-2.975
X5.31Y-2.975
X5.41Y-2.975
X5.51Y-2.975
X5.61Y-2.975
X5.71Y-2.975
X5.81Y-2.975
X5.91Y-2.975
X6.01Y-2.975
X6.17Y-2.975
X6.27Y-2.975
X6.37Y-2.975
X6.47Y-2.975
X6.57Y-2.975
X6.67Y-2.975
X6.77Y-2.975
X6.87Y-2.975
T6
X4.92Y-4.875
X6.97Y-4.675
X4.97Y-2.975
X6.97Y-3.575
T0
M30
