G04 #@! TF.GenerationSoftware,KiCad,Pcbnew,(5.1.2)-1*
G04 #@! TF.CreationDate,2019-05-26T20:18:29+06:00*
G04 #@! TF.ProjectId,HeadcrabShield,48656164-6372-4616-9253-6869656c642e,rev?*
G04 #@! TF.SameCoordinates,Original*
G04 #@! TF.FileFunction,Copper,L2,Bot*
G04 #@! TF.FilePolarity,Positive*
%FSLAX46Y46*%
G04 Gerber Fmt 4.6, Leading zero omitted, Abs format (unit mm)*
G04 Created by KiCad (PCBNEW (5.1.2)-1) date 2019-05-26 20:18:29*
%MOMM*%
%LPD*%
G04 APERTURE LIST*
%ADD10O,1.700000X1.700000*%
%ADD11R,1.700000X1.700000*%
%ADD12O,1.600000X1.600000*%
%ADD13C,1.600000*%
%ADD14R,1.500000X1.050000*%
%ADD15O,1.500000X1.050000*%
%ADD16O,1.727200X2.032000*%
%ADD17C,4.064000*%
%ADD18C,0.600000*%
%ADD19C,0.600000*%
%ADD20C,0.254000*%
G04 APERTURE END LIST*
D10*
X122428000Y-85725000D03*
X122428000Y-88265000D03*
X122428000Y-90805000D03*
X122428000Y-93345000D03*
X122428000Y-95885000D03*
X122428000Y-98425000D03*
X122428000Y-100965000D03*
X122428000Y-103505000D03*
X122428000Y-106045000D03*
D11*
X122428000Y-108585000D03*
D12*
X155448000Y-83185000D03*
D13*
X170688000Y-83185000D03*
D12*
X155448000Y-93345000D03*
D13*
X170688000Y-93345000D03*
D12*
X151638000Y-83185000D03*
D13*
X136398000Y-83185000D03*
D12*
X151638000Y-93345000D03*
D13*
X136398000Y-93345000D03*
D12*
X151638000Y-88265000D03*
D13*
X136398000Y-88265000D03*
D12*
X151638000Y-98425000D03*
D13*
X136398000Y-98425000D03*
D12*
X155448000Y-103505000D03*
D13*
X170688000Y-103505000D03*
D12*
X151638000Y-108585000D03*
D13*
X136398000Y-108585000D03*
D12*
X136398000Y-103505000D03*
D13*
X151638000Y-103505000D03*
D12*
X141478000Y-113665000D03*
D13*
X156718000Y-113665000D03*
D12*
X122428000Y-113665000D03*
D13*
X137668000Y-113665000D03*
D12*
X137668000Y-118745000D03*
D13*
X122428000Y-118745000D03*
D14*
X130048000Y-85725000D03*
D15*
X130048000Y-88265000D03*
X130048000Y-86995000D03*
D14*
X130048000Y-94615000D03*
D15*
X130048000Y-97155000D03*
X130048000Y-95885000D03*
D14*
X130048000Y-103505000D03*
D15*
X130048000Y-106045000D03*
X130048000Y-104775000D03*
D14*
X116078000Y-117475000D03*
D15*
X116078000Y-114935000D03*
X116078000Y-116205000D03*
D16*
X138938000Y-123825000D03*
X141478000Y-123825000D03*
X144018000Y-123825000D03*
X146558000Y-123825000D03*
X149098000Y-123825000D03*
X151638000Y-123825000D03*
X154178000Y-123825000D03*
X156718000Y-123825000D03*
X161798000Y-123825000D03*
X164338000Y-123825000D03*
X166878000Y-123825000D03*
X169418000Y-123825000D03*
X171958000Y-123825000D03*
X174498000Y-123825000D03*
X129794000Y-75565000D03*
X132334000Y-75565000D03*
X134874000Y-75565000D03*
X137414000Y-75565000D03*
X139954000Y-75565000D03*
X142494000Y-75565000D03*
X145034000Y-75565000D03*
X147574000Y-75565000D03*
X150114000Y-75565000D03*
X152654000Y-75565000D03*
X156718000Y-75565000D03*
X159258000Y-75565000D03*
X161798000Y-75565000D03*
X164338000Y-75565000D03*
X166878000Y-75565000D03*
X169418000Y-75565000D03*
X171958000Y-75565000D03*
X174498000Y-75565000D03*
D17*
X124968000Y-123825000D03*
X177038000Y-118745000D03*
X126238000Y-75565000D03*
X177038000Y-90805000D03*
D18*
X138938000Y-88265000D03*
X157988000Y-95885000D03*
X140208000Y-98425000D03*
X132618001Y-120045001D03*
X154178000Y-100965000D03*
X144018000Y-117475000D03*
D19*
X152654000Y-75717400D02*
X152654000Y-75565000D01*
X140106400Y-88265000D02*
X152654000Y-75717400D01*
X138938000Y-88265000D02*
X140106400Y-88265000D01*
X157988000Y-76835000D02*
X156718000Y-75565000D01*
X157988000Y-95885000D02*
X157988000Y-76835000D01*
X164338000Y-97155000D02*
X164338000Y-75565000D01*
X140208000Y-98425000D02*
X146588001Y-104805001D01*
X146588001Y-104805001D02*
X154208001Y-104805001D01*
X154208001Y-104805001D02*
X155448000Y-106045000D01*
X155448000Y-106045000D02*
X163068000Y-106045000D01*
X163068000Y-106045000D02*
X168148000Y-100965000D01*
X168148000Y-100965000D02*
X164338000Y-97155000D01*
X132618001Y-120045001D02*
X132618001Y-120045001D01*
X169418000Y-75717400D02*
X169418000Y-75565000D01*
X171988001Y-78287401D02*
X169418000Y-75717400D01*
X171988001Y-106014999D02*
X171988001Y-78287401D01*
X157957999Y-120045001D02*
X171988001Y-106014999D01*
X132618001Y-120045001D02*
X157957999Y-120045001D01*
X154178000Y-100965000D02*
X159258000Y-95885000D01*
X159258000Y-95885000D02*
X159258000Y-75565000D01*
X154832002Y-117475000D02*
X169418000Y-102889002D01*
X144018000Y-117475000D02*
X154832002Y-117475000D01*
X169387999Y-93969001D02*
X169387999Y-80675001D01*
X169418000Y-102889002D02*
X169418000Y-93999002D01*
X169418000Y-93999002D02*
X169387999Y-93969001D01*
X166878000Y-78165002D02*
X166878000Y-75565000D01*
X169387999Y-80675001D02*
X166878000Y-78165002D01*
D20*
G36*
X139719111Y-87330000D02*
G01*
X138845911Y-87330000D01*
X138800641Y-87339005D01*
X138754708Y-87343529D01*
X138710538Y-87356928D01*
X138665271Y-87365932D01*
X138622631Y-87383594D01*
X138578460Y-87396993D01*
X138537752Y-87418752D01*
X138495111Y-87436414D01*
X138456736Y-87462055D01*
X138416028Y-87483814D01*
X138380347Y-87513097D01*
X138341972Y-87538738D01*
X138309335Y-87571375D01*
X138273656Y-87600656D01*
X138244376Y-87636334D01*
X138211738Y-87668972D01*
X138186097Y-87707347D01*
X138156814Y-87743028D01*
X138135055Y-87783736D01*
X138109414Y-87822111D01*
X138091752Y-87864752D01*
X138069993Y-87905460D01*
X138056594Y-87949631D01*
X138038932Y-87992271D01*
X138029928Y-88037538D01*
X138016529Y-88081708D01*
X138012005Y-88127641D01*
X138003000Y-88172911D01*
X138003000Y-88219068D01*
X137998476Y-88265000D01*
X138003000Y-88310932D01*
X138003000Y-88357089D01*
X138012005Y-88402359D01*
X138016529Y-88448292D01*
X138029928Y-88492462D01*
X138038932Y-88537729D01*
X138056594Y-88580369D01*
X138069993Y-88624540D01*
X138091752Y-88665248D01*
X138109414Y-88707889D01*
X138135055Y-88746264D01*
X138156814Y-88786972D01*
X138186097Y-88822653D01*
X138211738Y-88861028D01*
X138244375Y-88893665D01*
X138273656Y-88929344D01*
X138309335Y-88958625D01*
X138341972Y-88991262D01*
X138380347Y-89016903D01*
X138416028Y-89046186D01*
X138456736Y-89067945D01*
X138495111Y-89093586D01*
X138537752Y-89111248D01*
X138578460Y-89133007D01*
X138622631Y-89146406D01*
X138665271Y-89164068D01*
X138710538Y-89173072D01*
X138754708Y-89186471D01*
X138800641Y-89190995D01*
X138845911Y-89200000D01*
X140060468Y-89200000D01*
X140106400Y-89204524D01*
X140152332Y-89200000D01*
X140289692Y-89186471D01*
X140465940Y-89133007D01*
X140628372Y-89046186D01*
X140770744Y-88929344D01*
X140800030Y-88893659D01*
X141428689Y-88265000D01*
X150196057Y-88265000D01*
X150223764Y-88546309D01*
X150305818Y-88816808D01*
X150439068Y-89066101D01*
X150618392Y-89284608D01*
X150836899Y-89463932D01*
X151086192Y-89597182D01*
X151356691Y-89679236D01*
X151567508Y-89700000D01*
X151708492Y-89700000D01*
X151919309Y-89679236D01*
X152189808Y-89597182D01*
X152439101Y-89463932D01*
X152657608Y-89284608D01*
X152836932Y-89066101D01*
X152970182Y-88816808D01*
X153052236Y-88546309D01*
X153079943Y-88265000D01*
X153052236Y-87983691D01*
X152970182Y-87713192D01*
X152836932Y-87463899D01*
X152657608Y-87245392D01*
X152439101Y-87066068D01*
X152189808Y-86932818D01*
X151919309Y-86850764D01*
X151708492Y-86830000D01*
X151567508Y-86830000D01*
X151356691Y-86850764D01*
X151086192Y-86932818D01*
X150836899Y-87066068D01*
X150618392Y-87245392D01*
X150439068Y-87463899D01*
X150305818Y-87713192D01*
X150223764Y-87983691D01*
X150196057Y-88265000D01*
X141428689Y-88265000D01*
X146508689Y-83185000D01*
X150196057Y-83185000D01*
X150223764Y-83466309D01*
X150305818Y-83736808D01*
X150439068Y-83986101D01*
X150618392Y-84204608D01*
X150836899Y-84383932D01*
X151086192Y-84517182D01*
X151356691Y-84599236D01*
X151567508Y-84620000D01*
X151708492Y-84620000D01*
X151919309Y-84599236D01*
X152189808Y-84517182D01*
X152439101Y-84383932D01*
X152657608Y-84204608D01*
X152836932Y-83986101D01*
X152970182Y-83736808D01*
X153052236Y-83466309D01*
X153079943Y-83185000D01*
X154006057Y-83185000D01*
X154033764Y-83466309D01*
X154115818Y-83736808D01*
X154249068Y-83986101D01*
X154428392Y-84204608D01*
X154646899Y-84383932D01*
X154896192Y-84517182D01*
X155166691Y-84599236D01*
X155377508Y-84620000D01*
X155518492Y-84620000D01*
X155729309Y-84599236D01*
X155999808Y-84517182D01*
X156249101Y-84383932D01*
X156467608Y-84204608D01*
X156646932Y-83986101D01*
X156780182Y-83736808D01*
X156862236Y-83466309D01*
X156889943Y-83185000D01*
X156862236Y-82903691D01*
X156780182Y-82633192D01*
X156646932Y-82383899D01*
X156467608Y-82165392D01*
X156249101Y-81986068D01*
X155999808Y-81852818D01*
X155729309Y-81770764D01*
X155518492Y-81750000D01*
X155377508Y-81750000D01*
X155166691Y-81770764D01*
X154896192Y-81852818D01*
X154646899Y-81986068D01*
X154428392Y-82165392D01*
X154249068Y-82383899D01*
X154115818Y-82633192D01*
X154033764Y-82903691D01*
X154006057Y-83185000D01*
X153079943Y-83185000D01*
X153052236Y-82903691D01*
X152970182Y-82633192D01*
X152836932Y-82383899D01*
X152657608Y-82165392D01*
X152439101Y-81986068D01*
X152189808Y-81852818D01*
X151919309Y-81770764D01*
X151708492Y-81750000D01*
X151567508Y-81750000D01*
X151356691Y-81770764D01*
X151086192Y-81852818D01*
X150836899Y-81986068D01*
X150618392Y-82165392D01*
X150439068Y-82383899D01*
X150305818Y-82633192D01*
X150223764Y-82903691D01*
X150196057Y-83185000D01*
X146508689Y-83185000D01*
X151461690Y-78232000D01*
X157053001Y-78232000D01*
X157053000Y-95792911D01*
X157053000Y-95977089D01*
X157062005Y-96022360D01*
X157066529Y-96068291D01*
X157079927Y-96112459D01*
X157088932Y-96157729D01*
X157106595Y-96200372D01*
X157119993Y-96244539D01*
X157141750Y-96285243D01*
X157159414Y-96327889D01*
X157185058Y-96366268D01*
X157206814Y-96406971D01*
X157236094Y-96442649D01*
X157261738Y-96481028D01*
X157294376Y-96513666D01*
X157300087Y-96520624D01*
X153581975Y-100238736D01*
X153581972Y-100238738D01*
X153451738Y-100368972D01*
X153426089Y-100407358D01*
X153396815Y-100443029D01*
X153375062Y-100483726D01*
X153349414Y-100522111D01*
X153331748Y-100564762D01*
X153309994Y-100605460D01*
X153296597Y-100649623D01*
X153278932Y-100692271D01*
X153269927Y-100737543D01*
X153256529Y-100781709D01*
X153252005Y-100827640D01*
X153243000Y-100872911D01*
X153243000Y-100919068D01*
X153238476Y-100965000D01*
X153243000Y-101010932D01*
X153243000Y-101057089D01*
X153252005Y-101102360D01*
X153256529Y-101148291D01*
X153269927Y-101192457D01*
X153278932Y-101237729D01*
X153296597Y-101280377D01*
X153309994Y-101324540D01*
X153331748Y-101365238D01*
X153349414Y-101407889D01*
X153375062Y-101446274D01*
X153396815Y-101486971D01*
X153426089Y-101522641D01*
X153451738Y-101561028D01*
X153484385Y-101593675D01*
X153513657Y-101629343D01*
X153549325Y-101658615D01*
X153581972Y-101691262D01*
X153620359Y-101716911D01*
X153656029Y-101746185D01*
X153696726Y-101767938D01*
X153735111Y-101793586D01*
X153777762Y-101811252D01*
X153818460Y-101833006D01*
X153862623Y-101846403D01*
X153905271Y-101864068D01*
X153950543Y-101873073D01*
X153994709Y-101886471D01*
X154040640Y-101890995D01*
X154085911Y-101900000D01*
X154132068Y-101900000D01*
X154178000Y-101904524D01*
X154223932Y-101900000D01*
X154270089Y-101900000D01*
X154315360Y-101890995D01*
X154361291Y-101886471D01*
X154405457Y-101873073D01*
X154450729Y-101864068D01*
X154493377Y-101846403D01*
X154537540Y-101833006D01*
X154578238Y-101811252D01*
X154620889Y-101793586D01*
X154659274Y-101767938D01*
X154699971Y-101746185D01*
X154735642Y-101716911D01*
X154774028Y-101691262D01*
X154904262Y-101561028D01*
X154904264Y-101561025D01*
X159886660Y-96578629D01*
X159922344Y-96549344D01*
X160039186Y-96406972D01*
X160126007Y-96244540D01*
X160179471Y-96068292D01*
X160193000Y-95930932D01*
X160193000Y-95930931D01*
X160197524Y-95885000D01*
X160193000Y-95839068D01*
X160193000Y-78232000D01*
X163403001Y-78232000D01*
X163403000Y-97109068D01*
X163398476Y-97155000D01*
X163403000Y-97200931D01*
X163416529Y-97338291D01*
X163469993Y-97514539D01*
X163556814Y-97676971D01*
X163673656Y-97819344D01*
X163709341Y-97848630D01*
X166825711Y-100965000D01*
X162680711Y-105110000D01*
X155835290Y-105110000D01*
X155652127Y-104926838D01*
X155729309Y-104919236D01*
X155999808Y-104837182D01*
X156249101Y-104703932D01*
X156467608Y-104524608D01*
X156646932Y-104306101D01*
X156780182Y-104056808D01*
X156862236Y-103786309D01*
X156889943Y-103505000D01*
X156862236Y-103223691D01*
X156780182Y-102953192D01*
X156646932Y-102703899D01*
X156467608Y-102485392D01*
X156249101Y-102306068D01*
X155999808Y-102172818D01*
X155729309Y-102090764D01*
X155518492Y-102070000D01*
X155377508Y-102070000D01*
X155166691Y-102090764D01*
X154896192Y-102172818D01*
X154646899Y-102306068D01*
X154428392Y-102485392D01*
X154249068Y-102703899D01*
X154115818Y-102953192D01*
X154033764Y-103223691D01*
X154006057Y-103505000D01*
X154033764Y-103786309D01*
X154059151Y-103870001D01*
X153028509Y-103870001D01*
X153073000Y-103646335D01*
X153073000Y-103363665D01*
X153017853Y-103086426D01*
X152909680Y-102825273D01*
X152752637Y-102590241D01*
X152552759Y-102390363D01*
X152317727Y-102233320D01*
X152056574Y-102125147D01*
X151779335Y-102070000D01*
X151496665Y-102070000D01*
X151219426Y-102125147D01*
X150958273Y-102233320D01*
X150723241Y-102390363D01*
X150523363Y-102590241D01*
X150366320Y-102825273D01*
X150258147Y-103086426D01*
X150203000Y-103363665D01*
X150203000Y-103646335D01*
X150247491Y-103870001D01*
X146975290Y-103870001D01*
X141530289Y-98425000D01*
X150196057Y-98425000D01*
X150223764Y-98706309D01*
X150305818Y-98976808D01*
X150439068Y-99226101D01*
X150618392Y-99444608D01*
X150836899Y-99623932D01*
X151086192Y-99757182D01*
X151356691Y-99839236D01*
X151567508Y-99860000D01*
X151708492Y-99860000D01*
X151919309Y-99839236D01*
X152189808Y-99757182D01*
X152439101Y-99623932D01*
X152657608Y-99444608D01*
X152836932Y-99226101D01*
X152970182Y-98976808D01*
X153052236Y-98706309D01*
X153079943Y-98425000D01*
X153052236Y-98143691D01*
X152970182Y-97873192D01*
X152836932Y-97623899D01*
X152657608Y-97405392D01*
X152439101Y-97226068D01*
X152189808Y-97092818D01*
X151919309Y-97010764D01*
X151708492Y-96990000D01*
X151567508Y-96990000D01*
X151356691Y-97010764D01*
X151086192Y-97092818D01*
X150836899Y-97226068D01*
X150618392Y-97405392D01*
X150439068Y-97623899D01*
X150305818Y-97873192D01*
X150223764Y-98143691D01*
X150196057Y-98425000D01*
X141530289Y-98425000D01*
X140934264Y-97828975D01*
X140934262Y-97828972D01*
X140804028Y-97698738D01*
X140765642Y-97673089D01*
X140729971Y-97643815D01*
X140689274Y-97622062D01*
X140650889Y-97596414D01*
X140608238Y-97578748D01*
X140567540Y-97556994D01*
X140523377Y-97543597D01*
X140480729Y-97525932D01*
X140435457Y-97516927D01*
X140391291Y-97503529D01*
X140345360Y-97499005D01*
X140300089Y-97490000D01*
X140253932Y-97490000D01*
X140208000Y-97485476D01*
X140162068Y-97490000D01*
X140115911Y-97490000D01*
X140070640Y-97499005D01*
X140024709Y-97503529D01*
X139980543Y-97516927D01*
X139935271Y-97525932D01*
X139892623Y-97543597D01*
X139848460Y-97556994D01*
X139807762Y-97578748D01*
X139765111Y-97596414D01*
X139726726Y-97622062D01*
X139686029Y-97643815D01*
X139650359Y-97673089D01*
X139611972Y-97698738D01*
X139579325Y-97731385D01*
X139543657Y-97760657D01*
X139514385Y-97796325D01*
X139481738Y-97828972D01*
X139456089Y-97867359D01*
X139426815Y-97903029D01*
X139405062Y-97943726D01*
X139379414Y-97982111D01*
X139361748Y-98024762D01*
X139339994Y-98065460D01*
X139326597Y-98109623D01*
X139308932Y-98152271D01*
X139299927Y-98197543D01*
X139286529Y-98241709D01*
X139282005Y-98287640D01*
X139273000Y-98332911D01*
X139273000Y-98379068D01*
X139268476Y-98425000D01*
X139273000Y-98470932D01*
X139273000Y-98517089D01*
X139282005Y-98562360D01*
X139286529Y-98608291D01*
X139299927Y-98652457D01*
X139308932Y-98697729D01*
X139326597Y-98740377D01*
X139339994Y-98784540D01*
X139361748Y-98825238D01*
X139379414Y-98867889D01*
X139405062Y-98906274D01*
X139426815Y-98946971D01*
X139456089Y-98982642D01*
X139481738Y-99021028D01*
X139611972Y-99151262D01*
X139611975Y-99151264D01*
X145894371Y-105433660D01*
X145923657Y-105469345D01*
X146066029Y-105586187D01*
X146228461Y-105673008D01*
X146404709Y-105726472D01*
X146588001Y-105744525D01*
X146633933Y-105740001D01*
X153820712Y-105740001D01*
X154754374Y-106673664D01*
X154783656Y-106709344D01*
X154926028Y-106826186D01*
X155088460Y-106913007D01*
X155165808Y-106936470D01*
X155264707Y-106966471D01*
X155447999Y-106984524D01*
X155493931Y-106980000D01*
X163022068Y-106980000D01*
X163068000Y-106984524D01*
X163113932Y-106980000D01*
X163251292Y-106966471D01*
X163427540Y-106913007D01*
X163589972Y-106826186D01*
X163732344Y-106709344D01*
X163761630Y-106673659D01*
X168483000Y-101952289D01*
X168483000Y-102501712D01*
X157991787Y-112992926D01*
X157954671Y-112923486D01*
X157710702Y-112851903D01*
X156897605Y-113665000D01*
X156911748Y-113679143D01*
X156732143Y-113858748D01*
X156718000Y-113844605D01*
X155904903Y-114657702D01*
X155976486Y-114901671D01*
X156048817Y-114935896D01*
X154444713Y-116540000D01*
X143925911Y-116540000D01*
X143880641Y-116549005D01*
X143834708Y-116553529D01*
X143790538Y-116566928D01*
X143745271Y-116575932D01*
X143702631Y-116593594D01*
X143658460Y-116606993D01*
X143617752Y-116628752D01*
X143575111Y-116646414D01*
X143536736Y-116672055D01*
X143496028Y-116693814D01*
X143460347Y-116723097D01*
X143421972Y-116748738D01*
X143389335Y-116781375D01*
X143353656Y-116810656D01*
X143324376Y-116846334D01*
X143291738Y-116878972D01*
X143266097Y-116917347D01*
X143236814Y-116953028D01*
X143215055Y-116993736D01*
X143189414Y-117032111D01*
X143171752Y-117074752D01*
X143149993Y-117115460D01*
X143136594Y-117159631D01*
X143118932Y-117202271D01*
X143109928Y-117247538D01*
X143096529Y-117291708D01*
X143092005Y-117337641D01*
X143083000Y-117382911D01*
X143083000Y-117429068D01*
X143078476Y-117475000D01*
X143083000Y-117520932D01*
X143083000Y-117567089D01*
X143092005Y-117612359D01*
X143096529Y-117658292D01*
X143109928Y-117702462D01*
X143118932Y-117747729D01*
X143136594Y-117790369D01*
X143149993Y-117834540D01*
X143171752Y-117875248D01*
X143189414Y-117917889D01*
X143215055Y-117956264D01*
X143236814Y-117996972D01*
X143266097Y-118032653D01*
X143291738Y-118071028D01*
X143324375Y-118103665D01*
X143353656Y-118139344D01*
X143389335Y-118168625D01*
X143421972Y-118201262D01*
X143460347Y-118226903D01*
X143496028Y-118256186D01*
X143536736Y-118277945D01*
X143575111Y-118303586D01*
X143617752Y-118321248D01*
X143658460Y-118343007D01*
X143702631Y-118356406D01*
X143745271Y-118374068D01*
X143790538Y-118383072D01*
X143834708Y-118396471D01*
X143880641Y-118400995D01*
X143925911Y-118410000D01*
X154786070Y-118410000D01*
X154832002Y-118414524D01*
X154877934Y-118410000D01*
X155015294Y-118396471D01*
X155191542Y-118343007D01*
X155353974Y-118256186D01*
X155496346Y-118139344D01*
X155525632Y-118103659D01*
X169427451Y-104201841D01*
X169451329Y-104246514D01*
X169695298Y-104318097D01*
X170508395Y-103505000D01*
X170494253Y-103490858D01*
X170673858Y-103311253D01*
X170688000Y-103325395D01*
X170702143Y-103311253D01*
X170881748Y-103490858D01*
X170867605Y-103505000D01*
X170881748Y-103519143D01*
X170702143Y-103698748D01*
X170688000Y-103684605D01*
X169874903Y-104497702D01*
X169946486Y-104741671D01*
X170201996Y-104862571D01*
X170476184Y-104931300D01*
X170758512Y-104945217D01*
X171038130Y-104903787D01*
X171053001Y-104898469D01*
X171053001Y-105627709D01*
X157570710Y-119110001D01*
X139056849Y-119110001D01*
X139082236Y-119026309D01*
X139109943Y-118745000D01*
X139082236Y-118463691D01*
X139000182Y-118193192D01*
X138866932Y-117943899D01*
X138687608Y-117725392D01*
X138469101Y-117546068D01*
X138219808Y-117412818D01*
X137949309Y-117330764D01*
X137738492Y-117310000D01*
X137597508Y-117310000D01*
X137386691Y-117330764D01*
X137116192Y-117412818D01*
X136866899Y-117546068D01*
X136648392Y-117725392D01*
X136469068Y-117943899D01*
X136335818Y-118193192D01*
X136253764Y-118463691D01*
X136226057Y-118745000D01*
X136253764Y-119026309D01*
X136279151Y-119110001D01*
X132525912Y-119110001D01*
X132480642Y-119119006D01*
X132434709Y-119123530D01*
X132390539Y-119136929D01*
X132345272Y-119145933D01*
X132302632Y-119163595D01*
X132258461Y-119176994D01*
X132217753Y-119198753D01*
X132175112Y-119216415D01*
X132136737Y-119242056D01*
X132096029Y-119263815D01*
X132060348Y-119293098D01*
X132021973Y-119318739D01*
X131989336Y-119351376D01*
X131953657Y-119380657D01*
X131924377Y-119416335D01*
X131891739Y-119448973D01*
X131866098Y-119487348D01*
X131836815Y-119523029D01*
X131815056Y-119563737D01*
X131789415Y-119602112D01*
X131771753Y-119644753D01*
X131749994Y-119685461D01*
X131736595Y-119729632D01*
X131718933Y-119772272D01*
X131709929Y-119817539D01*
X131696530Y-119861709D01*
X131692006Y-119907642D01*
X131683001Y-119952912D01*
X131683001Y-119999069D01*
X131678477Y-120045001D01*
X131683001Y-120090933D01*
X131683001Y-120137090D01*
X131692006Y-120182360D01*
X131696530Y-120228293D01*
X131709929Y-120272463D01*
X131718933Y-120317730D01*
X131736595Y-120360370D01*
X131749994Y-120404541D01*
X131771753Y-120445249D01*
X131789415Y-120487890D01*
X131815056Y-120526265D01*
X131836815Y-120566973D01*
X131866098Y-120602654D01*
X131891739Y-120641029D01*
X131924376Y-120673666D01*
X131953657Y-120709345D01*
X131989336Y-120738626D01*
X132021973Y-120771263D01*
X132060348Y-120796904D01*
X132096029Y-120826187D01*
X132136737Y-120847946D01*
X132175112Y-120873587D01*
X132217753Y-120891249D01*
X132258461Y-120913008D01*
X132302632Y-120926407D01*
X132345272Y-120944069D01*
X132390539Y-120953073D01*
X132434709Y-120966472D01*
X132480642Y-120970996D01*
X132525912Y-120980001D01*
X157912067Y-120980001D01*
X157957999Y-120984525D01*
X158003931Y-120980001D01*
X158141291Y-120966472D01*
X158317539Y-120913008D01*
X158479971Y-120826187D01*
X158622343Y-120709345D01*
X158651629Y-120673660D01*
X172616667Y-106708623D01*
X172652345Y-106679343D01*
X172769187Y-106536971D01*
X172856008Y-106374539D01*
X172909472Y-106198291D01*
X172923001Y-106060931D01*
X172923001Y-106060930D01*
X172927525Y-106015000D01*
X172923001Y-105969068D01*
X172923001Y-78333332D01*
X172927525Y-78287400D01*
X172922068Y-78232000D01*
X174371000Y-78232000D01*
X174371000Y-121158000D01*
X112395000Y-121158000D01*
X112395000Y-114935000D01*
X114687388Y-114935000D01*
X114709785Y-115162400D01*
X114776115Y-115381060D01*
X114877105Y-115570000D01*
X114776115Y-115758940D01*
X114709785Y-115977600D01*
X114687388Y-116205000D01*
X114709785Y-116432400D01*
X114773093Y-116641098D01*
X114738498Y-116705820D01*
X114702188Y-116825518D01*
X114689928Y-116950000D01*
X114689928Y-118000000D01*
X114702188Y-118124482D01*
X114738498Y-118244180D01*
X114797463Y-118354494D01*
X114876815Y-118451185D01*
X114973506Y-118530537D01*
X115083820Y-118589502D01*
X115203518Y-118625812D01*
X115328000Y-118638072D01*
X116828000Y-118638072D01*
X116952482Y-118625812D01*
X117025490Y-118603665D01*
X120993000Y-118603665D01*
X120993000Y-118886335D01*
X121048147Y-119163574D01*
X121156320Y-119424727D01*
X121313363Y-119659759D01*
X121513241Y-119859637D01*
X121748273Y-120016680D01*
X122009426Y-120124853D01*
X122286665Y-120180000D01*
X122569335Y-120180000D01*
X122846574Y-120124853D01*
X123107727Y-120016680D01*
X123342759Y-119859637D01*
X123542637Y-119659759D01*
X123699680Y-119424727D01*
X123807853Y-119163574D01*
X123863000Y-118886335D01*
X123863000Y-118603665D01*
X123807853Y-118326426D01*
X123699680Y-118065273D01*
X123542637Y-117830241D01*
X123342759Y-117630363D01*
X123107727Y-117473320D01*
X122846574Y-117365147D01*
X122569335Y-117310000D01*
X122286665Y-117310000D01*
X122009426Y-117365147D01*
X121748273Y-117473320D01*
X121513241Y-117630363D01*
X121313363Y-117830241D01*
X121156320Y-118065273D01*
X121048147Y-118326426D01*
X120993000Y-118603665D01*
X117025490Y-118603665D01*
X117072180Y-118589502D01*
X117182494Y-118530537D01*
X117279185Y-118451185D01*
X117358537Y-118354494D01*
X117417502Y-118244180D01*
X117453812Y-118124482D01*
X117466072Y-118000000D01*
X117466072Y-116950000D01*
X117453812Y-116825518D01*
X117417502Y-116705820D01*
X117382907Y-116641098D01*
X117446215Y-116432400D01*
X117468612Y-116205000D01*
X117446215Y-115977600D01*
X117379885Y-115758940D01*
X117278895Y-115570000D01*
X117379885Y-115381060D01*
X117446215Y-115162400D01*
X117468612Y-114935000D01*
X117446215Y-114707600D01*
X117379885Y-114488940D01*
X117272171Y-114287421D01*
X117127212Y-114110788D01*
X116950579Y-113965829D01*
X116749060Y-113858115D01*
X116530400Y-113791785D01*
X116359979Y-113775000D01*
X115796021Y-113775000D01*
X115625600Y-113791785D01*
X115406940Y-113858115D01*
X115205421Y-113965829D01*
X115028788Y-114110788D01*
X114883829Y-114287421D01*
X114776115Y-114488940D01*
X114709785Y-114707600D01*
X114687388Y-114935000D01*
X112395000Y-114935000D01*
X112395000Y-113665000D01*
X120986057Y-113665000D01*
X121013764Y-113946309D01*
X121095818Y-114216808D01*
X121229068Y-114466101D01*
X121408392Y-114684608D01*
X121626899Y-114863932D01*
X121876192Y-114997182D01*
X122146691Y-115079236D01*
X122357508Y-115100000D01*
X122498492Y-115100000D01*
X122709309Y-115079236D01*
X122979808Y-114997182D01*
X123229101Y-114863932D01*
X123447608Y-114684608D01*
X123626932Y-114466101D01*
X123760182Y-114216808D01*
X123842236Y-113946309D01*
X123869943Y-113665000D01*
X123856023Y-113523665D01*
X136233000Y-113523665D01*
X136233000Y-113806335D01*
X136288147Y-114083574D01*
X136396320Y-114344727D01*
X136553363Y-114579759D01*
X136753241Y-114779637D01*
X136988273Y-114936680D01*
X137249426Y-115044853D01*
X137526665Y-115100000D01*
X137809335Y-115100000D01*
X138086574Y-115044853D01*
X138347727Y-114936680D01*
X138582759Y-114779637D01*
X138782637Y-114579759D01*
X138939680Y-114344727D01*
X139047853Y-114083574D01*
X139103000Y-113806335D01*
X139103000Y-113665000D01*
X140036057Y-113665000D01*
X140063764Y-113946309D01*
X140145818Y-114216808D01*
X140279068Y-114466101D01*
X140458392Y-114684608D01*
X140676899Y-114863932D01*
X140926192Y-114997182D01*
X141196691Y-115079236D01*
X141407508Y-115100000D01*
X141548492Y-115100000D01*
X141759309Y-115079236D01*
X142029808Y-114997182D01*
X142279101Y-114863932D01*
X142497608Y-114684608D01*
X142676932Y-114466101D01*
X142810182Y-114216808D01*
X142892236Y-113946309D01*
X142912998Y-113735512D01*
X155277783Y-113735512D01*
X155319213Y-114015130D01*
X155414397Y-114281292D01*
X155481329Y-114406514D01*
X155725298Y-114478097D01*
X156538395Y-113665000D01*
X155725298Y-112851903D01*
X155481329Y-112923486D01*
X155360429Y-113178996D01*
X155291700Y-113453184D01*
X155277783Y-113735512D01*
X142912998Y-113735512D01*
X142919943Y-113665000D01*
X142892236Y-113383691D01*
X142810182Y-113113192D01*
X142676932Y-112863899D01*
X142519690Y-112672298D01*
X155904903Y-112672298D01*
X156718000Y-113485395D01*
X157531097Y-112672298D01*
X157459514Y-112428329D01*
X157204004Y-112307429D01*
X156929816Y-112238700D01*
X156647488Y-112224783D01*
X156367870Y-112266213D01*
X156101708Y-112361397D01*
X155976486Y-112428329D01*
X155904903Y-112672298D01*
X142519690Y-112672298D01*
X142497608Y-112645392D01*
X142279101Y-112466068D01*
X142029808Y-112332818D01*
X141759309Y-112250764D01*
X141548492Y-112230000D01*
X141407508Y-112230000D01*
X141196691Y-112250764D01*
X140926192Y-112332818D01*
X140676899Y-112466068D01*
X140458392Y-112645392D01*
X140279068Y-112863899D01*
X140145818Y-113113192D01*
X140063764Y-113383691D01*
X140036057Y-113665000D01*
X139103000Y-113665000D01*
X139103000Y-113523665D01*
X139047853Y-113246426D01*
X138939680Y-112985273D01*
X138782637Y-112750241D01*
X138582759Y-112550363D01*
X138347727Y-112393320D01*
X138086574Y-112285147D01*
X137809335Y-112230000D01*
X137526665Y-112230000D01*
X137249426Y-112285147D01*
X136988273Y-112393320D01*
X136753241Y-112550363D01*
X136553363Y-112750241D01*
X136396320Y-112985273D01*
X136288147Y-113246426D01*
X136233000Y-113523665D01*
X123856023Y-113523665D01*
X123842236Y-113383691D01*
X123760182Y-113113192D01*
X123626932Y-112863899D01*
X123447608Y-112645392D01*
X123229101Y-112466068D01*
X122979808Y-112332818D01*
X122709309Y-112250764D01*
X122498492Y-112230000D01*
X122357508Y-112230000D01*
X122146691Y-112250764D01*
X121876192Y-112332818D01*
X121626899Y-112466068D01*
X121408392Y-112645392D01*
X121229068Y-112863899D01*
X121095818Y-113113192D01*
X121013764Y-113383691D01*
X120986057Y-113665000D01*
X112395000Y-113665000D01*
X112395000Y-90805000D01*
X120935815Y-90805000D01*
X120964487Y-91096111D01*
X121049401Y-91376034D01*
X121187294Y-91634014D01*
X121372866Y-91860134D01*
X121598986Y-92045706D01*
X121653791Y-92075000D01*
X121598986Y-92104294D01*
X121372866Y-92289866D01*
X121187294Y-92515986D01*
X121049401Y-92773966D01*
X120964487Y-93053889D01*
X120935815Y-93345000D01*
X120964487Y-93636111D01*
X121049401Y-93916034D01*
X121187294Y-94174014D01*
X121372866Y-94400134D01*
X121598986Y-94585706D01*
X121653791Y-94615000D01*
X121598986Y-94644294D01*
X121372866Y-94829866D01*
X121187294Y-95055986D01*
X121049401Y-95313966D01*
X120964487Y-95593889D01*
X120935815Y-95885000D01*
X120964487Y-96176111D01*
X121049401Y-96456034D01*
X121187294Y-96714014D01*
X121372866Y-96940134D01*
X121598986Y-97125706D01*
X121653791Y-97155000D01*
X121598986Y-97184294D01*
X121372866Y-97369866D01*
X121187294Y-97595986D01*
X121049401Y-97853966D01*
X120964487Y-98133889D01*
X120935815Y-98425000D01*
X120964487Y-98716111D01*
X121049401Y-98996034D01*
X121187294Y-99254014D01*
X121372866Y-99480134D01*
X121598986Y-99665706D01*
X121653791Y-99695000D01*
X121598986Y-99724294D01*
X121372866Y-99909866D01*
X121187294Y-100135986D01*
X121049401Y-100393966D01*
X120964487Y-100673889D01*
X120935815Y-100965000D01*
X120964487Y-101256111D01*
X121049401Y-101536034D01*
X121187294Y-101794014D01*
X121372866Y-102020134D01*
X121598986Y-102205706D01*
X121653791Y-102235000D01*
X121598986Y-102264294D01*
X121372866Y-102449866D01*
X121187294Y-102675986D01*
X121049401Y-102933966D01*
X120964487Y-103213889D01*
X120935815Y-103505000D01*
X120964487Y-103796111D01*
X121049401Y-104076034D01*
X121187294Y-104334014D01*
X121372866Y-104560134D01*
X121598986Y-104745706D01*
X121653791Y-104775000D01*
X121598986Y-104804294D01*
X121372866Y-104989866D01*
X121187294Y-105215986D01*
X121049401Y-105473966D01*
X120964487Y-105753889D01*
X120935815Y-106045000D01*
X120964487Y-106336111D01*
X121049401Y-106616034D01*
X121187294Y-106874014D01*
X121372866Y-107100134D01*
X121402687Y-107124607D01*
X121333820Y-107145498D01*
X121223506Y-107204463D01*
X121126815Y-107283815D01*
X121047463Y-107380506D01*
X120988498Y-107490820D01*
X120952188Y-107610518D01*
X120939928Y-107735000D01*
X120939928Y-109435000D01*
X120952188Y-109559482D01*
X120988498Y-109679180D01*
X121047463Y-109789494D01*
X121126815Y-109886185D01*
X121223506Y-109965537D01*
X121333820Y-110024502D01*
X121453518Y-110060812D01*
X121578000Y-110073072D01*
X123278000Y-110073072D01*
X123402482Y-110060812D01*
X123522180Y-110024502D01*
X123632494Y-109965537D01*
X123729185Y-109886185D01*
X123808537Y-109789494D01*
X123867502Y-109679180D01*
X123903812Y-109559482D01*
X123916072Y-109435000D01*
X123916072Y-108443665D01*
X134963000Y-108443665D01*
X134963000Y-108726335D01*
X135018147Y-109003574D01*
X135126320Y-109264727D01*
X135283363Y-109499759D01*
X135483241Y-109699637D01*
X135718273Y-109856680D01*
X135979426Y-109964853D01*
X136256665Y-110020000D01*
X136539335Y-110020000D01*
X136816574Y-109964853D01*
X137077727Y-109856680D01*
X137312759Y-109699637D01*
X137512637Y-109499759D01*
X137669680Y-109264727D01*
X137777853Y-109003574D01*
X137833000Y-108726335D01*
X137833000Y-108585000D01*
X150196057Y-108585000D01*
X150223764Y-108866309D01*
X150305818Y-109136808D01*
X150439068Y-109386101D01*
X150618392Y-109604608D01*
X150836899Y-109783932D01*
X151086192Y-109917182D01*
X151356691Y-109999236D01*
X151567508Y-110020000D01*
X151708492Y-110020000D01*
X151919309Y-109999236D01*
X152189808Y-109917182D01*
X152439101Y-109783932D01*
X152657608Y-109604608D01*
X152836932Y-109386101D01*
X152970182Y-109136808D01*
X153052236Y-108866309D01*
X153079943Y-108585000D01*
X153052236Y-108303691D01*
X152970182Y-108033192D01*
X152836932Y-107783899D01*
X152657608Y-107565392D01*
X152439101Y-107386068D01*
X152189808Y-107252818D01*
X151919309Y-107170764D01*
X151708492Y-107150000D01*
X151567508Y-107150000D01*
X151356691Y-107170764D01*
X151086192Y-107252818D01*
X150836899Y-107386068D01*
X150618392Y-107565392D01*
X150439068Y-107783899D01*
X150305818Y-108033192D01*
X150223764Y-108303691D01*
X150196057Y-108585000D01*
X137833000Y-108585000D01*
X137833000Y-108443665D01*
X137777853Y-108166426D01*
X137669680Y-107905273D01*
X137512637Y-107670241D01*
X137312759Y-107470363D01*
X137077727Y-107313320D01*
X136816574Y-107205147D01*
X136539335Y-107150000D01*
X136256665Y-107150000D01*
X135979426Y-107205147D01*
X135718273Y-107313320D01*
X135483241Y-107470363D01*
X135283363Y-107670241D01*
X135126320Y-107905273D01*
X135018147Y-108166426D01*
X134963000Y-108443665D01*
X123916072Y-108443665D01*
X123916072Y-107735000D01*
X123903812Y-107610518D01*
X123867502Y-107490820D01*
X123808537Y-107380506D01*
X123729185Y-107283815D01*
X123632494Y-107204463D01*
X123522180Y-107145498D01*
X123453313Y-107124607D01*
X123483134Y-107100134D01*
X123668706Y-106874014D01*
X123806599Y-106616034D01*
X123891513Y-106336111D01*
X123920185Y-106045000D01*
X123891513Y-105753889D01*
X123806599Y-105473966D01*
X123668706Y-105215986D01*
X123483134Y-104989866D01*
X123257014Y-104804294D01*
X123202209Y-104775000D01*
X128657388Y-104775000D01*
X128679785Y-105002400D01*
X128746115Y-105221060D01*
X128847105Y-105410000D01*
X128746115Y-105598940D01*
X128679785Y-105817600D01*
X128657388Y-106045000D01*
X128679785Y-106272400D01*
X128746115Y-106491060D01*
X128853829Y-106692579D01*
X128998788Y-106869212D01*
X129175421Y-107014171D01*
X129376940Y-107121885D01*
X129595600Y-107188215D01*
X129766021Y-107205000D01*
X130329979Y-107205000D01*
X130500400Y-107188215D01*
X130719060Y-107121885D01*
X130920579Y-107014171D01*
X131097212Y-106869212D01*
X131242171Y-106692579D01*
X131349885Y-106491060D01*
X131416215Y-106272400D01*
X131438612Y-106045000D01*
X131416215Y-105817600D01*
X131349885Y-105598940D01*
X131248895Y-105410000D01*
X131349885Y-105221060D01*
X131416215Y-105002400D01*
X131438612Y-104775000D01*
X131416215Y-104547600D01*
X131352907Y-104338902D01*
X131387502Y-104274180D01*
X131423812Y-104154482D01*
X131436072Y-104030000D01*
X131436072Y-103505000D01*
X134956057Y-103505000D01*
X134983764Y-103786309D01*
X135065818Y-104056808D01*
X135199068Y-104306101D01*
X135378392Y-104524608D01*
X135596899Y-104703932D01*
X135846192Y-104837182D01*
X136116691Y-104919236D01*
X136327508Y-104940000D01*
X136468492Y-104940000D01*
X136679309Y-104919236D01*
X136949808Y-104837182D01*
X137199101Y-104703932D01*
X137417608Y-104524608D01*
X137596932Y-104306101D01*
X137730182Y-104056808D01*
X137812236Y-103786309D01*
X137839943Y-103505000D01*
X137812236Y-103223691D01*
X137730182Y-102953192D01*
X137596932Y-102703899D01*
X137417608Y-102485392D01*
X137199101Y-102306068D01*
X136949808Y-102172818D01*
X136679309Y-102090764D01*
X136468492Y-102070000D01*
X136327508Y-102070000D01*
X136116691Y-102090764D01*
X135846192Y-102172818D01*
X135596899Y-102306068D01*
X135378392Y-102485392D01*
X135199068Y-102703899D01*
X135065818Y-102953192D01*
X134983764Y-103223691D01*
X134956057Y-103505000D01*
X131436072Y-103505000D01*
X131436072Y-102980000D01*
X131423812Y-102855518D01*
X131387502Y-102735820D01*
X131328537Y-102625506D01*
X131249185Y-102528815D01*
X131152494Y-102449463D01*
X131042180Y-102390498D01*
X130922482Y-102354188D01*
X130798000Y-102341928D01*
X129298000Y-102341928D01*
X129173518Y-102354188D01*
X129053820Y-102390498D01*
X128943506Y-102449463D01*
X128846815Y-102528815D01*
X128767463Y-102625506D01*
X128708498Y-102735820D01*
X128672188Y-102855518D01*
X128659928Y-102980000D01*
X128659928Y-104030000D01*
X128672188Y-104154482D01*
X128708498Y-104274180D01*
X128743093Y-104338902D01*
X128679785Y-104547600D01*
X128657388Y-104775000D01*
X123202209Y-104775000D01*
X123257014Y-104745706D01*
X123483134Y-104560134D01*
X123668706Y-104334014D01*
X123806599Y-104076034D01*
X123891513Y-103796111D01*
X123920185Y-103505000D01*
X123891513Y-103213889D01*
X123806599Y-102933966D01*
X123668706Y-102675986D01*
X123483134Y-102449866D01*
X123257014Y-102264294D01*
X123202209Y-102235000D01*
X123257014Y-102205706D01*
X123483134Y-102020134D01*
X123668706Y-101794014D01*
X123806599Y-101536034D01*
X123891513Y-101256111D01*
X123920185Y-100965000D01*
X123891513Y-100673889D01*
X123806599Y-100393966D01*
X123668706Y-100135986D01*
X123483134Y-99909866D01*
X123257014Y-99724294D01*
X123202209Y-99695000D01*
X123257014Y-99665706D01*
X123483134Y-99480134D01*
X123668706Y-99254014D01*
X123806599Y-98996034D01*
X123891513Y-98716111D01*
X123920185Y-98425000D01*
X123891513Y-98133889D01*
X123806599Y-97853966D01*
X123668706Y-97595986D01*
X123483134Y-97369866D01*
X123257014Y-97184294D01*
X123202209Y-97155000D01*
X123257014Y-97125706D01*
X123483134Y-96940134D01*
X123668706Y-96714014D01*
X123806599Y-96456034D01*
X123891513Y-96176111D01*
X123920185Y-95885000D01*
X128657388Y-95885000D01*
X128679785Y-96112400D01*
X128746115Y-96331060D01*
X128847105Y-96520000D01*
X128746115Y-96708940D01*
X128679785Y-96927600D01*
X128657388Y-97155000D01*
X128679785Y-97382400D01*
X128746115Y-97601060D01*
X128853829Y-97802579D01*
X128998788Y-97979212D01*
X129175421Y-98124171D01*
X129376940Y-98231885D01*
X129595600Y-98298215D01*
X129766021Y-98315000D01*
X130329979Y-98315000D01*
X130500400Y-98298215D01*
X130548364Y-98283665D01*
X134963000Y-98283665D01*
X134963000Y-98566335D01*
X135018147Y-98843574D01*
X135126320Y-99104727D01*
X135283363Y-99339759D01*
X135483241Y-99539637D01*
X135718273Y-99696680D01*
X135979426Y-99804853D01*
X136256665Y-99860000D01*
X136539335Y-99860000D01*
X136816574Y-99804853D01*
X137077727Y-99696680D01*
X137312759Y-99539637D01*
X137512637Y-99339759D01*
X137669680Y-99104727D01*
X137777853Y-98843574D01*
X137833000Y-98566335D01*
X137833000Y-98283665D01*
X137777853Y-98006426D01*
X137669680Y-97745273D01*
X137512637Y-97510241D01*
X137312759Y-97310363D01*
X137077727Y-97153320D01*
X136816574Y-97045147D01*
X136539335Y-96990000D01*
X136256665Y-96990000D01*
X135979426Y-97045147D01*
X135718273Y-97153320D01*
X135483241Y-97310363D01*
X135283363Y-97510241D01*
X135126320Y-97745273D01*
X135018147Y-98006426D01*
X134963000Y-98283665D01*
X130548364Y-98283665D01*
X130719060Y-98231885D01*
X130920579Y-98124171D01*
X131097212Y-97979212D01*
X131242171Y-97802579D01*
X131349885Y-97601060D01*
X131416215Y-97382400D01*
X131438612Y-97155000D01*
X131416215Y-96927600D01*
X131349885Y-96708940D01*
X131248895Y-96520000D01*
X131349885Y-96331060D01*
X131416215Y-96112400D01*
X131438612Y-95885000D01*
X131416215Y-95657600D01*
X131352907Y-95448902D01*
X131387502Y-95384180D01*
X131423812Y-95264482D01*
X131436072Y-95140000D01*
X131436072Y-94090000D01*
X131423812Y-93965518D01*
X131387502Y-93845820D01*
X131328537Y-93735506D01*
X131249185Y-93638815D01*
X131152494Y-93559463D01*
X131042180Y-93500498D01*
X130922482Y-93464188D01*
X130798000Y-93451928D01*
X129298000Y-93451928D01*
X129173518Y-93464188D01*
X129053820Y-93500498D01*
X128943506Y-93559463D01*
X128846815Y-93638815D01*
X128767463Y-93735506D01*
X128708498Y-93845820D01*
X128672188Y-93965518D01*
X128659928Y-94090000D01*
X128659928Y-95140000D01*
X128672188Y-95264482D01*
X128708498Y-95384180D01*
X128743093Y-95448902D01*
X128679785Y-95657600D01*
X128657388Y-95885000D01*
X123920185Y-95885000D01*
X123891513Y-95593889D01*
X123806599Y-95313966D01*
X123668706Y-95055986D01*
X123483134Y-94829866D01*
X123257014Y-94644294D01*
X123202209Y-94615000D01*
X123257014Y-94585706D01*
X123483134Y-94400134D01*
X123668706Y-94174014D01*
X123806599Y-93916034D01*
X123891513Y-93636111D01*
X123920185Y-93345000D01*
X123906265Y-93203665D01*
X134963000Y-93203665D01*
X134963000Y-93486335D01*
X135018147Y-93763574D01*
X135126320Y-94024727D01*
X135283363Y-94259759D01*
X135483241Y-94459637D01*
X135718273Y-94616680D01*
X135979426Y-94724853D01*
X136256665Y-94780000D01*
X136539335Y-94780000D01*
X136816574Y-94724853D01*
X137077727Y-94616680D01*
X137312759Y-94459637D01*
X137512637Y-94259759D01*
X137669680Y-94024727D01*
X137777853Y-93763574D01*
X137833000Y-93486335D01*
X137833000Y-93345000D01*
X150196057Y-93345000D01*
X150223764Y-93626309D01*
X150305818Y-93896808D01*
X150439068Y-94146101D01*
X150618392Y-94364608D01*
X150836899Y-94543932D01*
X151086192Y-94677182D01*
X151356691Y-94759236D01*
X151567508Y-94780000D01*
X151708492Y-94780000D01*
X151919309Y-94759236D01*
X152189808Y-94677182D01*
X152439101Y-94543932D01*
X152657608Y-94364608D01*
X152836932Y-94146101D01*
X152970182Y-93896808D01*
X153052236Y-93626309D01*
X153079943Y-93345000D01*
X154006057Y-93345000D01*
X154033764Y-93626309D01*
X154115818Y-93896808D01*
X154249068Y-94146101D01*
X154428392Y-94364608D01*
X154646899Y-94543932D01*
X154896192Y-94677182D01*
X155166691Y-94759236D01*
X155377508Y-94780000D01*
X155518492Y-94780000D01*
X155729309Y-94759236D01*
X155999808Y-94677182D01*
X156249101Y-94543932D01*
X156467608Y-94364608D01*
X156646932Y-94146101D01*
X156780182Y-93896808D01*
X156862236Y-93626309D01*
X156889943Y-93345000D01*
X156862236Y-93063691D01*
X156780182Y-92793192D01*
X156646932Y-92543899D01*
X156467608Y-92325392D01*
X156249101Y-92146068D01*
X155999808Y-92012818D01*
X155729309Y-91930764D01*
X155518492Y-91910000D01*
X155377508Y-91910000D01*
X155166691Y-91930764D01*
X154896192Y-92012818D01*
X154646899Y-92146068D01*
X154428392Y-92325392D01*
X154249068Y-92543899D01*
X154115818Y-92793192D01*
X154033764Y-93063691D01*
X154006057Y-93345000D01*
X153079943Y-93345000D01*
X153052236Y-93063691D01*
X152970182Y-92793192D01*
X152836932Y-92543899D01*
X152657608Y-92325392D01*
X152439101Y-92146068D01*
X152189808Y-92012818D01*
X151919309Y-91930764D01*
X151708492Y-91910000D01*
X151567508Y-91910000D01*
X151356691Y-91930764D01*
X151086192Y-92012818D01*
X150836899Y-92146068D01*
X150618392Y-92325392D01*
X150439068Y-92543899D01*
X150305818Y-92793192D01*
X150223764Y-93063691D01*
X150196057Y-93345000D01*
X137833000Y-93345000D01*
X137833000Y-93203665D01*
X137777853Y-92926426D01*
X137669680Y-92665273D01*
X137512637Y-92430241D01*
X137312759Y-92230363D01*
X137077727Y-92073320D01*
X136816574Y-91965147D01*
X136539335Y-91910000D01*
X136256665Y-91910000D01*
X135979426Y-91965147D01*
X135718273Y-92073320D01*
X135483241Y-92230363D01*
X135283363Y-92430241D01*
X135126320Y-92665273D01*
X135018147Y-92926426D01*
X134963000Y-93203665D01*
X123906265Y-93203665D01*
X123891513Y-93053889D01*
X123806599Y-92773966D01*
X123668706Y-92515986D01*
X123483134Y-92289866D01*
X123257014Y-92104294D01*
X123202209Y-92075000D01*
X123257014Y-92045706D01*
X123483134Y-91860134D01*
X123668706Y-91634014D01*
X123806599Y-91376034D01*
X123891513Y-91096111D01*
X123920185Y-90805000D01*
X123891513Y-90513889D01*
X123806599Y-90233966D01*
X123668706Y-89975986D01*
X123483134Y-89749866D01*
X123257014Y-89564294D01*
X123192477Y-89529799D01*
X123309355Y-89460178D01*
X123525588Y-89265269D01*
X123699641Y-89031920D01*
X123824825Y-88769099D01*
X123869476Y-88621890D01*
X123748155Y-88392000D01*
X122555000Y-88392000D01*
X122555000Y-88412000D01*
X122301000Y-88412000D01*
X122301000Y-88392000D01*
X121107845Y-88392000D01*
X120986524Y-88621890D01*
X121031175Y-88769099D01*
X121156359Y-89031920D01*
X121330412Y-89265269D01*
X121546645Y-89460178D01*
X121663523Y-89529799D01*
X121598986Y-89564294D01*
X121372866Y-89749866D01*
X121187294Y-89975986D01*
X121049401Y-90233966D01*
X120964487Y-90513889D01*
X120935815Y-90805000D01*
X112395000Y-90805000D01*
X112395000Y-86081890D01*
X120986524Y-86081890D01*
X121031175Y-86229099D01*
X121156359Y-86491920D01*
X121330412Y-86725269D01*
X121546645Y-86920178D01*
X121672255Y-86995000D01*
X121546645Y-87069822D01*
X121330412Y-87264731D01*
X121156359Y-87498080D01*
X121031175Y-87760901D01*
X120986524Y-87908110D01*
X121107845Y-88138000D01*
X122301000Y-88138000D01*
X122301000Y-85852000D01*
X122555000Y-85852000D01*
X122555000Y-88138000D01*
X123748155Y-88138000D01*
X123869476Y-87908110D01*
X123824825Y-87760901D01*
X123699641Y-87498080D01*
X123525588Y-87264731D01*
X123309355Y-87069822D01*
X123183745Y-86995000D01*
X128657388Y-86995000D01*
X128679785Y-87222400D01*
X128746115Y-87441060D01*
X128847105Y-87630000D01*
X128746115Y-87818940D01*
X128679785Y-88037600D01*
X128657388Y-88265000D01*
X128679785Y-88492400D01*
X128746115Y-88711060D01*
X128853829Y-88912579D01*
X128998788Y-89089212D01*
X129175421Y-89234171D01*
X129376940Y-89341885D01*
X129595600Y-89408215D01*
X129766021Y-89425000D01*
X130329979Y-89425000D01*
X130500400Y-89408215D01*
X130719060Y-89341885D01*
X130920579Y-89234171D01*
X131097212Y-89089212D01*
X131242171Y-88912579D01*
X131349885Y-88711060D01*
X131416215Y-88492400D01*
X131438612Y-88265000D01*
X131424692Y-88123665D01*
X134963000Y-88123665D01*
X134963000Y-88406335D01*
X135018147Y-88683574D01*
X135126320Y-88944727D01*
X135283363Y-89179759D01*
X135483241Y-89379637D01*
X135718273Y-89536680D01*
X135979426Y-89644853D01*
X136256665Y-89700000D01*
X136539335Y-89700000D01*
X136816574Y-89644853D01*
X137077727Y-89536680D01*
X137312759Y-89379637D01*
X137512637Y-89179759D01*
X137669680Y-88944727D01*
X137777853Y-88683574D01*
X137833000Y-88406335D01*
X137833000Y-88123665D01*
X137777853Y-87846426D01*
X137669680Y-87585273D01*
X137512637Y-87350241D01*
X137312759Y-87150363D01*
X137077727Y-86993320D01*
X136816574Y-86885147D01*
X136539335Y-86830000D01*
X136256665Y-86830000D01*
X135979426Y-86885147D01*
X135718273Y-86993320D01*
X135483241Y-87150363D01*
X135283363Y-87350241D01*
X135126320Y-87585273D01*
X135018147Y-87846426D01*
X134963000Y-88123665D01*
X131424692Y-88123665D01*
X131416215Y-88037600D01*
X131349885Y-87818940D01*
X131248895Y-87630000D01*
X131349885Y-87441060D01*
X131416215Y-87222400D01*
X131438612Y-86995000D01*
X131416215Y-86767600D01*
X131352907Y-86558902D01*
X131387502Y-86494180D01*
X131423812Y-86374482D01*
X131436072Y-86250000D01*
X131436072Y-85200000D01*
X131423812Y-85075518D01*
X131387502Y-84955820D01*
X131328537Y-84845506D01*
X131249185Y-84748815D01*
X131152494Y-84669463D01*
X131042180Y-84610498D01*
X130922482Y-84574188D01*
X130798000Y-84561928D01*
X129298000Y-84561928D01*
X129173518Y-84574188D01*
X129053820Y-84610498D01*
X128943506Y-84669463D01*
X128846815Y-84748815D01*
X128767463Y-84845506D01*
X128708498Y-84955820D01*
X128672188Y-85075518D01*
X128659928Y-85200000D01*
X128659928Y-86250000D01*
X128672188Y-86374482D01*
X128708498Y-86494180D01*
X128743093Y-86558902D01*
X128679785Y-86767600D01*
X128657388Y-86995000D01*
X123183745Y-86995000D01*
X123309355Y-86920178D01*
X123525588Y-86725269D01*
X123699641Y-86491920D01*
X123824825Y-86229099D01*
X123869476Y-86081890D01*
X123748155Y-85852000D01*
X122555000Y-85852000D01*
X122301000Y-85852000D01*
X121107845Y-85852000D01*
X120986524Y-86081890D01*
X112395000Y-86081890D01*
X112395000Y-85368110D01*
X120986524Y-85368110D01*
X121107845Y-85598000D01*
X122301000Y-85598000D01*
X122301000Y-84404186D01*
X122555000Y-84404186D01*
X122555000Y-85598000D01*
X123748155Y-85598000D01*
X123869476Y-85368110D01*
X123824825Y-85220901D01*
X123699641Y-84958080D01*
X123525588Y-84724731D01*
X123309355Y-84529822D01*
X123059252Y-84380843D01*
X122784891Y-84283519D01*
X122555000Y-84404186D01*
X122301000Y-84404186D01*
X122071109Y-84283519D01*
X121796748Y-84380843D01*
X121546645Y-84529822D01*
X121330412Y-84724731D01*
X121156359Y-84958080D01*
X121031175Y-85220901D01*
X120986524Y-85368110D01*
X112395000Y-85368110D01*
X112395000Y-83895000D01*
X122393123Y-83895000D01*
X122428000Y-83898435D01*
X122462877Y-83895000D01*
X122567184Y-83884727D01*
X122701020Y-83844128D01*
X122824363Y-83778200D01*
X122932475Y-83689475D01*
X123021200Y-83581363D01*
X123087128Y-83458020D01*
X123127727Y-83324184D01*
X123141435Y-83185000D01*
X123138000Y-83150123D01*
X123138000Y-83043665D01*
X134963000Y-83043665D01*
X134963000Y-83326335D01*
X135018147Y-83603574D01*
X135126320Y-83864727D01*
X135283363Y-84099759D01*
X135483241Y-84299637D01*
X135718273Y-84456680D01*
X135979426Y-84564853D01*
X136256665Y-84620000D01*
X136539335Y-84620000D01*
X136816574Y-84564853D01*
X137077727Y-84456680D01*
X137312759Y-84299637D01*
X137512637Y-84099759D01*
X137669680Y-83864727D01*
X137777853Y-83603574D01*
X137833000Y-83326335D01*
X137833000Y-83043665D01*
X137777853Y-82766426D01*
X137669680Y-82505273D01*
X137512637Y-82270241D01*
X137312759Y-82070363D01*
X137077727Y-81913320D01*
X136816574Y-81805147D01*
X136539335Y-81750000D01*
X136256665Y-81750000D01*
X135979426Y-81805147D01*
X135718273Y-81913320D01*
X135483241Y-82070363D01*
X135283363Y-82270241D01*
X135126320Y-82505273D01*
X135018147Y-82766426D01*
X134963000Y-83043665D01*
X123138000Y-83043665D01*
X123138000Y-78232000D01*
X148817110Y-78232000D01*
X139719111Y-87330000D01*
X139719111Y-87330000D01*
G37*
X139719111Y-87330000D02*
X138845911Y-87330000D01*
X138800641Y-87339005D01*
X138754708Y-87343529D01*
X138710538Y-87356928D01*
X138665271Y-87365932D01*
X138622631Y-87383594D01*
X138578460Y-87396993D01*
X138537752Y-87418752D01*
X138495111Y-87436414D01*
X138456736Y-87462055D01*
X138416028Y-87483814D01*
X138380347Y-87513097D01*
X138341972Y-87538738D01*
X138309335Y-87571375D01*
X138273656Y-87600656D01*
X138244376Y-87636334D01*
X138211738Y-87668972D01*
X138186097Y-87707347D01*
X138156814Y-87743028D01*
X138135055Y-87783736D01*
X138109414Y-87822111D01*
X138091752Y-87864752D01*
X138069993Y-87905460D01*
X138056594Y-87949631D01*
X138038932Y-87992271D01*
X138029928Y-88037538D01*
X138016529Y-88081708D01*
X138012005Y-88127641D01*
X138003000Y-88172911D01*
X138003000Y-88219068D01*
X137998476Y-88265000D01*
X138003000Y-88310932D01*
X138003000Y-88357089D01*
X138012005Y-88402359D01*
X138016529Y-88448292D01*
X138029928Y-88492462D01*
X138038932Y-88537729D01*
X138056594Y-88580369D01*
X138069993Y-88624540D01*
X138091752Y-88665248D01*
X138109414Y-88707889D01*
X138135055Y-88746264D01*
X138156814Y-88786972D01*
X138186097Y-88822653D01*
X138211738Y-88861028D01*
X138244375Y-88893665D01*
X138273656Y-88929344D01*
X138309335Y-88958625D01*
X138341972Y-88991262D01*
X138380347Y-89016903D01*
X138416028Y-89046186D01*
X138456736Y-89067945D01*
X138495111Y-89093586D01*
X138537752Y-89111248D01*
X138578460Y-89133007D01*
X138622631Y-89146406D01*
X138665271Y-89164068D01*
X138710538Y-89173072D01*
X138754708Y-89186471D01*
X138800641Y-89190995D01*
X138845911Y-89200000D01*
X140060468Y-89200000D01*
X140106400Y-89204524D01*
X140152332Y-89200000D01*
X140289692Y-89186471D01*
X140465940Y-89133007D01*
X140628372Y-89046186D01*
X140770744Y-88929344D01*
X140800030Y-88893659D01*
X141428689Y-88265000D01*
X150196057Y-88265000D01*
X150223764Y-88546309D01*
X150305818Y-88816808D01*
X150439068Y-89066101D01*
X150618392Y-89284608D01*
X150836899Y-89463932D01*
X151086192Y-89597182D01*
X151356691Y-89679236D01*
X151567508Y-89700000D01*
X151708492Y-89700000D01*
X151919309Y-89679236D01*
X152189808Y-89597182D01*
X152439101Y-89463932D01*
X152657608Y-89284608D01*
X152836932Y-89066101D01*
X152970182Y-88816808D01*
X153052236Y-88546309D01*
X153079943Y-88265000D01*
X153052236Y-87983691D01*
X152970182Y-87713192D01*
X152836932Y-87463899D01*
X152657608Y-87245392D01*
X152439101Y-87066068D01*
X152189808Y-86932818D01*
X151919309Y-86850764D01*
X151708492Y-86830000D01*
X151567508Y-86830000D01*
X151356691Y-86850764D01*
X151086192Y-86932818D01*
X150836899Y-87066068D01*
X150618392Y-87245392D01*
X150439068Y-87463899D01*
X150305818Y-87713192D01*
X150223764Y-87983691D01*
X150196057Y-88265000D01*
X141428689Y-88265000D01*
X146508689Y-83185000D01*
X150196057Y-83185000D01*
X150223764Y-83466309D01*
X150305818Y-83736808D01*
X150439068Y-83986101D01*
X150618392Y-84204608D01*
X150836899Y-84383932D01*
X151086192Y-84517182D01*
X151356691Y-84599236D01*
X151567508Y-84620000D01*
X151708492Y-84620000D01*
X151919309Y-84599236D01*
X152189808Y-84517182D01*
X152439101Y-84383932D01*
X152657608Y-84204608D01*
X152836932Y-83986101D01*
X152970182Y-83736808D01*
X153052236Y-83466309D01*
X153079943Y-83185000D01*
X154006057Y-83185000D01*
X154033764Y-83466309D01*
X154115818Y-83736808D01*
X154249068Y-83986101D01*
X154428392Y-84204608D01*
X154646899Y-84383932D01*
X154896192Y-84517182D01*
X155166691Y-84599236D01*
X155377508Y-84620000D01*
X155518492Y-84620000D01*
X155729309Y-84599236D01*
X155999808Y-84517182D01*
X156249101Y-84383932D01*
X156467608Y-84204608D01*
X156646932Y-83986101D01*
X156780182Y-83736808D01*
X156862236Y-83466309D01*
X156889943Y-83185000D01*
X156862236Y-82903691D01*
X156780182Y-82633192D01*
X156646932Y-82383899D01*
X156467608Y-82165392D01*
X156249101Y-81986068D01*
X155999808Y-81852818D01*
X155729309Y-81770764D01*
X155518492Y-81750000D01*
X155377508Y-81750000D01*
X155166691Y-81770764D01*
X154896192Y-81852818D01*
X154646899Y-81986068D01*
X154428392Y-82165392D01*
X154249068Y-82383899D01*
X154115818Y-82633192D01*
X154033764Y-82903691D01*
X154006057Y-83185000D01*
X153079943Y-83185000D01*
X153052236Y-82903691D01*
X152970182Y-82633192D01*
X152836932Y-82383899D01*
X152657608Y-82165392D01*
X152439101Y-81986068D01*
X152189808Y-81852818D01*
X151919309Y-81770764D01*
X151708492Y-81750000D01*
X151567508Y-81750000D01*
X151356691Y-81770764D01*
X151086192Y-81852818D01*
X150836899Y-81986068D01*
X150618392Y-82165392D01*
X150439068Y-82383899D01*
X150305818Y-82633192D01*
X150223764Y-82903691D01*
X150196057Y-83185000D01*
X146508689Y-83185000D01*
X151461690Y-78232000D01*
X157053001Y-78232000D01*
X157053000Y-95792911D01*
X157053000Y-95977089D01*
X157062005Y-96022360D01*
X157066529Y-96068291D01*
X157079927Y-96112459D01*
X157088932Y-96157729D01*
X157106595Y-96200372D01*
X157119993Y-96244539D01*
X157141750Y-96285243D01*
X157159414Y-96327889D01*
X157185058Y-96366268D01*
X157206814Y-96406971D01*
X157236094Y-96442649D01*
X157261738Y-96481028D01*
X157294376Y-96513666D01*
X157300087Y-96520624D01*
X153581975Y-100238736D01*
X153581972Y-100238738D01*
X153451738Y-100368972D01*
X153426089Y-100407358D01*
X153396815Y-100443029D01*
X153375062Y-100483726D01*
X153349414Y-100522111D01*
X153331748Y-100564762D01*
X153309994Y-100605460D01*
X153296597Y-100649623D01*
X153278932Y-100692271D01*
X153269927Y-100737543D01*
X153256529Y-100781709D01*
X153252005Y-100827640D01*
X153243000Y-100872911D01*
X153243000Y-100919068D01*
X153238476Y-100965000D01*
X153243000Y-101010932D01*
X153243000Y-101057089D01*
X153252005Y-101102360D01*
X153256529Y-101148291D01*
X153269927Y-101192457D01*
X153278932Y-101237729D01*
X153296597Y-101280377D01*
X153309994Y-101324540D01*
X153331748Y-101365238D01*
X153349414Y-101407889D01*
X153375062Y-101446274D01*
X153396815Y-101486971D01*
X153426089Y-101522641D01*
X153451738Y-101561028D01*
X153484385Y-101593675D01*
X153513657Y-101629343D01*
X153549325Y-101658615D01*
X153581972Y-101691262D01*
X153620359Y-101716911D01*
X153656029Y-101746185D01*
X153696726Y-101767938D01*
X153735111Y-101793586D01*
X153777762Y-101811252D01*
X153818460Y-101833006D01*
X153862623Y-101846403D01*
X153905271Y-101864068D01*
X153950543Y-101873073D01*
X153994709Y-101886471D01*
X154040640Y-101890995D01*
X154085911Y-101900000D01*
X154132068Y-101900000D01*
X154178000Y-101904524D01*
X154223932Y-101900000D01*
X154270089Y-101900000D01*
X154315360Y-101890995D01*
X154361291Y-101886471D01*
X154405457Y-101873073D01*
X154450729Y-101864068D01*
X154493377Y-101846403D01*
X154537540Y-101833006D01*
X154578238Y-101811252D01*
X154620889Y-101793586D01*
X154659274Y-101767938D01*
X154699971Y-101746185D01*
X154735642Y-101716911D01*
X154774028Y-101691262D01*
X154904262Y-101561028D01*
X154904264Y-101561025D01*
X159886660Y-96578629D01*
X159922344Y-96549344D01*
X160039186Y-96406972D01*
X160126007Y-96244540D01*
X160179471Y-96068292D01*
X160193000Y-95930932D01*
X160193000Y-95930931D01*
X160197524Y-95885000D01*
X160193000Y-95839068D01*
X160193000Y-78232000D01*
X163403001Y-78232000D01*
X163403000Y-97109068D01*
X163398476Y-97155000D01*
X163403000Y-97200931D01*
X163416529Y-97338291D01*
X163469993Y-97514539D01*
X163556814Y-97676971D01*
X163673656Y-97819344D01*
X163709341Y-97848630D01*
X166825711Y-100965000D01*
X162680711Y-105110000D01*
X155835290Y-105110000D01*
X155652127Y-104926838D01*
X155729309Y-104919236D01*
X155999808Y-104837182D01*
X156249101Y-104703932D01*
X156467608Y-104524608D01*
X156646932Y-104306101D01*
X156780182Y-104056808D01*
X156862236Y-103786309D01*
X156889943Y-103505000D01*
X156862236Y-103223691D01*
X156780182Y-102953192D01*
X156646932Y-102703899D01*
X156467608Y-102485392D01*
X156249101Y-102306068D01*
X155999808Y-102172818D01*
X155729309Y-102090764D01*
X155518492Y-102070000D01*
X155377508Y-102070000D01*
X155166691Y-102090764D01*
X154896192Y-102172818D01*
X154646899Y-102306068D01*
X154428392Y-102485392D01*
X154249068Y-102703899D01*
X154115818Y-102953192D01*
X154033764Y-103223691D01*
X154006057Y-103505000D01*
X154033764Y-103786309D01*
X154059151Y-103870001D01*
X153028509Y-103870001D01*
X153073000Y-103646335D01*
X153073000Y-103363665D01*
X153017853Y-103086426D01*
X152909680Y-102825273D01*
X152752637Y-102590241D01*
X152552759Y-102390363D01*
X152317727Y-102233320D01*
X152056574Y-102125147D01*
X151779335Y-102070000D01*
X151496665Y-102070000D01*
X151219426Y-102125147D01*
X150958273Y-102233320D01*
X150723241Y-102390363D01*
X150523363Y-102590241D01*
X150366320Y-102825273D01*
X150258147Y-103086426D01*
X150203000Y-103363665D01*
X150203000Y-103646335D01*
X150247491Y-103870001D01*
X146975290Y-103870001D01*
X141530289Y-98425000D01*
X150196057Y-98425000D01*
X150223764Y-98706309D01*
X150305818Y-98976808D01*
X150439068Y-99226101D01*
X150618392Y-99444608D01*
X150836899Y-99623932D01*
X151086192Y-99757182D01*
X151356691Y-99839236D01*
X151567508Y-99860000D01*
X151708492Y-99860000D01*
X151919309Y-99839236D01*
X152189808Y-99757182D01*
X152439101Y-99623932D01*
X152657608Y-99444608D01*
X152836932Y-99226101D01*
X152970182Y-98976808D01*
X153052236Y-98706309D01*
X153079943Y-98425000D01*
X153052236Y-98143691D01*
X152970182Y-97873192D01*
X152836932Y-97623899D01*
X152657608Y-97405392D01*
X152439101Y-97226068D01*
X152189808Y-97092818D01*
X151919309Y-97010764D01*
X151708492Y-96990000D01*
X151567508Y-96990000D01*
X151356691Y-97010764D01*
X151086192Y-97092818D01*
X150836899Y-97226068D01*
X150618392Y-97405392D01*
X150439068Y-97623899D01*
X150305818Y-97873192D01*
X150223764Y-98143691D01*
X150196057Y-98425000D01*
X141530289Y-98425000D01*
X140934264Y-97828975D01*
X140934262Y-97828972D01*
X140804028Y-97698738D01*
X140765642Y-97673089D01*
X140729971Y-97643815D01*
X140689274Y-97622062D01*
X140650889Y-97596414D01*
X140608238Y-97578748D01*
X140567540Y-97556994D01*
X140523377Y-97543597D01*
X140480729Y-97525932D01*
X140435457Y-97516927D01*
X140391291Y-97503529D01*
X140345360Y-97499005D01*
X140300089Y-97490000D01*
X140253932Y-97490000D01*
X140208000Y-97485476D01*
X140162068Y-97490000D01*
X140115911Y-97490000D01*
X140070640Y-97499005D01*
X140024709Y-97503529D01*
X139980543Y-97516927D01*
X139935271Y-97525932D01*
X139892623Y-97543597D01*
X139848460Y-97556994D01*
X139807762Y-97578748D01*
X139765111Y-97596414D01*
X139726726Y-97622062D01*
X139686029Y-97643815D01*
X139650359Y-97673089D01*
X139611972Y-97698738D01*
X139579325Y-97731385D01*
X139543657Y-97760657D01*
X139514385Y-97796325D01*
X139481738Y-97828972D01*
X139456089Y-97867359D01*
X139426815Y-97903029D01*
X139405062Y-97943726D01*
X139379414Y-97982111D01*
X139361748Y-98024762D01*
X139339994Y-98065460D01*
X139326597Y-98109623D01*
X139308932Y-98152271D01*
X139299927Y-98197543D01*
X139286529Y-98241709D01*
X139282005Y-98287640D01*
X139273000Y-98332911D01*
X139273000Y-98379068D01*
X139268476Y-98425000D01*
X139273000Y-98470932D01*
X139273000Y-98517089D01*
X139282005Y-98562360D01*
X139286529Y-98608291D01*
X139299927Y-98652457D01*
X139308932Y-98697729D01*
X139326597Y-98740377D01*
X139339994Y-98784540D01*
X139361748Y-98825238D01*
X139379414Y-98867889D01*
X139405062Y-98906274D01*
X139426815Y-98946971D01*
X139456089Y-98982642D01*
X139481738Y-99021028D01*
X139611972Y-99151262D01*
X139611975Y-99151264D01*
X145894371Y-105433660D01*
X145923657Y-105469345D01*
X146066029Y-105586187D01*
X146228461Y-105673008D01*
X146404709Y-105726472D01*
X146588001Y-105744525D01*
X146633933Y-105740001D01*
X153820712Y-105740001D01*
X154754374Y-106673664D01*
X154783656Y-106709344D01*
X154926028Y-106826186D01*
X155088460Y-106913007D01*
X155165808Y-106936470D01*
X155264707Y-106966471D01*
X155447999Y-106984524D01*
X155493931Y-106980000D01*
X163022068Y-106980000D01*
X163068000Y-106984524D01*
X163113932Y-106980000D01*
X163251292Y-106966471D01*
X163427540Y-106913007D01*
X163589972Y-106826186D01*
X163732344Y-106709344D01*
X163761630Y-106673659D01*
X168483000Y-101952289D01*
X168483000Y-102501712D01*
X157991787Y-112992926D01*
X157954671Y-112923486D01*
X157710702Y-112851903D01*
X156897605Y-113665000D01*
X156911748Y-113679143D01*
X156732143Y-113858748D01*
X156718000Y-113844605D01*
X155904903Y-114657702D01*
X155976486Y-114901671D01*
X156048817Y-114935896D01*
X154444713Y-116540000D01*
X143925911Y-116540000D01*
X143880641Y-116549005D01*
X143834708Y-116553529D01*
X143790538Y-116566928D01*
X143745271Y-116575932D01*
X143702631Y-116593594D01*
X143658460Y-116606993D01*
X143617752Y-116628752D01*
X143575111Y-116646414D01*
X143536736Y-116672055D01*
X143496028Y-116693814D01*
X143460347Y-116723097D01*
X143421972Y-116748738D01*
X143389335Y-116781375D01*
X143353656Y-116810656D01*
X143324376Y-116846334D01*
X143291738Y-116878972D01*
X143266097Y-116917347D01*
X143236814Y-116953028D01*
X143215055Y-116993736D01*
X143189414Y-117032111D01*
X143171752Y-117074752D01*
X143149993Y-117115460D01*
X143136594Y-117159631D01*
X143118932Y-117202271D01*
X143109928Y-117247538D01*
X143096529Y-117291708D01*
X143092005Y-117337641D01*
X143083000Y-117382911D01*
X143083000Y-117429068D01*
X143078476Y-117475000D01*
X143083000Y-117520932D01*
X143083000Y-117567089D01*
X143092005Y-117612359D01*
X143096529Y-117658292D01*
X143109928Y-117702462D01*
X143118932Y-117747729D01*
X143136594Y-117790369D01*
X143149993Y-117834540D01*
X143171752Y-117875248D01*
X143189414Y-117917889D01*
X143215055Y-117956264D01*
X143236814Y-117996972D01*
X143266097Y-118032653D01*
X143291738Y-118071028D01*
X143324375Y-118103665D01*
X143353656Y-118139344D01*
X143389335Y-118168625D01*
X143421972Y-118201262D01*
X143460347Y-118226903D01*
X143496028Y-118256186D01*
X143536736Y-118277945D01*
X143575111Y-118303586D01*
X143617752Y-118321248D01*
X143658460Y-118343007D01*
X143702631Y-118356406D01*
X143745271Y-118374068D01*
X143790538Y-118383072D01*
X143834708Y-118396471D01*
X143880641Y-118400995D01*
X143925911Y-118410000D01*
X154786070Y-118410000D01*
X154832002Y-118414524D01*
X154877934Y-118410000D01*
X155015294Y-118396471D01*
X155191542Y-118343007D01*
X155353974Y-118256186D01*
X155496346Y-118139344D01*
X155525632Y-118103659D01*
X169427451Y-104201841D01*
X169451329Y-104246514D01*
X169695298Y-104318097D01*
X170508395Y-103505000D01*
X170494253Y-103490858D01*
X170673858Y-103311253D01*
X170688000Y-103325395D01*
X170702143Y-103311253D01*
X170881748Y-103490858D01*
X170867605Y-103505000D01*
X170881748Y-103519143D01*
X170702143Y-103698748D01*
X170688000Y-103684605D01*
X169874903Y-104497702D01*
X169946486Y-104741671D01*
X170201996Y-104862571D01*
X170476184Y-104931300D01*
X170758512Y-104945217D01*
X171038130Y-104903787D01*
X171053001Y-104898469D01*
X171053001Y-105627709D01*
X157570710Y-119110001D01*
X139056849Y-119110001D01*
X139082236Y-119026309D01*
X139109943Y-118745000D01*
X139082236Y-118463691D01*
X139000182Y-118193192D01*
X138866932Y-117943899D01*
X138687608Y-117725392D01*
X138469101Y-117546068D01*
X138219808Y-117412818D01*
X137949309Y-117330764D01*
X137738492Y-117310000D01*
X137597508Y-117310000D01*
X137386691Y-117330764D01*
X137116192Y-117412818D01*
X136866899Y-117546068D01*
X136648392Y-117725392D01*
X136469068Y-117943899D01*
X136335818Y-118193192D01*
X136253764Y-118463691D01*
X136226057Y-118745000D01*
X136253764Y-119026309D01*
X136279151Y-119110001D01*
X132525912Y-119110001D01*
X132480642Y-119119006D01*
X132434709Y-119123530D01*
X132390539Y-119136929D01*
X132345272Y-119145933D01*
X132302632Y-119163595D01*
X132258461Y-119176994D01*
X132217753Y-119198753D01*
X132175112Y-119216415D01*
X132136737Y-119242056D01*
X132096029Y-119263815D01*
X132060348Y-119293098D01*
X132021973Y-119318739D01*
X131989336Y-119351376D01*
X131953657Y-119380657D01*
X131924377Y-119416335D01*
X131891739Y-119448973D01*
X131866098Y-119487348D01*
X131836815Y-119523029D01*
X131815056Y-119563737D01*
X131789415Y-119602112D01*
X131771753Y-119644753D01*
X131749994Y-119685461D01*
X131736595Y-119729632D01*
X131718933Y-119772272D01*
X131709929Y-119817539D01*
X131696530Y-119861709D01*
X131692006Y-119907642D01*
X131683001Y-119952912D01*
X131683001Y-119999069D01*
X131678477Y-120045001D01*
X131683001Y-120090933D01*
X131683001Y-120137090D01*
X131692006Y-120182360D01*
X131696530Y-120228293D01*
X131709929Y-120272463D01*
X131718933Y-120317730D01*
X131736595Y-120360370D01*
X131749994Y-120404541D01*
X131771753Y-120445249D01*
X131789415Y-120487890D01*
X131815056Y-120526265D01*
X131836815Y-120566973D01*
X131866098Y-120602654D01*
X131891739Y-120641029D01*
X131924376Y-120673666D01*
X131953657Y-120709345D01*
X131989336Y-120738626D01*
X132021973Y-120771263D01*
X132060348Y-120796904D01*
X132096029Y-120826187D01*
X132136737Y-120847946D01*
X132175112Y-120873587D01*
X132217753Y-120891249D01*
X132258461Y-120913008D01*
X132302632Y-120926407D01*
X132345272Y-120944069D01*
X132390539Y-120953073D01*
X132434709Y-120966472D01*
X132480642Y-120970996D01*
X132525912Y-120980001D01*
X157912067Y-120980001D01*
X157957999Y-120984525D01*
X158003931Y-120980001D01*
X158141291Y-120966472D01*
X158317539Y-120913008D01*
X158479971Y-120826187D01*
X158622343Y-120709345D01*
X158651629Y-120673660D01*
X172616667Y-106708623D01*
X172652345Y-106679343D01*
X172769187Y-106536971D01*
X172856008Y-106374539D01*
X172909472Y-106198291D01*
X172923001Y-106060931D01*
X172923001Y-106060930D01*
X172927525Y-106015000D01*
X172923001Y-105969068D01*
X172923001Y-78333332D01*
X172927525Y-78287400D01*
X172922068Y-78232000D01*
X174371000Y-78232000D01*
X174371000Y-121158000D01*
X112395000Y-121158000D01*
X112395000Y-114935000D01*
X114687388Y-114935000D01*
X114709785Y-115162400D01*
X114776115Y-115381060D01*
X114877105Y-115570000D01*
X114776115Y-115758940D01*
X114709785Y-115977600D01*
X114687388Y-116205000D01*
X114709785Y-116432400D01*
X114773093Y-116641098D01*
X114738498Y-116705820D01*
X114702188Y-116825518D01*
X114689928Y-116950000D01*
X114689928Y-118000000D01*
X114702188Y-118124482D01*
X114738498Y-118244180D01*
X114797463Y-118354494D01*
X114876815Y-118451185D01*
X114973506Y-118530537D01*
X115083820Y-118589502D01*
X115203518Y-118625812D01*
X115328000Y-118638072D01*
X116828000Y-118638072D01*
X116952482Y-118625812D01*
X117025490Y-118603665D01*
X120993000Y-118603665D01*
X120993000Y-118886335D01*
X121048147Y-119163574D01*
X121156320Y-119424727D01*
X121313363Y-119659759D01*
X121513241Y-119859637D01*
X121748273Y-120016680D01*
X122009426Y-120124853D01*
X122286665Y-120180000D01*
X122569335Y-120180000D01*
X122846574Y-120124853D01*
X123107727Y-120016680D01*
X123342759Y-119859637D01*
X123542637Y-119659759D01*
X123699680Y-119424727D01*
X123807853Y-119163574D01*
X123863000Y-118886335D01*
X123863000Y-118603665D01*
X123807853Y-118326426D01*
X123699680Y-118065273D01*
X123542637Y-117830241D01*
X123342759Y-117630363D01*
X123107727Y-117473320D01*
X122846574Y-117365147D01*
X122569335Y-117310000D01*
X122286665Y-117310000D01*
X122009426Y-117365147D01*
X121748273Y-117473320D01*
X121513241Y-117630363D01*
X121313363Y-117830241D01*
X121156320Y-118065273D01*
X121048147Y-118326426D01*
X120993000Y-118603665D01*
X117025490Y-118603665D01*
X117072180Y-118589502D01*
X117182494Y-118530537D01*
X117279185Y-118451185D01*
X117358537Y-118354494D01*
X117417502Y-118244180D01*
X117453812Y-118124482D01*
X117466072Y-118000000D01*
X117466072Y-116950000D01*
X117453812Y-116825518D01*
X117417502Y-116705820D01*
X117382907Y-116641098D01*
X117446215Y-116432400D01*
X117468612Y-116205000D01*
X117446215Y-115977600D01*
X117379885Y-115758940D01*
X117278895Y-115570000D01*
X117379885Y-115381060D01*
X117446215Y-115162400D01*
X117468612Y-114935000D01*
X117446215Y-114707600D01*
X117379885Y-114488940D01*
X117272171Y-114287421D01*
X117127212Y-114110788D01*
X116950579Y-113965829D01*
X116749060Y-113858115D01*
X116530400Y-113791785D01*
X116359979Y-113775000D01*
X115796021Y-113775000D01*
X115625600Y-113791785D01*
X115406940Y-113858115D01*
X115205421Y-113965829D01*
X115028788Y-114110788D01*
X114883829Y-114287421D01*
X114776115Y-114488940D01*
X114709785Y-114707600D01*
X114687388Y-114935000D01*
X112395000Y-114935000D01*
X112395000Y-113665000D01*
X120986057Y-113665000D01*
X121013764Y-113946309D01*
X121095818Y-114216808D01*
X121229068Y-114466101D01*
X121408392Y-114684608D01*
X121626899Y-114863932D01*
X121876192Y-114997182D01*
X122146691Y-115079236D01*
X122357508Y-115100000D01*
X122498492Y-115100000D01*
X122709309Y-115079236D01*
X122979808Y-114997182D01*
X123229101Y-114863932D01*
X123447608Y-114684608D01*
X123626932Y-114466101D01*
X123760182Y-114216808D01*
X123842236Y-113946309D01*
X123869943Y-113665000D01*
X123856023Y-113523665D01*
X136233000Y-113523665D01*
X136233000Y-113806335D01*
X136288147Y-114083574D01*
X136396320Y-114344727D01*
X136553363Y-114579759D01*
X136753241Y-114779637D01*
X136988273Y-114936680D01*
X137249426Y-115044853D01*
X137526665Y-115100000D01*
X137809335Y-115100000D01*
X138086574Y-115044853D01*
X138347727Y-114936680D01*
X138582759Y-114779637D01*
X138782637Y-114579759D01*
X138939680Y-114344727D01*
X139047853Y-114083574D01*
X139103000Y-113806335D01*
X139103000Y-113665000D01*
X140036057Y-113665000D01*
X140063764Y-113946309D01*
X140145818Y-114216808D01*
X140279068Y-114466101D01*
X140458392Y-114684608D01*
X140676899Y-114863932D01*
X140926192Y-114997182D01*
X141196691Y-115079236D01*
X141407508Y-115100000D01*
X141548492Y-115100000D01*
X141759309Y-115079236D01*
X142029808Y-114997182D01*
X142279101Y-114863932D01*
X142497608Y-114684608D01*
X142676932Y-114466101D01*
X142810182Y-114216808D01*
X142892236Y-113946309D01*
X142912998Y-113735512D01*
X155277783Y-113735512D01*
X155319213Y-114015130D01*
X155414397Y-114281292D01*
X155481329Y-114406514D01*
X155725298Y-114478097D01*
X156538395Y-113665000D01*
X155725298Y-112851903D01*
X155481329Y-112923486D01*
X155360429Y-113178996D01*
X155291700Y-113453184D01*
X155277783Y-113735512D01*
X142912998Y-113735512D01*
X142919943Y-113665000D01*
X142892236Y-113383691D01*
X142810182Y-113113192D01*
X142676932Y-112863899D01*
X142519690Y-112672298D01*
X155904903Y-112672298D01*
X156718000Y-113485395D01*
X157531097Y-112672298D01*
X157459514Y-112428329D01*
X157204004Y-112307429D01*
X156929816Y-112238700D01*
X156647488Y-112224783D01*
X156367870Y-112266213D01*
X156101708Y-112361397D01*
X155976486Y-112428329D01*
X155904903Y-112672298D01*
X142519690Y-112672298D01*
X142497608Y-112645392D01*
X142279101Y-112466068D01*
X142029808Y-112332818D01*
X141759309Y-112250764D01*
X141548492Y-112230000D01*
X141407508Y-112230000D01*
X141196691Y-112250764D01*
X140926192Y-112332818D01*
X140676899Y-112466068D01*
X140458392Y-112645392D01*
X140279068Y-112863899D01*
X140145818Y-113113192D01*
X140063764Y-113383691D01*
X140036057Y-113665000D01*
X139103000Y-113665000D01*
X139103000Y-113523665D01*
X139047853Y-113246426D01*
X138939680Y-112985273D01*
X138782637Y-112750241D01*
X138582759Y-112550363D01*
X138347727Y-112393320D01*
X138086574Y-112285147D01*
X137809335Y-112230000D01*
X137526665Y-112230000D01*
X137249426Y-112285147D01*
X136988273Y-112393320D01*
X136753241Y-112550363D01*
X136553363Y-112750241D01*
X136396320Y-112985273D01*
X136288147Y-113246426D01*
X136233000Y-113523665D01*
X123856023Y-113523665D01*
X123842236Y-113383691D01*
X123760182Y-113113192D01*
X123626932Y-112863899D01*
X123447608Y-112645392D01*
X123229101Y-112466068D01*
X122979808Y-112332818D01*
X122709309Y-112250764D01*
X122498492Y-112230000D01*
X122357508Y-112230000D01*
X122146691Y-112250764D01*
X121876192Y-112332818D01*
X121626899Y-112466068D01*
X121408392Y-112645392D01*
X121229068Y-112863899D01*
X121095818Y-113113192D01*
X121013764Y-113383691D01*
X120986057Y-113665000D01*
X112395000Y-113665000D01*
X112395000Y-90805000D01*
X120935815Y-90805000D01*
X120964487Y-91096111D01*
X121049401Y-91376034D01*
X121187294Y-91634014D01*
X121372866Y-91860134D01*
X121598986Y-92045706D01*
X121653791Y-92075000D01*
X121598986Y-92104294D01*
X121372866Y-92289866D01*
X121187294Y-92515986D01*
X121049401Y-92773966D01*
X120964487Y-93053889D01*
X120935815Y-93345000D01*
X120964487Y-93636111D01*
X121049401Y-93916034D01*
X121187294Y-94174014D01*
X121372866Y-94400134D01*
X121598986Y-94585706D01*
X121653791Y-94615000D01*
X121598986Y-94644294D01*
X121372866Y-94829866D01*
X121187294Y-95055986D01*
X121049401Y-95313966D01*
X120964487Y-95593889D01*
X120935815Y-95885000D01*
X120964487Y-96176111D01*
X121049401Y-96456034D01*
X121187294Y-96714014D01*
X121372866Y-96940134D01*
X121598986Y-97125706D01*
X121653791Y-97155000D01*
X121598986Y-97184294D01*
X121372866Y-97369866D01*
X121187294Y-97595986D01*
X121049401Y-97853966D01*
X120964487Y-98133889D01*
X120935815Y-98425000D01*
X120964487Y-98716111D01*
X121049401Y-98996034D01*
X121187294Y-99254014D01*
X121372866Y-99480134D01*
X121598986Y-99665706D01*
X121653791Y-99695000D01*
X121598986Y-99724294D01*
X121372866Y-99909866D01*
X121187294Y-100135986D01*
X121049401Y-100393966D01*
X120964487Y-100673889D01*
X120935815Y-100965000D01*
X120964487Y-101256111D01*
X121049401Y-101536034D01*
X121187294Y-101794014D01*
X121372866Y-102020134D01*
X121598986Y-102205706D01*
X121653791Y-102235000D01*
X121598986Y-102264294D01*
X121372866Y-102449866D01*
X121187294Y-102675986D01*
X121049401Y-102933966D01*
X120964487Y-103213889D01*
X120935815Y-103505000D01*
X120964487Y-103796111D01*
X121049401Y-104076034D01*
X121187294Y-104334014D01*
X121372866Y-104560134D01*
X121598986Y-104745706D01*
X121653791Y-104775000D01*
X121598986Y-104804294D01*
X121372866Y-104989866D01*
X121187294Y-105215986D01*
X121049401Y-105473966D01*
X120964487Y-105753889D01*
X120935815Y-106045000D01*
X120964487Y-106336111D01*
X121049401Y-106616034D01*
X121187294Y-106874014D01*
X121372866Y-107100134D01*
X121402687Y-107124607D01*
X121333820Y-107145498D01*
X121223506Y-107204463D01*
X121126815Y-107283815D01*
X121047463Y-107380506D01*
X120988498Y-107490820D01*
X120952188Y-107610518D01*
X120939928Y-107735000D01*
X120939928Y-109435000D01*
X120952188Y-109559482D01*
X120988498Y-109679180D01*
X121047463Y-109789494D01*
X121126815Y-109886185D01*
X121223506Y-109965537D01*
X121333820Y-110024502D01*
X121453518Y-110060812D01*
X121578000Y-110073072D01*
X123278000Y-110073072D01*
X123402482Y-110060812D01*
X123522180Y-110024502D01*
X123632494Y-109965537D01*
X123729185Y-109886185D01*
X123808537Y-109789494D01*
X123867502Y-109679180D01*
X123903812Y-109559482D01*
X123916072Y-109435000D01*
X123916072Y-108443665D01*
X134963000Y-108443665D01*
X134963000Y-108726335D01*
X135018147Y-109003574D01*
X135126320Y-109264727D01*
X135283363Y-109499759D01*
X135483241Y-109699637D01*
X135718273Y-109856680D01*
X135979426Y-109964853D01*
X136256665Y-110020000D01*
X136539335Y-110020000D01*
X136816574Y-109964853D01*
X137077727Y-109856680D01*
X137312759Y-109699637D01*
X137512637Y-109499759D01*
X137669680Y-109264727D01*
X137777853Y-109003574D01*
X137833000Y-108726335D01*
X137833000Y-108585000D01*
X150196057Y-108585000D01*
X150223764Y-108866309D01*
X150305818Y-109136808D01*
X150439068Y-109386101D01*
X150618392Y-109604608D01*
X150836899Y-109783932D01*
X151086192Y-109917182D01*
X151356691Y-109999236D01*
X151567508Y-110020000D01*
X151708492Y-110020000D01*
X151919309Y-109999236D01*
X152189808Y-109917182D01*
X152439101Y-109783932D01*
X152657608Y-109604608D01*
X152836932Y-109386101D01*
X152970182Y-109136808D01*
X153052236Y-108866309D01*
X153079943Y-108585000D01*
X153052236Y-108303691D01*
X152970182Y-108033192D01*
X152836932Y-107783899D01*
X152657608Y-107565392D01*
X152439101Y-107386068D01*
X152189808Y-107252818D01*
X151919309Y-107170764D01*
X151708492Y-107150000D01*
X151567508Y-107150000D01*
X151356691Y-107170764D01*
X151086192Y-107252818D01*
X150836899Y-107386068D01*
X150618392Y-107565392D01*
X150439068Y-107783899D01*
X150305818Y-108033192D01*
X150223764Y-108303691D01*
X150196057Y-108585000D01*
X137833000Y-108585000D01*
X137833000Y-108443665D01*
X137777853Y-108166426D01*
X137669680Y-107905273D01*
X137512637Y-107670241D01*
X137312759Y-107470363D01*
X137077727Y-107313320D01*
X136816574Y-107205147D01*
X136539335Y-107150000D01*
X136256665Y-107150000D01*
X135979426Y-107205147D01*
X135718273Y-107313320D01*
X135483241Y-107470363D01*
X135283363Y-107670241D01*
X135126320Y-107905273D01*
X135018147Y-108166426D01*
X134963000Y-108443665D01*
X123916072Y-108443665D01*
X123916072Y-107735000D01*
X123903812Y-107610518D01*
X123867502Y-107490820D01*
X123808537Y-107380506D01*
X123729185Y-107283815D01*
X123632494Y-107204463D01*
X123522180Y-107145498D01*
X123453313Y-107124607D01*
X123483134Y-107100134D01*
X123668706Y-106874014D01*
X123806599Y-106616034D01*
X123891513Y-106336111D01*
X123920185Y-106045000D01*
X123891513Y-105753889D01*
X123806599Y-105473966D01*
X123668706Y-105215986D01*
X123483134Y-104989866D01*
X123257014Y-104804294D01*
X123202209Y-104775000D01*
X128657388Y-104775000D01*
X128679785Y-105002400D01*
X128746115Y-105221060D01*
X128847105Y-105410000D01*
X128746115Y-105598940D01*
X128679785Y-105817600D01*
X128657388Y-106045000D01*
X128679785Y-106272400D01*
X128746115Y-106491060D01*
X128853829Y-106692579D01*
X128998788Y-106869212D01*
X129175421Y-107014171D01*
X129376940Y-107121885D01*
X129595600Y-107188215D01*
X129766021Y-107205000D01*
X130329979Y-107205000D01*
X130500400Y-107188215D01*
X130719060Y-107121885D01*
X130920579Y-107014171D01*
X131097212Y-106869212D01*
X131242171Y-106692579D01*
X131349885Y-106491060D01*
X131416215Y-106272400D01*
X131438612Y-106045000D01*
X131416215Y-105817600D01*
X131349885Y-105598940D01*
X131248895Y-105410000D01*
X131349885Y-105221060D01*
X131416215Y-105002400D01*
X131438612Y-104775000D01*
X131416215Y-104547600D01*
X131352907Y-104338902D01*
X131387502Y-104274180D01*
X131423812Y-104154482D01*
X131436072Y-104030000D01*
X131436072Y-103505000D01*
X134956057Y-103505000D01*
X134983764Y-103786309D01*
X135065818Y-104056808D01*
X135199068Y-104306101D01*
X135378392Y-104524608D01*
X135596899Y-104703932D01*
X135846192Y-104837182D01*
X136116691Y-104919236D01*
X136327508Y-104940000D01*
X136468492Y-104940000D01*
X136679309Y-104919236D01*
X136949808Y-104837182D01*
X137199101Y-104703932D01*
X137417608Y-104524608D01*
X137596932Y-104306101D01*
X137730182Y-104056808D01*
X137812236Y-103786309D01*
X137839943Y-103505000D01*
X137812236Y-103223691D01*
X137730182Y-102953192D01*
X137596932Y-102703899D01*
X137417608Y-102485392D01*
X137199101Y-102306068D01*
X136949808Y-102172818D01*
X136679309Y-102090764D01*
X136468492Y-102070000D01*
X136327508Y-102070000D01*
X136116691Y-102090764D01*
X135846192Y-102172818D01*
X135596899Y-102306068D01*
X135378392Y-102485392D01*
X135199068Y-102703899D01*
X135065818Y-102953192D01*
X134983764Y-103223691D01*
X134956057Y-103505000D01*
X131436072Y-103505000D01*
X131436072Y-102980000D01*
X131423812Y-102855518D01*
X131387502Y-102735820D01*
X131328537Y-102625506D01*
X131249185Y-102528815D01*
X131152494Y-102449463D01*
X131042180Y-102390498D01*
X130922482Y-102354188D01*
X130798000Y-102341928D01*
X129298000Y-102341928D01*
X129173518Y-102354188D01*
X129053820Y-102390498D01*
X128943506Y-102449463D01*
X128846815Y-102528815D01*
X128767463Y-102625506D01*
X128708498Y-102735820D01*
X128672188Y-102855518D01*
X128659928Y-102980000D01*
X128659928Y-104030000D01*
X128672188Y-104154482D01*
X128708498Y-104274180D01*
X128743093Y-104338902D01*
X128679785Y-104547600D01*
X128657388Y-104775000D01*
X123202209Y-104775000D01*
X123257014Y-104745706D01*
X123483134Y-104560134D01*
X123668706Y-104334014D01*
X123806599Y-104076034D01*
X123891513Y-103796111D01*
X123920185Y-103505000D01*
X123891513Y-103213889D01*
X123806599Y-102933966D01*
X123668706Y-102675986D01*
X123483134Y-102449866D01*
X123257014Y-102264294D01*
X123202209Y-102235000D01*
X123257014Y-102205706D01*
X123483134Y-102020134D01*
X123668706Y-101794014D01*
X123806599Y-101536034D01*
X123891513Y-101256111D01*
X123920185Y-100965000D01*
X123891513Y-100673889D01*
X123806599Y-100393966D01*
X123668706Y-100135986D01*
X123483134Y-99909866D01*
X123257014Y-99724294D01*
X123202209Y-99695000D01*
X123257014Y-99665706D01*
X123483134Y-99480134D01*
X123668706Y-99254014D01*
X123806599Y-98996034D01*
X123891513Y-98716111D01*
X123920185Y-98425000D01*
X123891513Y-98133889D01*
X123806599Y-97853966D01*
X123668706Y-97595986D01*
X123483134Y-97369866D01*
X123257014Y-97184294D01*
X123202209Y-97155000D01*
X123257014Y-97125706D01*
X123483134Y-96940134D01*
X123668706Y-96714014D01*
X123806599Y-96456034D01*
X123891513Y-96176111D01*
X123920185Y-95885000D01*
X128657388Y-95885000D01*
X128679785Y-96112400D01*
X128746115Y-96331060D01*
X128847105Y-96520000D01*
X128746115Y-96708940D01*
X128679785Y-96927600D01*
X128657388Y-97155000D01*
X128679785Y-97382400D01*
X128746115Y-97601060D01*
X128853829Y-97802579D01*
X128998788Y-97979212D01*
X129175421Y-98124171D01*
X129376940Y-98231885D01*
X129595600Y-98298215D01*
X129766021Y-98315000D01*
X130329979Y-98315000D01*
X130500400Y-98298215D01*
X130548364Y-98283665D01*
X134963000Y-98283665D01*
X134963000Y-98566335D01*
X135018147Y-98843574D01*
X135126320Y-99104727D01*
X135283363Y-99339759D01*
X135483241Y-99539637D01*
X135718273Y-99696680D01*
X135979426Y-99804853D01*
X136256665Y-99860000D01*
X136539335Y-99860000D01*
X136816574Y-99804853D01*
X137077727Y-99696680D01*
X137312759Y-99539637D01*
X137512637Y-99339759D01*
X137669680Y-99104727D01*
X137777853Y-98843574D01*
X137833000Y-98566335D01*
X137833000Y-98283665D01*
X137777853Y-98006426D01*
X137669680Y-97745273D01*
X137512637Y-97510241D01*
X137312759Y-97310363D01*
X137077727Y-97153320D01*
X136816574Y-97045147D01*
X136539335Y-96990000D01*
X136256665Y-96990000D01*
X135979426Y-97045147D01*
X135718273Y-97153320D01*
X135483241Y-97310363D01*
X135283363Y-97510241D01*
X135126320Y-97745273D01*
X135018147Y-98006426D01*
X134963000Y-98283665D01*
X130548364Y-98283665D01*
X130719060Y-98231885D01*
X130920579Y-98124171D01*
X131097212Y-97979212D01*
X131242171Y-97802579D01*
X131349885Y-97601060D01*
X131416215Y-97382400D01*
X131438612Y-97155000D01*
X131416215Y-96927600D01*
X131349885Y-96708940D01*
X131248895Y-96520000D01*
X131349885Y-96331060D01*
X131416215Y-96112400D01*
X131438612Y-95885000D01*
X131416215Y-95657600D01*
X131352907Y-95448902D01*
X131387502Y-95384180D01*
X131423812Y-95264482D01*
X131436072Y-95140000D01*
X131436072Y-94090000D01*
X131423812Y-93965518D01*
X131387502Y-93845820D01*
X131328537Y-93735506D01*
X131249185Y-93638815D01*
X131152494Y-93559463D01*
X131042180Y-93500498D01*
X130922482Y-93464188D01*
X130798000Y-93451928D01*
X129298000Y-93451928D01*
X129173518Y-93464188D01*
X129053820Y-93500498D01*
X128943506Y-93559463D01*
X128846815Y-93638815D01*
X128767463Y-93735506D01*
X128708498Y-93845820D01*
X128672188Y-93965518D01*
X128659928Y-94090000D01*
X128659928Y-95140000D01*
X128672188Y-95264482D01*
X128708498Y-95384180D01*
X128743093Y-95448902D01*
X128679785Y-95657600D01*
X128657388Y-95885000D01*
X123920185Y-95885000D01*
X123891513Y-95593889D01*
X123806599Y-95313966D01*
X123668706Y-95055986D01*
X123483134Y-94829866D01*
X123257014Y-94644294D01*
X123202209Y-94615000D01*
X123257014Y-94585706D01*
X123483134Y-94400134D01*
X123668706Y-94174014D01*
X123806599Y-93916034D01*
X123891513Y-93636111D01*
X123920185Y-93345000D01*
X123906265Y-93203665D01*
X134963000Y-93203665D01*
X134963000Y-93486335D01*
X135018147Y-93763574D01*
X135126320Y-94024727D01*
X135283363Y-94259759D01*
X135483241Y-94459637D01*
X135718273Y-94616680D01*
X135979426Y-94724853D01*
X136256665Y-94780000D01*
X136539335Y-94780000D01*
X136816574Y-94724853D01*
X137077727Y-94616680D01*
X137312759Y-94459637D01*
X137512637Y-94259759D01*
X137669680Y-94024727D01*
X137777853Y-93763574D01*
X137833000Y-93486335D01*
X137833000Y-93345000D01*
X150196057Y-93345000D01*
X150223764Y-93626309D01*
X150305818Y-93896808D01*
X150439068Y-94146101D01*
X150618392Y-94364608D01*
X150836899Y-94543932D01*
X151086192Y-94677182D01*
X151356691Y-94759236D01*
X151567508Y-94780000D01*
X151708492Y-94780000D01*
X151919309Y-94759236D01*
X152189808Y-94677182D01*
X152439101Y-94543932D01*
X152657608Y-94364608D01*
X152836932Y-94146101D01*
X152970182Y-93896808D01*
X153052236Y-93626309D01*
X153079943Y-93345000D01*
X154006057Y-93345000D01*
X154033764Y-93626309D01*
X154115818Y-93896808D01*
X154249068Y-94146101D01*
X154428392Y-94364608D01*
X154646899Y-94543932D01*
X154896192Y-94677182D01*
X155166691Y-94759236D01*
X155377508Y-94780000D01*
X155518492Y-94780000D01*
X155729309Y-94759236D01*
X155999808Y-94677182D01*
X156249101Y-94543932D01*
X156467608Y-94364608D01*
X156646932Y-94146101D01*
X156780182Y-93896808D01*
X156862236Y-93626309D01*
X156889943Y-93345000D01*
X156862236Y-93063691D01*
X156780182Y-92793192D01*
X156646932Y-92543899D01*
X156467608Y-92325392D01*
X156249101Y-92146068D01*
X155999808Y-92012818D01*
X155729309Y-91930764D01*
X155518492Y-91910000D01*
X155377508Y-91910000D01*
X155166691Y-91930764D01*
X154896192Y-92012818D01*
X154646899Y-92146068D01*
X154428392Y-92325392D01*
X154249068Y-92543899D01*
X154115818Y-92793192D01*
X154033764Y-93063691D01*
X154006057Y-93345000D01*
X153079943Y-93345000D01*
X153052236Y-93063691D01*
X152970182Y-92793192D01*
X152836932Y-92543899D01*
X152657608Y-92325392D01*
X152439101Y-92146068D01*
X152189808Y-92012818D01*
X151919309Y-91930764D01*
X151708492Y-91910000D01*
X151567508Y-91910000D01*
X151356691Y-91930764D01*
X151086192Y-92012818D01*
X150836899Y-92146068D01*
X150618392Y-92325392D01*
X150439068Y-92543899D01*
X150305818Y-92793192D01*
X150223764Y-93063691D01*
X150196057Y-93345000D01*
X137833000Y-93345000D01*
X137833000Y-93203665D01*
X137777853Y-92926426D01*
X137669680Y-92665273D01*
X137512637Y-92430241D01*
X137312759Y-92230363D01*
X137077727Y-92073320D01*
X136816574Y-91965147D01*
X136539335Y-91910000D01*
X136256665Y-91910000D01*
X135979426Y-91965147D01*
X135718273Y-92073320D01*
X135483241Y-92230363D01*
X135283363Y-92430241D01*
X135126320Y-92665273D01*
X135018147Y-92926426D01*
X134963000Y-93203665D01*
X123906265Y-93203665D01*
X123891513Y-93053889D01*
X123806599Y-92773966D01*
X123668706Y-92515986D01*
X123483134Y-92289866D01*
X123257014Y-92104294D01*
X123202209Y-92075000D01*
X123257014Y-92045706D01*
X123483134Y-91860134D01*
X123668706Y-91634014D01*
X123806599Y-91376034D01*
X123891513Y-91096111D01*
X123920185Y-90805000D01*
X123891513Y-90513889D01*
X123806599Y-90233966D01*
X123668706Y-89975986D01*
X123483134Y-89749866D01*
X123257014Y-89564294D01*
X123192477Y-89529799D01*
X123309355Y-89460178D01*
X123525588Y-89265269D01*
X123699641Y-89031920D01*
X123824825Y-88769099D01*
X123869476Y-88621890D01*
X123748155Y-88392000D01*
X122555000Y-88392000D01*
X122555000Y-88412000D01*
X122301000Y-88412000D01*
X122301000Y-88392000D01*
X121107845Y-88392000D01*
X120986524Y-88621890D01*
X121031175Y-88769099D01*
X121156359Y-89031920D01*
X121330412Y-89265269D01*
X121546645Y-89460178D01*
X121663523Y-89529799D01*
X121598986Y-89564294D01*
X121372866Y-89749866D01*
X121187294Y-89975986D01*
X121049401Y-90233966D01*
X120964487Y-90513889D01*
X120935815Y-90805000D01*
X112395000Y-90805000D01*
X112395000Y-86081890D01*
X120986524Y-86081890D01*
X121031175Y-86229099D01*
X121156359Y-86491920D01*
X121330412Y-86725269D01*
X121546645Y-86920178D01*
X121672255Y-86995000D01*
X121546645Y-87069822D01*
X121330412Y-87264731D01*
X121156359Y-87498080D01*
X121031175Y-87760901D01*
X120986524Y-87908110D01*
X121107845Y-88138000D01*
X122301000Y-88138000D01*
X122301000Y-85852000D01*
X122555000Y-85852000D01*
X122555000Y-88138000D01*
X123748155Y-88138000D01*
X123869476Y-87908110D01*
X123824825Y-87760901D01*
X123699641Y-87498080D01*
X123525588Y-87264731D01*
X123309355Y-87069822D01*
X123183745Y-86995000D01*
X128657388Y-86995000D01*
X128679785Y-87222400D01*
X128746115Y-87441060D01*
X128847105Y-87630000D01*
X128746115Y-87818940D01*
X128679785Y-88037600D01*
X128657388Y-88265000D01*
X128679785Y-88492400D01*
X128746115Y-88711060D01*
X128853829Y-88912579D01*
X128998788Y-89089212D01*
X129175421Y-89234171D01*
X129376940Y-89341885D01*
X129595600Y-89408215D01*
X129766021Y-89425000D01*
X130329979Y-89425000D01*
X130500400Y-89408215D01*
X130719060Y-89341885D01*
X130920579Y-89234171D01*
X131097212Y-89089212D01*
X131242171Y-88912579D01*
X131349885Y-88711060D01*
X131416215Y-88492400D01*
X131438612Y-88265000D01*
X131424692Y-88123665D01*
X134963000Y-88123665D01*
X134963000Y-88406335D01*
X135018147Y-88683574D01*
X135126320Y-88944727D01*
X135283363Y-89179759D01*
X135483241Y-89379637D01*
X135718273Y-89536680D01*
X135979426Y-89644853D01*
X136256665Y-89700000D01*
X136539335Y-89700000D01*
X136816574Y-89644853D01*
X137077727Y-89536680D01*
X137312759Y-89379637D01*
X137512637Y-89179759D01*
X137669680Y-88944727D01*
X137777853Y-88683574D01*
X137833000Y-88406335D01*
X137833000Y-88123665D01*
X137777853Y-87846426D01*
X137669680Y-87585273D01*
X137512637Y-87350241D01*
X137312759Y-87150363D01*
X137077727Y-86993320D01*
X136816574Y-86885147D01*
X136539335Y-86830000D01*
X136256665Y-86830000D01*
X135979426Y-86885147D01*
X135718273Y-86993320D01*
X135483241Y-87150363D01*
X135283363Y-87350241D01*
X135126320Y-87585273D01*
X135018147Y-87846426D01*
X134963000Y-88123665D01*
X131424692Y-88123665D01*
X131416215Y-88037600D01*
X131349885Y-87818940D01*
X131248895Y-87630000D01*
X131349885Y-87441060D01*
X131416215Y-87222400D01*
X131438612Y-86995000D01*
X131416215Y-86767600D01*
X131352907Y-86558902D01*
X131387502Y-86494180D01*
X131423812Y-86374482D01*
X131436072Y-86250000D01*
X131436072Y-85200000D01*
X131423812Y-85075518D01*
X131387502Y-84955820D01*
X131328537Y-84845506D01*
X131249185Y-84748815D01*
X131152494Y-84669463D01*
X131042180Y-84610498D01*
X130922482Y-84574188D01*
X130798000Y-84561928D01*
X129298000Y-84561928D01*
X129173518Y-84574188D01*
X129053820Y-84610498D01*
X128943506Y-84669463D01*
X128846815Y-84748815D01*
X128767463Y-84845506D01*
X128708498Y-84955820D01*
X128672188Y-85075518D01*
X128659928Y-85200000D01*
X128659928Y-86250000D01*
X128672188Y-86374482D01*
X128708498Y-86494180D01*
X128743093Y-86558902D01*
X128679785Y-86767600D01*
X128657388Y-86995000D01*
X123183745Y-86995000D01*
X123309355Y-86920178D01*
X123525588Y-86725269D01*
X123699641Y-86491920D01*
X123824825Y-86229099D01*
X123869476Y-86081890D01*
X123748155Y-85852000D01*
X122555000Y-85852000D01*
X122301000Y-85852000D01*
X121107845Y-85852000D01*
X120986524Y-86081890D01*
X112395000Y-86081890D01*
X112395000Y-85368110D01*
X120986524Y-85368110D01*
X121107845Y-85598000D01*
X122301000Y-85598000D01*
X122301000Y-84404186D01*
X122555000Y-84404186D01*
X122555000Y-85598000D01*
X123748155Y-85598000D01*
X123869476Y-85368110D01*
X123824825Y-85220901D01*
X123699641Y-84958080D01*
X123525588Y-84724731D01*
X123309355Y-84529822D01*
X123059252Y-84380843D01*
X122784891Y-84283519D01*
X122555000Y-84404186D01*
X122301000Y-84404186D01*
X122071109Y-84283519D01*
X121796748Y-84380843D01*
X121546645Y-84529822D01*
X121330412Y-84724731D01*
X121156359Y-84958080D01*
X121031175Y-85220901D01*
X120986524Y-85368110D01*
X112395000Y-85368110D01*
X112395000Y-83895000D01*
X122393123Y-83895000D01*
X122428000Y-83898435D01*
X122462877Y-83895000D01*
X122567184Y-83884727D01*
X122701020Y-83844128D01*
X122824363Y-83778200D01*
X122932475Y-83689475D01*
X123021200Y-83581363D01*
X123087128Y-83458020D01*
X123127727Y-83324184D01*
X123141435Y-83185000D01*
X123138000Y-83150123D01*
X123138000Y-83043665D01*
X134963000Y-83043665D01*
X134963000Y-83326335D01*
X135018147Y-83603574D01*
X135126320Y-83864727D01*
X135283363Y-84099759D01*
X135483241Y-84299637D01*
X135718273Y-84456680D01*
X135979426Y-84564853D01*
X136256665Y-84620000D01*
X136539335Y-84620000D01*
X136816574Y-84564853D01*
X137077727Y-84456680D01*
X137312759Y-84299637D01*
X137512637Y-84099759D01*
X137669680Y-83864727D01*
X137777853Y-83603574D01*
X137833000Y-83326335D01*
X137833000Y-83043665D01*
X137777853Y-82766426D01*
X137669680Y-82505273D01*
X137512637Y-82270241D01*
X137312759Y-82070363D01*
X137077727Y-81913320D01*
X136816574Y-81805147D01*
X136539335Y-81750000D01*
X136256665Y-81750000D01*
X135979426Y-81805147D01*
X135718273Y-81913320D01*
X135483241Y-82070363D01*
X135283363Y-82270241D01*
X135126320Y-82505273D01*
X135018147Y-82766426D01*
X134963000Y-83043665D01*
X123138000Y-83043665D01*
X123138000Y-78232000D01*
X148817110Y-78232000D01*
X139719111Y-87330000D01*
G36*
X170881748Y-93330858D02*
G01*
X170867605Y-93345000D01*
X170881748Y-93359143D01*
X170702143Y-93538748D01*
X170688000Y-93524605D01*
X170673858Y-93538748D01*
X170494253Y-93359143D01*
X170508395Y-93345000D01*
X170494253Y-93330858D01*
X170673858Y-93151253D01*
X170688000Y-93165395D01*
X170702143Y-93151253D01*
X170881748Y-93330858D01*
X170881748Y-93330858D01*
G37*
X170881748Y-93330858D02*
X170867605Y-93345000D01*
X170881748Y-93359143D01*
X170702143Y-93538748D01*
X170688000Y-93524605D01*
X170673858Y-93538748D01*
X170494253Y-93359143D01*
X170508395Y-93345000D01*
X170494253Y-93330858D01*
X170673858Y-93151253D01*
X170688000Y-93165395D01*
X170702143Y-93151253D01*
X170881748Y-93330858D01*
G36*
X170881748Y-83170858D02*
G01*
X170867605Y-83185000D01*
X170881748Y-83199143D01*
X170702143Y-83378748D01*
X170688000Y-83364605D01*
X170673858Y-83378748D01*
X170494253Y-83199143D01*
X170508395Y-83185000D01*
X170494253Y-83170858D01*
X170673858Y-82991253D01*
X170688000Y-83005395D01*
X170702143Y-82991253D01*
X170881748Y-83170858D01*
X170881748Y-83170858D01*
G37*
X170881748Y-83170858D02*
X170867605Y-83185000D01*
X170881748Y-83199143D01*
X170702143Y-83378748D01*
X170688000Y-83364605D01*
X170673858Y-83378748D01*
X170494253Y-83199143D01*
X170508395Y-83185000D01*
X170494253Y-83170858D01*
X170673858Y-82991253D01*
X170688000Y-83005395D01*
X170702143Y-82991253D01*
X170881748Y-83170858D01*
M02*
